<svg width="377" height="383" viewBox="0 0 377 383" fill="none" xmlns="http://www.w3.org/2000/svg">
<path d="M368.961 158.391H375.367V232.717H368.961V158.391Z" fill="#FFC077"/>
<path d="M196.233 240.201L194.189 238.115C183.965 237.315 168.429 233.211 158.589 221.061C158.013 220.353 157.486 219.608 157.011 218.829C156.129 217.41 155.508 215.844 155.179 214.205C153.507 205.439 162.569 199.059 166.837 198.015C172.207 196.717 181.447 198.405 185.171 199.195C186.191 199.415 186.801 199.559 186.801 199.559C187.466 199.61 188.135 199.61 188.801 199.559C189.258 199.533 189.75 199.499 190.277 199.457C190.447 199.457 190.617 199.441 190.795 199.423C190.897 199.423 190.995 199.423 191.101 199.407C193.127 199.265 195.161 199.291 197.183 199.483C197.761 199.543 198.363 199.627 198.983 199.729C199.828 199.877 200.666 200.067 201.493 200.299C201.927 200.417 202.359 200.545 202.791 200.689C202.81 200.698 202.83 200.704 202.851 200.707C203.051 200.773 203.251 200.841 203.451 200.919V200.909C206.562 202.062 209.446 203.754 211.969 205.909C214.319 207.895 216.907 209.965 219.597 212.027C223.212 214.795 226.907 217.458 230.677 220.011C230.677 220.011 232.019 220.267 234.021 220.521L234.047 220.309V195.617H283.105C291.105 212.617 303.639 243.463 312.523 268.205C321.763 293.931 351.459 338.865 357.483 353.883C364.653 371.735 364.653 381.683 364.653 381.683H259.139C259.186 377.759 258.77 373.842 257.901 370.015L261.745 352.815C258.759 352.891 254.057 352.815 254.057 352.815V352.831C253.515 352.713 250.825 352.043 239.857 349.183C223.125 344.821 186.843 299.419 186.843 299.419C183.179 297.705 176.755 289.697 172.953 284.665C171.057 282.156 169.902 279.167 169.619 276.035H169.559C169.559 276.035 150.495 273.835 140.253 270.571C140.253 270.571 123.937 266.295 119.389 264.335C119.389 264.335 90.8808 253.755 83.6768 249.589C76.4728 245.423 79.8768 227.961 94.2988 232.135C99.7717 233.72 105.215 235.406 110.625 237.193C113.873 239.528 117.774 240.781 121.775 240.773H142.873C142.873 240.773 167.461 246.127 172.085 247.153L172.685 247.187C173.172 244.955 173.957 242.797 175.017 240.773H195.805L196.233 240.201Z" fill="#FFC077"/>
<path d="M358.812 182.155C358.872 182.071 358.93 181.987 358.99 181.909C358.775 184.035 357.973 186.059 356.674 187.755C355.797 189.012 354.535 189.949 353.079 190.426C351.622 190.903 350.05 190.892 348.6 190.397L343.6 196.743L338 189.633L343 183.287C342.581 181.532 342.55 179.706 342.909 177.937C343.268 176.168 344.008 174.499 345.078 173.045C346.202 171.532 347.846 170.489 349.694 170.117C349.62 170.184 349.553 170.259 349.494 170.339C348.24 172.054 347.565 174.124 347.565 176.248C347.565 178.373 348.24 180.442 349.494 182.157C350.016 182.91 350.713 183.524 351.524 183.949C352.336 184.373 353.238 184.595 354.154 184.595C355.069 184.594 355.971 184.372 356.783 183.948C357.594 183.523 358.29 182.908 358.812 182.155Z" fill="#ACFEC1"/>
<path d="M354.336 207.831C355.361 209.23 355.914 210.92 355.914 212.654C355.914 214.389 355.361 216.078 354.336 217.477C353.91 218.092 353.341 218.594 352.678 218.941C352.015 219.288 351.278 219.469 350.53 219.469C349.782 219.469 349.045 219.288 348.382 218.941C347.719 218.594 347.151 218.092 346.724 217.477C345.705 216.116 345.154 214.462 345.156 212.761L345.088 212.853L337.986 203.853L332.386 196.743L327.386 190.397C325.934 190.895 324.36 190.906 322.902 190.43C321.443 189.953 320.179 189.015 319.3 187.757C318.006 186.059 317.207 184.036 316.992 181.911C317.05 181.989 317.102 182.073 317.17 182.157C317.691 182.911 318.387 183.527 319.198 183.952C320.01 184.378 320.912 184.6 321.828 184.6C322.744 184.6 323.647 184.378 324.458 183.952C325.269 183.527 325.965 182.911 326.486 182.157C327.742 180.443 328.419 178.373 328.419 176.248C328.419 174.123 327.742 172.053 326.486 170.339C326.428 170.262 326.366 170.188 326.3 170.117C328.143 170.491 329.782 171.534 330.9 173.045C331.972 174.498 332.714 176.167 333.075 177.936C333.436 179.705 333.406 181.531 332.988 183.287L337.988 189.633L343.588 196.743L350.682 205.743L350.614 205.837C351.345 205.868 352.059 206.063 352.703 206.409C353.348 206.754 353.906 207.24 354.336 207.831Z" fill="#ACFEC1"/>
<path d="M332.375 196.742L337.983 203.852L335.429 207.094L332.375 196.742Z" fill="#012C10"/>
<path d="M332.376 196.742L335.43 207.094L330.882 212.854L330.806 212.762C330.81 214.464 330.258 216.12 329.236 217.48C328.809 218.094 328.24 218.596 327.577 218.943C326.915 219.29 326.178 219.471 325.43 219.471C324.682 219.471 323.945 219.29 323.282 218.943C322.619 218.596 322.05 218.094 321.624 217.48C320.604 216.078 320.055 214.39 320.055 212.656C320.055 210.923 320.604 209.234 321.624 207.832C322.055 207.241 322.614 206.755 323.259 206.408C323.904 206.062 324.619 205.865 325.35 205.832L325.274 205.738L332.376 196.742Z" fill="#ACFEC1"/>
<path d="M325.258 6.51562H331.368V77.4236H325.258V6.51562Z" fill="#FFC077"/>
<path d="M302.895 40.8402C303.292 41.2861 303.545 41.8414 303.621 42.4334C303.697 43.0253 303.592 43.6264 303.321 44.1581L302.905 44.9221L299.105 51.9382C299.499 52.8111 299.733 53.7482 299.793 54.7042C300.013 58.0821 298.155 60.9502 295.651 61.1042C293.147 61.2582 290.935 58.6622 290.713 55.2842C290.491 51.9062 292.351 49.0402 294.855 48.8842C295.319 48.8522 295.783 48.9155 296.221 49.0702L299.621 42.8101L300.451 41.2741C300.545 41.0444 300.695 40.842 300.887 40.6859C301.08 40.5299 301.309 40.4253 301.553 40.382C301.798 40.3386 302.049 40.3579 302.283 40.438C302.518 40.5182 302.729 40.6565 302.895 40.8402Z" fill="#ACFEC1"/>
<path d="M283.113 195.616H234.055V105C234.055 105 241.275 107.214 250.507 123.046C259.739 138.878 274.263 177.154 282.181 193.646C282.485 194.276 282.803 194.928 283.113 195.616Z" fill="#FFC077"/>
<path d="M254.164 352.846L254.062 352.812C254.062 352.812 258.764 352.888 261.75 352.812L257.906 370.013C256.412 361.979 254.172 353.223 254.07 352.823C254.101 352.833 254.133 352.841 254.164 352.846Z" fill="#012C10"/>
<path d="M234.052 195.617V220.291L234.026 220.503C232.026 220.249 230.682 219.993 230.682 219.993C226.911 217.44 223.216 214.778 219.602 212.009L219.72 211.857C220.315 210.456 220.621 208.949 220.62 207.427V195.627L234.052 195.617Z" fill="#ACFEC1"/>
<path d="M220.625 53.0715V40.8715C220.625 37.848 219.424 34.9484 217.286 32.8105C215.148 30.6726 212.248 29.4715 209.225 29.4715H141.605C138.581 29.4715 135.682 30.6726 133.544 32.8105C131.406 34.9484 130.205 37.848 130.205 40.8715V65.7295C130.205 67.2266 130.5 68.709 131.072 70.0921C131.645 71.4752 132.485 72.7319 133.544 73.7905C134.602 74.8491 135.859 75.6888 137.242 76.2617C138.625 76.8346 140.108 77.1295 141.605 77.1295H209.219C210.716 77.1295 212.198 76.8346 213.581 76.2617C214.964 75.6888 216.221 74.8491 217.28 73.7905C218.338 72.7319 219.178 71.4752 219.751 70.0921C220.324 68.709 220.619 67.2266 220.619 65.7295L220.625 53.0715ZM114.805 126.039V22.1615C114.805 16.732 116.962 11.5249 120.801 7.68549C124.64 3.84604 129.847 1.68856 135.277 1.6875H137.729C137.729 5.7782 139.354 9.70136 142.246 12.5939C145.139 15.4865 149.062 17.1115 153.153 17.1115H191.523C195.613 17.1094 199.536 15.4839 202.43 12.5921C205.323 9.70019 206.95 5.77829 206.955 1.6875H213.575C216.264 1.68671 218.927 2.21569 221.412 3.24423C223.897 4.27277 226.155 5.78072 228.057 7.68195C229.959 9.58319 231.467 11.8405 232.497 14.3249C233.526 16.8093 234.056 19.4722 234.057 22.1615V195.615H220.625V182.574C220.625 179.55 219.424 176.65 217.286 174.512C215.148 172.375 212.248 171.173 209.225 171.173H141.605C138.581 171.173 135.682 172.375 133.544 174.512C131.406 176.65 130.205 179.55 130.205 182.574V207.425C130.205 210.449 131.406 213.349 133.544 215.487C135.682 217.624 138.581 218.826 141.605 218.826H157.023C157.498 219.604 158.025 220.35 158.601 221.057C168.435 233.207 183.971 237.305 194.201 238.111L196.245 240.197L195.821 240.775H135.277C129.846 240.772 124.638 238.613 120.799 234.771C116.96 230.929 114.804 225.72 114.805 220.289V126.039ZM130.221 126.039V136.577C130.221 139.601 131.422 142.501 133.56 144.639C135.698 146.776 138.597 147.977 141.621 147.977H209.235C212.258 147.977 215.158 146.776 217.296 144.639C219.434 142.501 220.635 139.601 220.635 136.577V111.726C220.635 108.702 219.434 105.802 217.296 103.664C215.158 101.527 212.258 100.326 209.235 100.326H141.605C138.581 100.326 135.682 101.527 133.544 103.664C131.406 105.802 130.205 108.702 130.205 111.726L130.221 126.039Z" fill="#ACFEC1"/>
<path d="M220.623 195.614V207.414C220.624 208.936 220.318 210.443 219.723 211.844L219.605 211.996C217.015 210.017 214.471 207.977 211.977 205.878C209.454 203.723 206.571 202.03 203.459 200.878C204.233 199.535 204.688 198.032 204.788 196.486C204.888 194.94 204.632 193.391 204.038 191.959C203.444 190.528 202.529 189.252 201.363 188.231C200.198 187.21 198.813 186.47 197.316 186.069C195.819 185.669 194.25 185.618 192.73 185.92C191.21 186.223 189.78 186.871 188.551 187.814C187.321 188.758 186.325 189.972 185.64 191.361C184.954 192.751 184.597 194.28 184.597 195.83C184.598 196.972 184.796 198.106 185.181 199.182C181.457 198.392 172.217 196.704 166.847 198.002C162.579 199.046 153.517 205.426 155.189 214.192C155.519 215.83 156.139 217.396 157.021 218.816H141.603C138.58 218.816 135.68 217.615 133.542 215.477C131.404 213.339 130.203 210.439 130.203 207.416V182.572C130.203 179.548 131.404 176.649 133.542 174.511C135.68 172.373 138.58 171.172 141.603 171.172H209.217C212.241 171.172 215.14 172.373 217.278 174.511C219.416 176.649 220.617 179.548 220.617 182.572V195.614H220.623Z" fill="#ACFEC1"/>
<path d="M130.203 126.042V111.728C130.203 108.705 131.404 105.805 133.542 103.667C135.68 101.529 138.58 100.328 141.603 100.328H209.217C212.241 100.328 215.14 101.529 217.278 103.667C219.416 105.805 220.617 108.705 220.617 111.728V136.58C220.617 139.604 219.416 142.503 217.278 144.641C215.14 146.779 212.241 147.98 209.217 147.98H141.603C138.58 147.98 135.68 146.779 133.542 144.641C131.404 142.503 130.203 139.604 130.203 136.58V126.042ZM163.091 126.262C163.09 124.264 162.497 122.312 161.387 120.651C160.277 118.991 158.699 117.696 156.853 116.932C155.007 116.168 152.977 115.969 151.017 116.358C149.058 116.748 147.258 117.71 145.846 119.123C144.433 120.535 143.471 122.335 143.081 124.294C142.692 126.254 142.891 128.284 143.655 130.13C144.419 131.976 145.714 133.554 147.374 134.664C149.035 135.774 150.987 136.367 152.985 136.368C154.313 136.369 155.627 136.108 156.854 135.6C158.081 135.092 159.195 134.348 160.134 133.41C161.073 132.471 161.818 131.357 162.327 130.131C162.835 128.904 163.097 127.59 163.097 126.262H163.091Z" fill="#ACFEC1"/>
<path d="M220.623 53.0706V65.7286C220.623 67.2256 220.328 68.708 219.755 70.0912C219.182 71.4743 218.343 72.731 217.284 73.7896C216.226 74.8482 214.969 75.6879 213.586 76.2608C212.203 76.8337 210.72 77.1286 209.223 77.1286H141.603C140.106 77.1286 138.624 76.8337 137.241 76.2608C135.857 75.6879 134.601 74.8482 133.542 73.7896C132.484 72.731 131.644 71.4743 131.071 70.0912C130.498 68.708 130.203 67.2256 130.203 65.7286V40.8766C130.203 37.8531 131.404 34.9535 133.542 32.8155C135.68 30.6776 138.58 29.4766 141.603 29.4766H209.217C212.241 29.4766 215.14 30.6776 217.278 32.8155C219.416 34.9535 220.617 37.8531 220.617 40.8766L220.623 53.0706ZM204.807 53.2906C204.807 51.2918 204.214 49.3379 203.104 47.676C201.993 46.014 200.415 44.7187 198.569 43.9538C196.722 43.1889 194.69 42.9888 192.73 43.3787C190.769 43.7687 188.968 44.7312 187.555 46.1445C186.142 47.5579 185.179 49.3586 184.789 51.319C184.399 53.2794 184.599 55.3113 185.364 57.158C186.129 59.0046 187.425 60.5829 189.087 61.6934C190.748 62.8039 192.702 63.3966 194.701 63.3966C197.38 63.3944 199.949 62.3289 201.843 60.434C203.738 58.5391 204.802 55.9698 204.803 53.2906H204.807Z" fill="#ACFEC1"/>
<path d="M137.727 1.6875H206.953C206.948 5.77828 205.321 9.70019 202.427 12.5921C199.534 15.4839 195.611 17.1094 191.521 17.1115H153.151C149.06 17.1115 145.137 15.4865 142.244 12.5939C139.352 9.70135 137.727 5.7782 137.727 1.6875Z" fill="#012C10"/>
<path d="M204.803 195.834C204.801 197.606 204.336 199.346 203.455 200.882L202.843 200.682C202.822 200.679 202.802 200.673 202.783 200.664C202.357 200.515 201.923 200.385 201.485 200.274C201.274 200.214 201.062 200.157 200.849 200.104C200.561 200.028 200.281 199.968 200.001 199.904L198.975 199.704C198.363 199.594 197.775 199.518 197.175 199.458C195.154 199.262 193.119 199.236 191.093 199.382C190.991 199.382 190.893 199.398 190.787 199.398C190.615 199.415 190.442 199.426 190.269 199.432C189.736 199.466 189.244 199.5 188.793 199.534C188.127 199.586 187.459 199.586 186.793 199.534C186.793 199.534 186.193 199.39 185.163 199.17C184.778 198.095 184.58 196.961 184.579 195.818C184.56 194.48 184.808 193.15 185.307 191.908C185.806 190.665 186.548 189.534 187.488 188.581C188.428 187.627 189.549 186.87 190.784 186.353C192.019 185.836 193.345 185.57 194.684 185.57C196.023 185.57 197.349 185.836 198.584 186.353C199.82 186.87 200.94 187.627 201.88 188.581C202.82 189.534 203.562 190.665 204.061 191.908C204.561 193.15 204.808 194.48 204.789 195.818L204.803 195.834Z" fill="white"/>
<path d="M184.594 53.2935C184.594 54.6206 184.855 55.9348 185.363 57.1609C185.871 58.387 186.615 59.5011 187.554 60.4395C188.492 61.3779 189.606 62.1224 190.832 62.6302C192.058 63.1381 193.373 63.3995 194.7 63.3995C196.027 63.3995 197.341 63.1381 198.567 62.6302C199.793 62.1224 200.907 61.3779 201.846 60.4395C202.784 59.5011 203.529 58.387 204.036 57.1609C204.544 55.9348 204.806 54.6206 204.806 53.2935C204.806 51.9664 204.544 50.6522 204.036 49.4261C203.529 48.2 202.784 47.0859 201.846 46.1475C200.907 45.209 199.793 44.4646 198.567 43.9568C197.341 43.4489 196.027 43.1875 194.7 43.1875C193.373 43.1875 192.058 43.4489 190.832 43.9568C189.606 44.4646 188.492 45.209 187.554 46.1475C186.615 47.0859 185.871 48.2 185.363 49.4261C184.855 50.6522 184.594 51.9664 184.594 53.2935Z" fill="white"/>
<path d="M142.875 240.773H175.023C173.963 242.798 173.178 244.955 172.691 247.187L172.091 247.153C167.463 246.127 142.875 240.773 142.875 240.773Z" fill="#012C10"/>
<path d="M152.989 116.156C154.988 116.155 156.943 116.746 158.606 117.856C160.269 118.965 161.565 120.543 162.331 122.39C163.097 124.236 163.298 126.269 162.909 128.23C162.52 130.191 161.558 131.992 160.145 133.406C158.732 134.82 156.931 135.783 154.97 136.174C153.009 136.564 150.977 136.364 149.13 135.599C147.283 134.834 145.704 133.539 144.593 131.876C143.483 130.214 142.89 128.259 142.891 126.26C142.892 123.582 143.956 121.013 145.849 119.119C147.742 117.224 150.31 116.159 152.989 116.156Z" fill="white"/>
<path d="M129.331 1.6875H135.271C129.842 1.68856 124.635 3.84604 120.796 7.68549C116.957 11.5249 114.8 16.732 114.799 22.1615V126.039H108.859V22.1615C108.86 16.732 111.017 11.5249 114.856 7.68549C118.695 3.84604 123.902 1.68856 129.331 1.6875Z" fill="#012C10"/>
<path d="M135.274 240.771H129.334C123.902 240.771 118.692 238.612 114.851 234.771C111.01 230.93 108.852 225.721 108.852 220.289V126.039H114.802V220.289C114.802 225.719 116.959 230.927 120.798 234.768C124.636 238.609 129.843 240.768 135.274 240.771Z" fill="#012C10"/>
<path d="M102.621 183.778V209.698C102.621 209.698 93.3627 208.112 80.7727 206.016C68.1827 203.92 68.1727 188.816 74.9007 183.778C81.6287 178.74 101.755 183.778 101.755 183.778H102.621Z" fill="#FFC077"/>
<path d="M63.1384 117.529V131.155H59.0224C57.5044 131.155 56.7404 133.463 57.8224 134.821L60.7324 138.479L53.0624 148.117L50.1484 144.459C49.0704 143.103 47.2384 144.059 47.2384 145.971V151.145H36.3864V145.971C36.3864 144.061 34.5524 143.103 33.4744 144.459L30.5644 148.117L22.8944 138.479L25.8044 134.821C26.8824 133.463 26.1184 131.155 24.6044 131.155H20.4844V117.529H24.6044C26.1224 117.529 26.8864 115.213 25.8044 113.863L22.8944 110.199L30.5644 100.561L33.4744 104.217C34.5524 105.567 36.3864 104.617 36.3864 102.699V97.5312H47.2384V102.707C47.2384 104.623 49.0704 105.575 50.1484 104.225L53.0584 100.569L60.7284 110.199L57.8184 113.855C56.7404 115.205 57.5044 117.521 59.0184 117.521L63.1384 117.529ZM48.2464 124.343C48.2464 119.871 45.3624 116.247 41.8164 116.247C38.2704 116.247 35.3764 119.871 35.3764 124.343C35.3764 128.815 38.2604 132.429 41.8164 132.429C45.3724 132.429 48.2464 128.799 48.2464 124.343Z" fill="#ACFEC1"/>
<path d="M1.67188 85.6719H8.62988V166.414H1.67188V85.6719Z" fill="#FFC077"/>
<path d="M8.63281 85.6719L76.7388 91.6119V160.474L8.63281 166.414" stroke="#012C10" stroke-width="1.696" stroke-linecap="round" stroke-linejoin="round"/>
<path d="M1.67188 85.6719H8.62988V166.414H1.67188V85.6719Z" stroke="#012C10" stroke-width="1.696" stroke-linecap="round" stroke-linejoin="round"/>
<path d="M325.253 6.51562L265.445 19.3696V84.0916L325.253 77.4216" stroke="#012C10" stroke-width="1.696" stroke-linecap="round" stroke-linejoin="round"/>
<path d="M325.258 6.51562H331.368V77.4236H325.258V6.51562Z" stroke="#012C10" stroke-width="1.696" stroke-linecap="round" stroke-linejoin="round"/>
<path d="M368.962 158.391L306.258 163.857V227.245L368.962 232.719" stroke="#012C10" stroke-width="1.696" stroke-linecap="round" stroke-linejoin="round"/>
<path d="M368.961 158.391H375.367V232.717H368.961V158.391Z" stroke="#012C10" stroke-width="1.696" stroke-linecap="round" stroke-linejoin="round"/>
<path d="M206.953 1.6875H213.573C216.262 1.68671 218.926 2.21569 221.41 3.24423C223.895 4.27277 226.153 5.78072 228.055 7.68195C229.957 9.58319 231.466 11.8405 232.495 14.3249C233.525 16.8093 234.055 19.4722 234.055 22.1615V220.289" stroke="#012C10" stroke-width="1.696" stroke-linecap="round" stroke-linejoin="round"/>
<path d="M136.641 1.6875H137.727" stroke="#012C10" stroke-width="1.696" stroke-linecap="round" stroke-linejoin="round"/>
<path d="M129.334 240.771C123.902 240.771 118.692 238.613 114.851 234.772C111.01 230.931 108.852 225.721 108.852 220.289V22.1615C108.852 19.4722 109.382 16.8093 110.411 14.3249C111.441 11.8405 112.95 9.58319 114.852 7.68195C116.754 5.78072 119.012 4.27277 121.496 3.24423C123.981 2.21569 126.644 1.68671 129.334 1.6875" stroke="#012C10" stroke-width="1.696" stroke-linecap="round" stroke-linejoin="round"/>
<path d="M195.813 240.773H175.025H142.877H136.641" stroke="#012C10" stroke-width="1.696" stroke-linecap="round" stroke-linejoin="round"/>
<path d="M135.277 240.771C129.846 240.768 124.64 238.609 120.801 234.768C116.962 230.928 114.805 225.72 114.805 220.289V22.1615C114.805 16.732 116.962 11.5249 120.801 7.68549C124.64 3.84604 129.847 1.68856 135.277 1.6875" stroke="#012C10" stroke-width="1.696" stroke-linecap="round" stroke-linejoin="round"/>
<path d="M110.635 237.2C108.154 235.425 106.133 233.084 104.74 230.37C103.346 227.657 102.621 224.65 102.625 221.6V20.8535C102.624 18.3354 103.12 15.8419 104.084 13.5156C105.048 11.1893 106.461 9.07567 108.242 7.29568C110.023 5.51569 112.137 4.1042 114.464 3.14191C116.791 2.17962 119.285 1.6854 121.803 1.68751H136.651" stroke="#012C10" stroke-width="1.696" stroke-linecap="round" stroke-linejoin="round"/>
<path d="M136.636 240.775H121.798C117.798 240.783 113.897 239.53 110.648 237.195" stroke="#012C10" stroke-width="1.696" stroke-linecap="round" stroke-linejoin="round"/>
<path d="M206.953 1.6875C206.948 5.77828 205.321 9.70019 202.427 12.5921C199.534 15.4839 195.611 17.1094 191.521 17.1115H153.151C149.06 17.1115 145.137 15.4865 142.244 12.5939C139.352 9.70135 137.727 5.7782 137.727 1.6875H206.953Z" stroke="#012C10" stroke-width="1.696" stroke-linecap="round" stroke-linejoin="round"/>
<path d="M209.219 77.1246H141.603C138.58 77.1246 135.68 75.9235 133.542 73.7856C131.404 71.6477 130.203 68.748 130.203 65.7246V40.8766C130.203 37.8531 131.404 34.9535 133.542 32.8155C135.68 30.6776 138.58 29.4766 141.603 29.4766H209.217C212.241 29.4766 215.14 30.6776 217.278 32.8155C219.416 34.9535 220.617 37.8531 220.617 40.8766V65.7286C220.616 68.751 219.415 71.6493 217.277 73.7863C215.14 75.9233 212.242 77.124 209.219 77.1246Z" stroke="#012C10" stroke-width="1.696" stroke-linecap="round" stroke-linejoin="round"/>
<path d="M209.219 147.976H141.603C138.58 147.976 135.68 146.775 133.542 144.637C131.404 142.499 130.203 139.6 130.203 136.576V111.728C130.203 108.705 131.404 105.805 133.542 103.667C135.68 101.529 138.58 100.328 141.603 100.328H209.217C212.241 100.328 215.14 101.529 217.278 103.667C219.416 105.805 220.617 108.705 220.617 111.728V136.58C220.616 139.603 219.415 142.501 217.277 144.638C215.14 146.775 212.242 147.976 209.219 147.976Z" stroke="#012C10" stroke-width="1.696" stroke-linecap="round" stroke-linejoin="round"/>
<path d="M157.029 218.82H141.603C138.58 218.82 135.68 217.619 133.542 215.481C131.404 213.343 130.203 210.443 130.203 207.42V182.572C130.203 179.548 131.404 176.649 133.542 174.511C135.68 172.373 138.58 171.172 141.603 171.172H209.217C212.241 171.172 215.14 172.373 217.278 174.511C219.416 176.649 220.617 179.548 220.617 182.572V207.424C220.618 208.946 220.312 210.453 219.717 211.854" stroke="#012C10" stroke-width="1.696" stroke-linecap="round" stroke-linejoin="round"/>
<path d="M82.7812 126.039H102.627H108.855H114.795H130.211H137.729" stroke="#012C10" stroke-width="1.696" stroke-linecap="round" stroke-linejoin="round"/>
<path d="M185.18 199.186C181.456 198.396 172.216 196.708 166.846 198.006C162.578 199.05 153.516 205.43 155.188 214.196C155.517 215.835 156.138 217.401 157.02 218.82C157.495 219.599 158.022 220.345 158.598 221.052C168.432 233.202 183.968 237.3 194.198 238.106L196.242 240.192C201.214 245.292 213.814 258.192 217.166 261.792C217.166 261.792 226.94 300.108 237.75 310.918C252.378 325.554 260.75 329.728 270.15 331.128" stroke="#012C10" stroke-width="1.696" stroke-linecap="round" stroke-linejoin="round"/>
<path d="M190.281 199.445C189.747 199.479 189.255 199.513 188.805 199.547" stroke="#012C10" stroke-width="1.696" stroke-linecap="round" stroke-linejoin="round"/>
<path d="M198.976 199.712C198.364 199.602 197.776 199.526 197.176 199.466C195.154 199.27 193.12 199.244 191.094 199.39" stroke="#012C10" stroke-width="1.696" stroke-linecap="round" stroke-linejoin="round"/>
<path d="M200.848 200.106C200.56 200.03 200.28 199.97 200 199.906" stroke="#012C10" stroke-width="1.696" stroke-linecap="round" stroke-linejoin="round"/>
<path d="M202.782 200.663C202.356 200.514 201.923 200.384 201.484 200.273" stroke="#012C10" stroke-width="1.696" stroke-linecap="round" stroke-linejoin="round"/>
<path d="M247.508 229.518C241.587 226.927 235.949 223.734 230.682 219.99C226.911 217.437 223.217 214.774 219.602 212.005C217.011 210.026 214.468 207.986 211.974 205.887C209.451 203.732 206.567 202.04 203.456 200.887L202.844 200.688" stroke="#012C10" stroke-width="1.696" stroke-linecap="round" stroke-linejoin="round"/>
<path d="M230.688 220C230.688 220 232.029 220.256 234.031 220.51C238.171 221.044 245.163 221.604 249.049 220" stroke="#012C10" stroke-width="1.696" stroke-linecap="round" stroke-linejoin="round"/>
<path d="M190.802 199.398C188.612 201.798 178.04 209.834 179.402 219.982" stroke="#012C10" stroke-width="1.696" stroke-linecap="round" stroke-linejoin="round"/>
<path d="M155.188 214.199C159.175 217.185 168.973 218.999 172.809 216.845C172.809 216.845 175.067 205.349 180.139 201.523" stroke="#012C10" stroke-width="1.696" stroke-linecap="round" stroke-linejoin="round"/>
<path d="M364.661 381.688C364.661 381.688 364.661 371.734 357.491 353.888C351.467 338.87 321.771 293.934 312.531 268.21C303.647 243.468 291.107 212.61 283.113 195.622C282.799 194.934 282.485 194.282 282.181 193.644C274.263 177.15 259.747 138.884 250.507 123.044C241.267 107.204 234.055 105 234.055 105" stroke="#012C10" stroke-width="1.696" stroke-linecap="round" stroke-linejoin="round"/>
<path d="M254.164 352.846L254.062 352.812V352.828C254.164 353.228 256.404 361.984 257.898 370.018C258.768 373.846 259.183 377.762 259.136 381.686" stroke="#012C10" stroke-width="1.696" stroke-linecap="round" stroke-linejoin="round"/>
<path d="M169.905 270.57C169.633 271.941 169.519 273.339 169.565 274.736C169.565 275.17 169.591 275.602 169.625 276.034C169.908 279.166 171.063 282.155 172.959 284.664C176.759 289.696 183.185 297.704 186.849 299.418C186.849 299.418 223.131 344.818 239.863 349.182C250.833 352.042 253.523 352.712 254.063 352.83C254.093 352.839 254.125 352.845 254.157 352.848C254.168 352.851 254.179 352.851 254.191 352.848" stroke="#012C10" stroke-width="1.696" stroke-linecap="round" stroke-linejoin="round"/>
<path d="M169.567 276.032C169.567 276.032 150.503 273.832 140.261 270.568C140.261 270.568 123.945 266.292 119.397 264.332C119.397 264.332 90.8886 253.752 83.6846 249.586C76.4806 245.42 79.8846 227.958 94.3066 232.132C99.7796 233.716 105.223 235.402 110.633 237.19" stroke="#012C10" stroke-width="1.696" stroke-linecap="round" stroke-linejoin="round"/>
<path d="M117.16 246.305C117.16 246.305 116.16 250.801 115.914 253.051" stroke="#012C10" stroke-width="1.696" stroke-linecap="round" stroke-linejoin="round"/>
<path d="M143.459 250.547C143.459 250.547 142.459 257.589 142.211 259.839" stroke="#012C10" stroke-width="1.696" stroke-linecap="round" stroke-linejoin="round"/>
<path d="M254.062 352.812C254.062 352.812 258.764 352.888 261.75 352.812L257.906 370.013" stroke="#012C10" stroke-width="1.696" stroke-linecap="round" stroke-linejoin="round"/>
<path d="M101.756 183.779C101.756 183.779 81.6144 178.739 74.9024 183.779C68.1904 188.819 68.1824 203.921 80.7744 206.017C93.3664 208.113 102.622 209.699 102.622 209.699" stroke="#012C10" stroke-width="1.696" stroke-linecap="round" stroke-linejoin="round"/>
<path d="M175.026 240.773C173.965 242.798 173.181 244.955 172.694 247.187C172.375 248.568 172.174 249.973 172.094 251.387" stroke="#012C10" stroke-width="1.696" stroke-linecap="round" stroke-linejoin="round"/>
<path d="M142.875 240.773C142.875 240.773 167.463 246.127 172.087 247.153" stroke="#012C10" stroke-width="1.696" stroke-linecap="round" stroke-linejoin="round"/>
<path d="M163.095 126.26C163.094 128.258 162.502 130.211 161.391 131.872C160.281 133.533 158.704 134.827 156.858 135.591C155.012 136.356 152.981 136.556 151.022 136.166C149.063 135.777 147.263 134.815 145.85 133.402C144.437 131.99 143.475 130.19 143.085 128.231C142.695 126.271 142.895 124.241 143.659 122.395C144.423 120.549 145.717 118.971 147.378 117.861C149.038 116.75 150.991 116.157 152.989 116.156C154.316 116.156 155.63 116.417 156.856 116.925C158.082 117.432 159.196 118.177 160.135 119.115C161.073 120.053 161.817 121.167 162.325 122.393C162.833 123.619 163.095 124.933 163.095 126.26Z" stroke="#012C10" stroke-width="1.696" stroke-linecap="round" stroke-linejoin="round"/>
<path d="M256.431 53.0703H234.057H220.625H209.977" stroke="#012C10" stroke-width="1.696" stroke-linecap="round" stroke-linejoin="round"/>
<path d="M184.594 53.2935C184.594 54.6206 184.855 55.9348 185.363 57.1609C185.871 58.387 186.615 59.5011 187.554 60.4395C188.492 61.3779 189.606 62.1224 190.832 62.6302C192.058 63.1381 193.373 63.3995 194.7 63.3995C196.027 63.3995 197.341 63.1381 198.567 62.6302C199.793 62.1224 200.907 61.3779 201.846 60.4395C202.784 59.5011 203.529 58.387 204.036 57.1609C204.544 55.9348 204.806 54.6206 204.806 53.2935C204.806 51.9664 204.544 50.6522 204.036 49.4261C203.529 48.2 202.784 47.0859 201.846 46.1475C200.907 45.209 199.793 44.4646 198.567 43.9568C197.341 43.4489 196.027 43.1875 194.7 43.1875C193.373 43.1875 192.058 43.4489 190.832 43.9568C189.606 44.4646 188.492 45.209 187.554 46.1475C186.615 47.0859 185.871 48.2 185.363 49.4261C184.855 50.6522 184.594 51.9664 184.594 53.2935Z" stroke="#012C10" stroke-width="1.696" stroke-linecap="round" stroke-linejoin="round"/>
<path d="M298.855 195.617H283.115H234.057H220.625H209.977" stroke="#012C10" stroke-width="1.696" stroke-linecap="round" stroke-linejoin="round"/>
<path d="M185.184 199.188C186.204 199.408 186.814 199.552 186.814 199.552C187.479 199.603 188.148 199.603 188.814 199.552C189.271 199.525 189.763 199.491 190.29 199.45C190.46 199.45 190.63 199.434 190.808 199.416C190.91 199.416 191.008 199.416 191.114 199.4C193.14 199.258 195.174 199.284 197.196 199.476C197.774 199.536 198.376 199.62 198.996 199.722C199.841 199.87 200.679 200.06 201.506 200.292C201.94 200.41 202.372 200.538 202.804 200.682C202.823 200.69 202.843 200.697 202.864 200.7C203.064 200.766 203.264 200.834 203.464 200.912V200.902C204.237 199.559 204.692 198.057 204.792 196.51C204.893 194.964 204.636 193.415 204.042 191.984C203.448 190.552 202.533 189.276 201.368 188.255C200.202 187.234 198.817 186.494 197.32 186.094C195.823 185.693 194.254 185.642 192.734 185.945C191.214 186.247 189.784 186.895 188.555 187.839C187.326 188.782 186.33 189.996 185.644 191.386C184.959 192.776 184.602 194.304 184.602 195.854C184.604 196.991 184.801 198.118 185.184 199.188Z" stroke="#012C10" stroke-width="1.696" stroke-linecap="round" stroke-linejoin="round"/>
<path d="M63.1384 117.529H59.0224C57.5044 117.529 56.7404 115.213 57.8224 113.863L60.7284 110.199L53.0584 100.561L50.1484 104.217C49.0704 105.567 47.2384 104.617 47.2384 102.699V97.5312H36.3864V102.707C36.3864 104.623 34.5524 105.575 33.4744 104.225L30.5644 100.569L22.8944 110.199L25.8044 113.863C26.8824 115.213 26.1184 117.529 24.6044 117.529H20.4844V131.155H24.6044C26.1224 131.155 26.8864 133.463 25.8044 134.821L22.8944 138.479L30.5644 148.117L33.4744 144.459C34.5524 143.103 36.3864 144.059 36.3864 145.971V151.145H47.2384V145.971C47.2384 144.061 49.0704 143.103 50.1484 144.459L53.0584 148.117L60.7284 138.479L57.8184 134.821C56.7404 133.463 57.5044 131.155 59.0184 131.155H63.1344V117.529H63.1384Z" stroke="#012C10" stroke-width="1.696" stroke-linecap="round" stroke-linejoin="round"/>
<path d="M48.245 124.346C48.245 128.808 45.361 132.432 41.815 132.432C38.269 132.432 35.375 128.808 35.375 124.346C35.375 119.884 38.259 116.25 41.815 116.25C45.371 116.25 48.245 119.874 48.245 124.346Z" stroke="#012C10" stroke-width="1.696" stroke-linecap="round" stroke-linejoin="round"/>
<path d="M299.618 42.8166C297.982 42.0763 296.191 41.7468 294.399 41.8566C290.479 42.1106 287.075 44.9206 284.743 48.9846C282.307 53.4109 281.191 58.4432 281.527 63.4846C281.543 63.7466 281.562 64.0186 281.588 64.2846" stroke="#012C10" stroke-width="1.696" stroke-linecap="round" stroke-linejoin="round"/>
<path d="M309.786 60.7399C309.786 60.4759 309.77 60.2139 309.752 59.9399C309.526 55.5881 308.077 51.3884 305.57 47.8239C304.799 46.7555 303.905 45.7815 302.906 44.9219" stroke="#012C10" stroke-width="1.696" stroke-linecap="round" stroke-linejoin="round"/>
<path d="M309.785 60.744L318.185 60.2C318.169 59.938 318.169 59.674 318.151 59.4C317.786 52.4868 315.49 45.8144 311.525 40.14C306.969 33.862 300.545 30.102 293.673 30.552C287.063 30.986 281.369 35.686 277.653 42.508C274.176 49.1211 272.613 56.573 273.139 64.026C273.157 64.296 273.181 64.56 273.199 64.826L281.599 64.284" stroke="#012C10" stroke-width="1.696" stroke-linecap="round" stroke-linejoin="round"/>
<path d="M302.905 44.9283L303.321 44.1643C303.592 43.6326 303.697 43.0314 303.621 42.4395C303.545 41.8475 303.292 41.2923 302.895 40.8463C302.729 40.6608 302.518 40.5208 302.282 40.4395C302.046 40.3582 301.794 40.3384 301.549 40.3818C301.303 40.4253 301.073 40.5306 300.879 40.6878C300.686 40.845 300.536 41.0489 300.443 41.2803L299.613 42.8163L296.213 49.0763C295.775 48.9216 295.31 48.8583 294.847 48.8903C292.343 49.0523 290.485 51.9203 290.705 55.2903C290.925 58.6603 293.141 61.2723 295.643 61.1103C298.145 60.9483 300.005 58.0823 299.785 54.7103C299.724 53.7543 299.491 52.8173 299.097 51.9443L302.905 44.9283Z" stroke="#012C10" stroke-width="1.696" stroke-linecap="round" stroke-linejoin="round"/>
<path d="M293.664 30.5547L294.394 41.8567" stroke="#012C10" stroke-width="1.696" stroke-linecap="round" stroke-linejoin="round"/>
<path d="M277.711 42.5391L283.853 48.9191" stroke="#012C10" stroke-width="1.696" stroke-linecap="round" stroke-linejoin="round"/>
<path d="M311.212 40.3594L306.07 47.4794" stroke="#012C10" stroke-width="1.696" stroke-linecap="round" stroke-linejoin="round"/>
<path d="M343.604 196.743L348.604 190.397C350.055 190.894 351.627 190.905 353.085 190.428C354.542 189.952 355.805 189.014 356.682 187.757C357.981 186.061 358.783 184.037 358.998 181.911C358.938 181.989 358.88 182.073 358.82 182.157C358.298 182.911 357.601 183.527 356.789 183.952C355.977 184.378 355.074 184.6 354.157 184.6C353.24 184.6 352.337 184.378 351.525 183.952C350.713 183.527 350.016 182.911 349.494 182.157C348.242 180.442 347.567 178.372 347.567 176.248C347.567 174.124 348.242 172.055 349.494 170.339C349.554 170.259 349.621 170.185 349.694 170.117C347.846 170.489 346.202 171.532 345.078 173.045C344.008 174.499 343.268 176.168 342.909 177.937C342.55 179.706 342.581 181.532 343 183.287L338 189.633" stroke="#012C10" stroke-width="1.696" stroke-linecap="round" stroke-linejoin="round"/>
<path d="M332.375 196.742L325.273 205.742L325.349 205.836C324.618 205.869 323.903 206.066 323.259 206.412C322.614 206.759 322.055 207.245 321.623 207.836C320.604 209.238 320.055 210.926 320.055 212.659C320.055 214.392 320.604 216.081 321.623 217.482C322.049 218.097 322.618 218.599 323.281 218.946C323.944 219.293 324.681 219.474 325.429 219.474C326.177 219.474 326.914 219.293 327.577 218.946C328.24 218.599 328.809 218.097 329.235 217.482C330.258 216.123 330.809 214.467 330.805 212.766L330.881 212.858L335.429 207.098L337.983 203.856" stroke="#012C10" stroke-width="1.696" stroke-linecap="round" stroke-linejoin="round"/>
<path d="M337.98 189.633L332.98 183.287C333.398 181.531 333.428 179.705 333.067 177.936C332.706 176.167 331.964 174.498 330.892 173.045C329.774 171.534 328.135 170.491 326.292 170.117C326.358 170.188 326.42 170.262 326.478 170.339C327.734 172.053 328.411 174.123 328.411 176.248C328.411 178.373 327.734 180.443 326.478 182.157C325.958 182.911 325.262 183.527 324.45 183.952C323.639 184.378 322.737 184.6 321.82 184.6C320.904 184.6 320.002 184.378 319.19 183.952C318.379 183.527 317.683 182.911 317.162 182.157C317.094 182.073 317.042 181.989 316.984 181.911C317.199 184.036 317.998 186.059 319.292 187.757C320.171 189.015 321.435 189.953 322.894 190.43C324.353 190.906 325.927 190.895 327.378 190.397L332.378 196.743L337.978 203.853L345.08 212.853L345.148 212.761C345.147 214.462 345.697 216.116 346.716 217.477C347.143 218.092 347.712 218.594 348.375 218.941C349.037 219.288 349.774 219.469 350.522 219.469C351.27 219.469 352.007 219.288 352.67 218.941C353.333 218.594 353.902 218.092 354.328 217.477C355.354 216.078 355.906 214.389 355.906 212.654C355.906 210.92 355.354 209.23 354.328 207.831C353.899 207.24 353.342 206.753 352.699 206.407C352.056 206.06 351.342 205.864 350.612 205.831L350.68 205.737L343.586 196.737L337.98 189.633Z" stroke="#012C10" stroke-width="1.696" stroke-linecap="round" stroke-linejoin="round"/>
<path d="M332.375 196.742L335.429 207.094" stroke="#012C10" stroke-width="1.696" stroke-linecap="round" stroke-linejoin="round"/>
</svg>
