<svg width="400" height="401" viewBox="0 0 400 401" fill="none" xmlns="http://www.w3.org/2000/svg">
<path d="M57.9688 262.695H94.8308V279.341H57.9688V262.695Z" fill="#012C10"/>
<path d="M57.9688 286.727H94.8308V303.373H57.9688V286.727Z" fill="#012C10"/>
<path d="M57.9688 310.75H94.8308V356.73H57.9688V310.75Z" fill="#012C10"/>
<path d="M325.908 78.9375C328.036 78.9375 330.115 79.5683 331.884 80.7502C333.653 81.9321 335.031 83.612 335.846 85.5774C336.66 87.5428 336.873 89.7054 336.458 91.7919C336.043 93.8783 335.018 95.7949 333.514 97.2991C332.01 98.8034 330.093 99.8278 328.007 100.243C325.92 100.658 323.758 100.445 321.792 99.6307C319.827 98.8166 318.147 97.438 316.965 95.6692C315.783 93.9004 315.152 91.8208 315.152 89.6935C315.153 86.8412 316.287 84.1059 318.304 82.089C320.321 80.0721 323.056 78.9386 325.908 78.9375Z" fill="#012C10"/>
<path d="M325.908 129.398C328.036 129.398 330.117 130.028 331.887 131.21C333.657 132.391 335.037 134.071 335.852 136.037C336.667 138.003 336.881 140.166 336.466 142.254C336.052 144.341 335.028 146.259 333.524 147.764C332.019 149.269 330.103 150.295 328.015 150.711C325.928 151.127 323.765 150.915 321.798 150.101C319.832 149.287 318.151 147.909 316.968 146.14C315.785 144.371 315.153 142.291 315.152 140.162C315.152 137.309 316.285 134.572 318.302 132.553C320.319 130.535 323.055 129.4 325.908 129.398Z" fill="#012C10"/>
<path d="M25.1055 101.79C25.1055 104.476 25.6345 107.136 26.6624 109.617C27.6903 112.099 29.197 114.354 31.0963 116.253C32.9956 118.152 35.2505 119.659 37.7321 120.687C40.2137 121.715 42.8734 122.244 45.5595 122.244C48.2455 122.244 50.9053 121.715 53.3869 120.687C55.8685 119.659 58.1233 118.152 60.0226 116.253C61.922 114.354 63.4286 112.099 64.4565 109.617C65.4844 107.136 66.0135 104.476 66.0135 101.79C66.0135 99.1039 65.4844 96.4441 64.4565 93.9625C63.4286 91.4809 61.922 89.2261 60.0226 87.3268C58.1233 85.4275 55.8685 83.9208 53.3869 82.8929C50.9053 81.865 48.2455 81.3359 45.5595 81.3359C42.8734 81.3359 40.2137 81.865 37.7321 82.8929C35.2505 83.9208 32.9956 85.4275 31.0963 87.3268C29.197 89.2261 27.6903 91.4809 26.6624 93.9625C25.6345 96.4441 25.1055 99.1039 25.1055 101.79Z" fill="#012C10"/>
<path d="M229.781 59.5981C229.781 60.5751 230.169 61.5122 230.86 62.203C231.551 62.8939 232.488 63.2821 233.465 63.2821C234.442 63.2821 235.379 62.8939 236.07 62.203C236.761 61.5122 237.149 60.5751 237.149 59.5981C237.149 58.621 236.761 57.684 236.07 56.9931C235.379 56.3022 234.442 55.9141 233.465 55.9141C232.488 55.9141 231.551 56.3022 230.86 56.9931C230.169 57.684 229.781 58.621 229.781 59.5981Z" fill="#012C10"/>
<path d="M88.457 78.934C88.457 79.4178 88.5523 79.8968 88.7375 80.3438C88.9226 80.7908 89.194 81.1969 89.536 81.539C89.8781 81.8811 90.2843 82.1524 90.7312 82.3376C91.1782 82.5227 91.6572 82.618 92.141 82.618C92.6248 82.618 93.1039 82.5227 93.5508 82.3376C93.9978 82.1524 94.4039 81.8811 94.746 81.539C95.0881 81.1969 95.3595 80.7908 95.5446 80.3438C95.7297 79.8968 95.825 79.4178 95.825 78.934C95.825 78.4502 95.7297 77.9712 95.5446 77.5242C95.3595 77.0772 95.0881 76.6711 94.746 76.329C94.4039 75.9869 93.9978 75.7156 93.5508 75.5304C93.1039 75.3453 92.6248 75.25 92.141 75.25C91.6572 75.25 91.1782 75.3453 90.7312 75.5304C90.2843 75.7156 89.8781 75.9869 89.536 76.329C89.194 76.6711 88.9226 77.0772 88.7375 77.5242C88.5523 77.9712 88.457 78.4502 88.457 78.934Z" fill="#012C10"/>
<path d="M63.6009 220.453C65.0452 220.454 66.4569 220.882 67.6575 221.685C68.8582 222.488 69.7938 223.629 70.346 224.963C70.8982 226.298 71.0423 227.766 70.76 229.182C70.4777 230.599 69.7817 231.9 68.76 232.921C67.7384 233.941 66.4369 234.636 65.0202 234.917C63.6036 235.199 62.1354 235.053 60.8013 234.5C59.4672 233.947 58.3272 233.01 57.5254 231.809C56.7236 230.607 56.2961 229.195 56.2969 227.751C56.2966 226.792 56.4854 225.843 56.8524 224.957C57.2195 224.071 57.7576 223.266 58.4359 222.588C59.1143 221.91 59.9197 221.373 60.8059 221.006C61.6921 220.64 62.6419 220.452 63.6009 220.453Z" fill="#FFC077"/>
<path d="M304.598 43.5228C304.598 45.4599 305.367 47.3177 306.737 48.6875C308.107 50.0572 309.965 50.8268 311.902 50.8268C313.839 50.8268 315.697 50.0572 317.066 48.6875C318.436 47.3177 319.206 45.4599 319.206 43.5228C319.206 41.5856 318.436 39.7278 317.066 38.358C315.697 36.9883 313.839 36.2188 311.902 36.2188C309.965 36.2188 308.107 36.9883 306.737 38.358C305.367 39.7278 304.598 41.5856 304.598 43.5228Z" fill="#FFC077"/>
<path d="M172.528 12.1875C173.973 12.1863 175.385 12.6135 176.587 13.415C177.789 14.2165 178.726 15.3563 179.28 16.6904C179.834 18.0244 179.98 19.4928 179.699 20.9098C179.419 22.3268 178.725 23.6289 177.704 24.6513C176.684 25.6737 175.383 26.3705 173.967 26.6537C172.55 26.937 171.081 26.7938 169.746 26.2424C168.411 25.691 167.27 24.756 166.466 23.5558C165.662 22.3556 165.232 20.944 165.23 19.4995C165.229 18.5399 165.416 17.5894 165.782 16.7024C166.148 15.8153 166.685 15.0092 167.363 14.33C168.041 13.6508 168.846 13.112 169.732 12.7444C170.619 12.3767 171.569 12.1875 172.528 12.1875Z" fill="#FFC077"/>
<path d="M24.25 43.5228C24.25 45.4599 25.0195 47.3177 26.3893 48.6875C27.7591 50.0572 29.6169 50.8268 31.554 50.8268C33.4911 50.8268 35.3489 50.0572 36.7187 48.6875C38.0885 47.3177 38.858 45.4599 38.858 43.5228C38.858 41.5856 38.0885 39.7278 36.7187 38.358C35.3489 36.9883 33.4911 36.2188 31.554 36.2188C29.6169 36.2188 27.7591 36.9883 26.3893 38.358C25.0195 39.7278 24.25 41.5856 24.25 43.5228Z" fill="#FFC077"/>
<path d="M290.036 235.975L280.98 237.319C278.986 237.323 277.064 236.575 275.596 235.226C274.129 233.877 273.222 232.024 273.058 230.037V229.945C272.716 228.013 273.084 226.022 274.092 224.338C275.101 222.655 276.683 221.392 278.548 220.781L287.548 219.445C287 219.615 282.136 221.245 283.31 229.045C283.459 230.799 284.21 232.448 285.436 233.711C286.662 234.974 288.287 235.774 290.036 235.975Z" fill="#ACFEC1"/>
<path d="M352.832 71.1343V181.534C352.831 182.214 352.561 182.866 352.08 183.346C351.599 183.827 350.948 184.097 350.268 184.098H301.554C300.875 184.097 300.223 183.827 299.743 183.346C299.263 182.865 298.993 182.214 298.992 181.534V71.1343C298.993 70.455 299.263 69.8037 299.744 69.3232C300.224 68.8426 300.875 68.5719 301.554 68.5703H350.268C350.948 68.5719 351.599 68.8425 352.079 69.323C352.56 69.8035 352.831 70.4548 352.832 71.1343ZM336.67 89.7023C336.671 87.5741 336.041 85.4935 334.859 83.7235C333.677 81.9535 331.997 80.5738 330.031 79.7587C328.065 78.9436 325.902 78.7299 323.814 79.1444C321.727 79.559 319.809 80.5833 318.304 82.0877C316.799 83.5922 315.773 85.5092 315.357 87.5964C314.942 89.6837 315.154 91.8473 315.968 93.8137C316.782 95.7801 318.161 97.4609 319.93 98.6437C321.7 99.8264 323.78 100.458 325.908 100.458C328.762 100.459 331.498 99.326 333.517 97.3089C335.535 95.2918 336.669 92.5557 336.67 89.7023ZM336.67 140.168C336.671 138.04 336.041 135.959 334.859 134.189C333.677 132.42 331.997 131.04 330.031 130.225C328.065 129.41 325.902 129.196 323.814 129.61C321.727 130.025 319.809 131.049 318.304 132.554C316.799 134.058 315.773 135.975 315.357 138.062C314.942 140.15 315.154 142.313 315.968 144.28C316.782 146.246 318.161 147.927 319.93 149.11C321.7 150.292 323.78 150.924 325.908 150.924C328.762 150.924 331.5 149.79 333.518 147.772C335.536 145.754 336.67 143.017 336.67 140.162V140.168Z" fill="#ACFEC1"/>
<path d="M104.516 255.369V365.759C104.515 366.438 104.245 367.09 103.765 367.57C103.285 368.051 102.633 368.322 101.954 368.323H53.2398C52.5601 368.322 51.9085 368.051 51.4279 367.571C50.9473 367.09 50.6768 366.438 50.6758 365.759V255.369C50.6758 254.689 50.9459 254.037 51.4268 253.556C51.9076 253.075 52.5598 252.805 53.2398 252.805H101.954C102.29 252.805 102.624 252.871 102.935 253C103.246 253.129 103.528 253.318 103.766 253.556C104.004 253.794 104.193 254.077 104.321 254.388C104.45 254.699 104.516 255.032 104.516 255.369ZM94.8258 356.733V310.753H57.9658V356.733H94.8258ZM94.8258 303.373V286.725H57.9658V303.373H94.8258ZM94.8258 279.343V262.701H57.9658V279.347L94.8258 279.343Z" fill="#ACFEC1"/>
<path d="M213.457 47.1031V157.503C213.458 158.184 213.188 158.837 212.707 159.32C212.227 159.802 211.574 160.073 210.893 160.075H162.179C161.499 160.073 160.847 159.801 160.366 159.319C159.886 158.837 159.617 158.184 159.617 157.503V47.1031C159.618 46.4236 159.888 45.772 160.368 45.2913C160.848 44.8107 161.5 44.5401 162.179 44.5391H210.893C211.573 44.5396 212.225 44.8099 212.706 45.2906C213.186 45.7714 213.457 46.4232 213.457 47.1031Z" fill="#ACFEC1"/>
<path d="M72.4846 71.1343V181.534C72.4846 181.872 72.4181 182.206 72.2888 182.518C72.1595 182.83 71.97 183.113 71.7311 183.352C71.4922 183.59 71.2086 183.779 70.8966 183.908C70.5846 184.037 70.2502 184.103 69.9126 184.102H21.2026C20.866 184.102 20.5327 184.036 20.2217 183.907C19.9108 183.778 19.6282 183.589 19.3903 183.351C19.1524 183.113 18.9637 182.83 18.8351 182.519C18.7064 182.208 18.6404 181.875 18.6406 181.538V71.1383C18.6398 70.8014 18.7055 70.4676 18.8339 70.156C18.9623 69.8445 19.1509 69.5614 19.3889 69.3228C19.6269 69.0843 19.9096 68.895 20.2208 68.7659C20.532 68.6368 20.8657 68.5703 21.2026 68.5703H69.9126C70.5936 68.5698 71.2468 68.8395 71.7291 69.3202C72.2113 69.801 72.483 70.4534 72.4846 71.1343ZM66.0146 101.796C66.015 97.7508 64.8158 93.796 62.5685 90.4321C60.3212 87.0682 57.1269 84.4463 53.3894 82.8979C49.652 81.3494 45.5393 80.9441 41.5715 81.7331C37.6037 82.5221 33.9589 84.47 31.0982 87.3304C28.2374 90.1909 26.2892 93.8355 25.4998 97.8032C24.7104 101.771 25.1154 105.884 26.6634 109.621C28.2115 113.359 30.8331 116.553 34.1968 118.801C37.5605 121.049 41.5151 122.248 45.5606 122.248C50.985 122.248 56.1873 120.094 60.0231 116.258C63.8589 112.423 66.0141 107.221 66.0146 101.796Z" fill="#ACFEC1"/>
<path d="M281.518 73.5313C282.248 73.5301 282.962 73.7455 283.569 74.1503C284.177 74.5551 284.65 75.131 284.93 75.8052C285.21 76.4793 285.283 77.2213 285.141 77.9373C284.999 78.6532 284.648 79.3109 284.132 79.8271C283.616 80.3432 282.958 80.6946 282.242 80.8367C281.526 80.9788 280.784 80.9053 280.11 80.6254C279.436 80.3455 278.86 79.8719 278.455 79.2645C278.05 78.657 277.835 77.9432 277.836 77.2133C277.836 76.2369 278.225 75.3007 278.915 74.6103C279.605 73.9199 280.542 73.5318 281.518 73.5313Z" fill="#012C10"/>
<path d="M277.836 109.262C277.836 110.239 278.224 111.176 278.915 111.867C279.606 112.558 280.543 112.946 281.52 112.946C282.497 112.946 283.434 112.558 284.125 111.867C284.816 111.176 285.204 110.239 285.204 109.262C285.204 108.285 284.816 107.348 284.125 106.657C283.434 105.966 282.497 105.578 281.52 105.578C280.543 105.578 279.606 105.966 278.915 106.657C278.224 107.348 277.836 108.285 277.836 109.262Z" fill="#012C10"/>
<path d="M277.836 125.278C277.836 126.255 278.224 127.192 278.915 127.883C279.606 128.574 280.543 128.962 281.52 128.962C282.497 128.962 283.434 128.574 284.125 127.883C284.816 127.192 285.204 126.255 285.204 125.278C285.204 124.301 284.816 123.364 284.125 122.673C283.434 121.982 282.497 121.594 281.52 121.594C280.543 121.594 279.606 121.982 278.915 122.673C278.224 123.364 277.836 124.301 277.836 125.278Z" fill="#012C10"/>
<path d="M281.518 137.609C282.248 137.608 282.961 137.823 283.568 138.228C284.176 138.632 284.649 139.208 284.929 139.881C285.209 140.555 285.283 141.297 285.142 142.012C285 142.728 284.65 143.386 284.135 143.902C283.619 144.419 282.962 144.771 282.247 144.914C281.531 145.057 280.79 144.984 280.115 144.706C279.441 144.427 278.865 143.955 278.459 143.348C278.053 142.742 277.836 142.029 277.836 141.299C277.835 140.815 277.93 140.336 278.114 139.888C278.299 139.441 278.57 139.034 278.912 138.691C279.254 138.349 279.66 138.077 280.107 137.891C280.554 137.705 281.034 137.61 281.518 137.609Z" fill="#012C10"/>
<path d="M124.176 293.258C124.906 293.257 125.619 293.473 126.226 293.877C126.833 294.282 127.306 294.857 127.586 295.531C127.866 296.204 127.94 296.946 127.798 297.661C127.657 298.377 127.306 299.034 126.791 299.551C126.276 300.067 125.619 300.419 124.904 300.562C124.188 300.705 123.447 300.633 122.773 300.355C122.098 300.076 121.522 299.604 121.116 298.998C120.71 298.392 120.493 297.679 120.492 296.95C120.492 295.972 120.879 295.034 121.57 294.341C122.261 293.649 123.198 293.259 124.176 293.258Z" fill="#012C10"/>
<path d="M124.176 325.297C124.905 325.297 125.617 325.513 126.223 325.918C126.829 326.323 127.301 326.898 127.58 327.572C127.859 328.245 127.932 328.986 127.789 329.7C127.647 330.415 127.296 331.071 126.78 331.587C126.265 332.102 125.608 332.452 124.894 332.594C124.179 332.736 123.438 332.663 122.765 332.384C122.092 332.105 121.517 331.632 121.112 331.026C120.708 330.42 120.492 329.708 120.492 328.979C120.494 328.002 120.882 327.067 121.573 326.376C122.264 325.686 123.2 325.298 124.176 325.297Z" fill="#012C10"/>
<path d="M207.475 227.657C210.412 227.964 213.38 227.752 216.245 227.033C222.615 225.341 226.221 218.547 226.221 218.547C228.453 221.662 231.062 224.489 233.989 226.963L205.559 230.901C206.268 229.908 206.906 228.865 207.467 227.781L207.475 227.657Z" fill="#012C10"/>
<path d="M195.761 205.275C203.035 195.107 221.635 179.341 234.075 178.075C237.433 177.729 253.475 184.755 266.001 190.361C266.001 190.361 295.201 189.317 299.219 193.851C315.881 212.605 330.481 263.905 333.331 269.603C336.181 275.301 377.249 298.233 390.861 305.275V388.247L310.637 339.711C305.547 340.334 300.401 340.334 295.311 339.711C252.219 331.343 194.473 287.733 183.291 282.551C175.077 278.751 173.123 270.801 172.091 265.465C171.87 263.957 171.528 262.47 171.071 261.017C170.366 259.588 169.43 258.287 168.299 257.165C166.947 255.681 165.327 254.145 163.883 252.717C162.742 251.63 161.687 250.458 160.725 249.211C159.594 247.636 158.953 245.762 158.882 243.824C158.81 241.886 159.313 239.971 160.325 238.317C161.086 236.936 162.044 235.672 163.167 234.565C167.143 230.581 176.687 233.985 177.073 234.117C177.446 231.211 178.547 228.446 180.273 226.079C186.319 216.697 187.685 211.587 189.771 208.821C190.446 207.889 191.365 207.163 192.427 206.721C193.203 206.387 194.363 205.885 195.761 205.275ZM207.475 227.659V227.791C206.914 228.875 206.276 229.918 205.567 230.911C202.823 235.014 198.901 238.19 194.317 240.021C193.739 240.221 193.129 240.399 192.517 240.555C194.972 243.094 197.087 245.941 198.809 249.025C199.257 249.831 199.649 250.667 199.983 251.527C199.983 251.527 222.129 265.215 225.695 267.193C225.695 267.193 248.441 255.125 255.375 251.757C255.375 251.757 247.947 244.145 246.341 242.129L280.995 237.319L290.051 235.975L294.097 235.375C296.283 235.044 298.249 233.861 299.564 232.084C300.88 230.308 301.438 228.082 301.116 225.895C300.795 223.707 299.62 221.737 297.848 220.414C296.077 219.091 293.853 218.524 291.665 218.837L287.611 219.437C287.596 219.435 287.58 219.435 287.565 219.437L278.565 220.773L234.013 226.957C231.086 224.483 228.477 221.656 226.245 218.541C226.245 218.541 222.645 225.341 216.269 227.027C213.397 227.752 210.421 227.966 207.475 227.659Z" fill="#FFC077"/>
<path d="M390.858 305.276C377.246 298.234 336.176 275.294 333.328 269.604C330.48 263.914 315.878 212.604 299.216 193.852C295.2 189.318 266 190.362 266 190.362" stroke="#012C10" stroke-width="1.544" stroke-linecap="round" stroke-linejoin="round"/>
<path d="M177.069 234.129C176.683 233.997 167.139 230.593 163.163 234.577C162.04 235.684 161.083 236.947 160.321 238.329C159.309 239.982 158.807 241.898 158.878 243.836C158.949 245.774 159.59 247.647 160.721 249.223C161.683 250.47 162.739 251.642 163.879 252.729C165.323 254.157 166.943 255.693 168.295 257.177C169.426 258.298 170.362 259.6 171.067 261.029C171.525 262.482 171.866 263.969 172.087 265.477C173.121 270.811 175.075 278.757 183.287 282.563C194.469 287.745 252.215 331.362 295.307 339.722C300.397 340.346 305.543 340.346 310.633 339.722L390.857 388.258" stroke="#012C10" stroke-width="1.544" stroke-linecap="round" stroke-linejoin="round"/>
<path d="M192.484 240.547H192.5C194.955 243.086 197.071 245.933 198.792 249.017C199.24 249.823 199.632 250.659 199.966 251.519C199.966 251.519 222.112 265.207 225.678 267.185C225.678 267.185 248.424 255.117 255.358 251.749C255.358 251.749 247.93 244.137 246.324 242.121L246.302 242.105" stroke="#012C10" stroke-width="1.544" stroke-linecap="round" stroke-linejoin="round"/>
<path d="M168.294 257.166C168.294 257.166 170.642 248.702 172.594 246.486C174.546 244.27 169.544 239.136 166.348 236.844" stroke="#012C10" stroke-width="1.544" stroke-linecap="round" stroke-linejoin="round"/>
<path d="M175.83 258.703C174.63 260.549 171.63 263.321 172.086 265.467" stroke="#012C10" stroke-width="1.544" stroke-linecap="round" stroke-linejoin="round"/>
<path d="M234.073 227.033L233.987 226.963C231.06 224.489 228.451 221.662 226.219 218.547C226.219 218.547 222.619 225.347 216.243 227.033C213.378 227.752 210.41 227.964 207.473 227.657C206.21 227.547 204.957 227.338 203.727 227.033" stroke="#012C10" stroke-width="1.544" stroke-linecap="round" stroke-linejoin="round"/>
<path d="M207.464 227.79C206.903 228.874 206.266 229.917 205.556 230.91C202.812 235.013 198.89 238.189 194.306 240.02C193.728 240.22 193.118 240.398 192.506 240.554C192.166 240.63 191.826 240.7 191.472 240.754C183.58 242.12 176.708 240.33 177.072 234.114C177.445 231.208 178.546 228.443 180.272 226.076C186.318 216.694 187.684 211.582 189.77 208.818C190.445 207.886 191.364 207.16 192.426 206.718C193.226 206.378 194.378 205.876 195.776 205.266C201.93 202.534 212.91 197.492 220.222 193.666C229.186 188.978 232.036 189.998 237.34 192.238C242.644 194.478 269.74 209.764 269.74 209.764" stroke="#012C10" stroke-width="1.544" stroke-linecap="round" stroke-linejoin="round"/>
<path d="M279.982 196.545C277.426 195.511 272.136 193.101 265.998 190.361C253.474 184.761 237.43 177.729 234.072 178.075C221.632 179.335 203.032 195.101 195.758 205.275" stroke="#012C10" stroke-width="1.544" stroke-linecap="round" stroke-linejoin="round"/>
<path d="M205.559 230.911L233.989 226.965L278.541 220.781" stroke="#012C10" stroke-width="1.544" stroke-linecap="round" stroke-linejoin="round"/>
<path d="M280.98 237.312L246.326 242.123L199.52 248.625" stroke="#012C10" stroke-width="1.544" stroke-linecap="round" stroke-linejoin="round"/>
<path d="M153.309 242.562L144.305 248.023L151.487 249.875L153.099 250.293L163.593 253.003" stroke="#012C10" stroke-width="1.544" stroke-linecap="round" stroke-linejoin="round"/>
<path d="M160.303 238.32L153.309 242.566" stroke="#012C10" stroke-width="1.544" stroke-linecap="round" stroke-linejoin="round"/>
<path d="M290.036 235.975L280.98 237.319C278.986 237.323 277.064 236.575 275.596 235.226C274.129 233.877 273.222 232.024 273.058 230.037V229.945C272.716 228.013 273.084 226.022 274.092 224.338C275.101 222.655 276.683 221.392 278.548 220.781L287.548 219.445" stroke="#012C10" stroke-width="1.544" stroke-linecap="round" stroke-linejoin="round"/>
<path d="M290.035 235.972L294.081 235.372C296.267 235.042 298.233 233.858 299.549 232.082C300.864 230.305 301.422 228.079 301.101 225.892C300.779 223.705 299.604 221.734 297.832 220.411C296.061 219.088 293.838 218.521 291.649 218.834L287.595 219.434C287.58 219.433 287.564 219.433 287.549 219.434C287.001 219.604 282.137 221.234 283.311 229.034C283.458 230.789 284.208 232.439 285.434 233.704C286.66 234.968 288.286 235.77 290.035 235.972Z" stroke="#012C10" stroke-width="1.544" stroke-linecap="round" stroke-linejoin="round"/>
<path d="M144.304 248.023L139.742 248.463" stroke="#012C10" stroke-width="1.544" stroke-linecap="round" stroke-linejoin="round"/>
<path d="M69.9494 190.097H21.1674C18.4337 190.097 15.8121 189.01 13.8791 187.077C11.9461 185.144 10.8599 182.523 10.8594 179.789V71.1752C10.8604 68.4417 11.9468 65.8204 13.8797 63.8875C15.8126 61.9546 18.4338 60.8682 21.1674 60.8672H69.9494C72.6831 60.8677 75.3046 61.9539 77.2376 63.8869C79.1707 65.8199 80.2568 68.4415 80.2574 71.1752V179.789C80.2568 182.523 79.1707 185.144 77.2376 187.077C75.3046 189.01 72.6831 190.097 69.9494 190.097Z" stroke="#012C10" stroke-width="1.544" stroke-linecap="round" stroke-linejoin="round"/>
<path d="M69.9126 184.102H21.2026C20.866 184.102 20.5327 184.036 20.2217 183.907C19.9108 183.778 19.6282 183.589 19.3903 183.351C19.1524 183.113 18.9637 182.83 18.8351 182.519C18.7064 182.208 18.6404 181.875 18.6406 181.538V71.1383C18.6398 70.8014 18.7055 70.4676 18.8339 70.156C18.9623 69.8445 19.1509 69.5614 19.3889 69.3228C19.6269 69.0843 19.9096 68.895 20.2208 68.7659C20.532 68.6368 20.8657 68.5703 21.2026 68.5703H69.9126C70.5936 68.5698 71.2468 68.8395 71.7291 69.3202C72.2113 69.801 72.483 70.4534 72.4846 71.1343V181.534C72.4846 181.872 72.4181 182.206 72.2888 182.518C72.1595 182.83 71.97 183.113 71.7311 183.352C71.4922 183.59 71.2086 183.779 70.8966 183.908C70.5846 184.037 70.2502 184.103 69.9126 184.102Z" stroke="#012C10" stroke-width="1.544" stroke-linecap="round" stroke-linejoin="round"/>
<path d="M31.5 64.6484H57.218" stroke="#012C10" stroke-width="1.544" stroke-linecap="round" stroke-linejoin="round"/>
<path d="M61.7655 44.3047H44.3555" stroke="#012C10" stroke-width="1.544" stroke-linecap="round" stroke-linejoin="round"/>
<path d="M24.25 43.5228C24.25 45.4599 25.0195 47.3177 26.3893 48.6875C27.7591 50.0572 29.6169 50.8268 31.554 50.8268C33.4911 50.8268 35.3489 50.0572 36.7187 48.6875C38.0885 47.3177 38.858 45.4599 38.858 43.5228C38.858 41.5856 38.0885 39.7278 36.7187 38.358C35.3489 36.9883 33.4911 36.2188 31.554 36.2188C29.6169 36.2188 27.7591 36.9883 26.3893 38.358C25.0195 39.7278 24.25 41.5856 24.25 43.5228Z" stroke="#012C10" stroke-width="1.544" stroke-linecap="round" stroke-linejoin="round"/>
<path d="M102 374.332H53.2103C51.8566 374.332 50.5161 374.065 49.2653 373.547C48.0146 373.03 46.8781 372.27 45.9209 371.313C44.9637 370.356 44.2044 369.219 43.6865 367.969C43.1685 366.718 42.9021 365.377 42.9023 364.024V255.408C42.9021 254.054 43.1685 252.713 43.6865 251.463C44.2045 250.212 44.9638 249.076 45.921 248.119C46.8783 247.162 48.0148 246.403 49.2655 245.885C50.5162 245.367 51.8567 245.101 53.2103 245.102H102C104.734 245.102 107.355 246.188 109.288 248.121C111.221 250.053 112.307 252.674 112.308 255.408V364.024C112.307 366.757 111.221 369.378 109.288 371.311C107.355 373.244 104.734 374.33 102 374.332Z" stroke="#012C10" stroke-width="1.544" stroke-linecap="round" stroke-linejoin="round"/>
<path d="M101.954 368.323H53.2398C52.5601 368.322 51.9085 368.051 51.4279 367.571C50.9473 367.09 50.6768 366.438 50.6758 365.759V255.369C50.6758 254.689 50.9459 254.037 51.4268 253.556C51.9076 253.075 52.5598 252.805 53.2398 252.805H101.954C102.29 252.805 102.624 252.871 102.935 253C103.246 253.129 103.528 253.318 103.766 253.556C104.004 253.794 104.193 254.077 104.321 254.388C104.45 254.699 104.516 255.032 104.516 255.369V365.759C104.515 366.438 104.245 367.09 103.765 367.57C103.285 368.051 102.633 368.322 101.954 368.323Z" stroke="#012C10" stroke-width="1.544" stroke-linecap="round" stroke-linejoin="round"/>
<path d="M63.5352 248.875H89.2552" stroke="#012C10" stroke-width="1.544" stroke-linecap="round" stroke-linejoin="round"/>
<path d="M93.8104 228.547H76.3984" stroke="#012C10" stroke-width="1.544" stroke-linecap="round" stroke-linejoin="round"/>
<path d="M70.893 227.751C70.8934 229.195 70.4655 230.607 69.6634 231.808C68.8613 233.009 67.7211 233.945 66.387 234.497C65.0529 235.05 63.5849 235.195 62.1686 234.913C60.7523 234.631 59.4513 233.936 58.4304 232.914C57.4094 231.893 56.7143 230.592 56.4329 229.176C56.1515 227.759 56.2965 226.291 56.8496 224.957C57.4027 223.623 58.339 222.483 59.54 221.682C60.7411 220.88 62.1529 220.452 63.597 220.453C65.5322 220.454 67.3879 221.223 68.7561 222.591C70.1244 223.96 70.893 225.816 70.893 227.751Z" stroke="#012C10" stroke-width="1.544" stroke-linecap="round" stroke-linejoin="round"/>
<path d="M210.922 166.06H162.14C160.786 166.06 159.446 165.794 158.196 165.275C156.946 164.757 155.81 163.998 154.853 163.041C153.897 162.083 153.138 160.947 152.621 159.696C152.104 158.445 151.839 157.105 151.84 155.752V47.1518C151.839 45.7985 152.104 44.4582 152.622 43.2077C153.139 41.9571 153.897 40.8207 154.854 39.8634C155.81 38.9061 156.946 38.1467 158.196 37.6286C159.447 37.1104 160.787 36.8438 162.14 36.8438H210.922C212.276 36.8427 213.617 37.1086 214.868 37.6263C216.119 38.1439 217.256 38.9032 218.213 39.8605C219.17 40.8179 219.93 41.9547 220.447 43.2058C220.965 44.4569 221.231 45.7978 221.23 47.1518V155.752C221.231 157.106 220.965 158.447 220.448 159.698C219.93 160.949 219.171 162.086 218.214 163.044C217.256 164.001 216.119 164.76 214.868 165.278C213.617 165.795 212.276 166.061 210.922 166.06Z" stroke="#012C10" stroke-width="1.544" stroke-linecap="round" stroke-linejoin="round"/>
<path d="M210.893 160.069H162.179C161.5 160.067 160.849 159.796 160.368 159.315C159.888 158.834 159.618 158.183 159.617 157.503V47.1031C159.618 46.4236 159.888 45.772 160.368 45.2913C160.848 44.8107 161.5 44.5401 162.179 44.5391H210.893C211.573 44.5396 212.225 44.8099 212.706 45.2906C213.186 45.7714 213.457 46.4232 213.457 47.1031V157.503C213.456 158.183 213.186 158.835 212.705 159.316C212.225 159.797 211.573 160.067 210.893 160.069Z" stroke="#012C10" stroke-width="1.544" stroke-linecap="round" stroke-linejoin="round"/>
<path d="M172.473 40.6172H198.191" stroke="#012C10" stroke-width="1.544" stroke-linecap="round" stroke-linejoin="round"/>
<path d="M202.748 20.2812H185.336" stroke="#012C10" stroke-width="1.544" stroke-linecap="round" stroke-linejoin="round"/>
<path d="M179.831 19.4993C179.83 20.9433 179.402 22.3548 178.599 23.5553C177.797 24.7558 176.656 25.6914 175.322 26.2439C173.988 26.7963 172.52 26.9407 171.104 26.6589C169.687 26.3771 168.386 25.6817 167.365 24.6606C166.344 23.6395 165.649 22.3386 165.367 20.9224C165.085 19.5061 165.23 18.0381 165.782 16.7039C166.334 15.3697 167.27 14.2293 168.471 13.4268C169.671 12.6242 171.083 12.1957 172.527 12.1953C173.486 12.1951 174.436 12.3838 175.322 12.7508C176.208 13.1177 177.014 13.6557 177.692 14.334C178.37 15.0123 178.908 15.8176 179.275 16.7039C179.642 17.5902 179.831 18.5401 179.831 19.4993Z" stroke="#012C10" stroke-width="1.544" stroke-linecap="round" stroke-linejoin="round"/>
<path d="M350.301 190.097H301.519C298.785 190.097 296.164 189.01 294.231 187.077C292.298 185.144 291.211 182.523 291.211 179.789V71.1752C291.212 68.4417 292.298 65.8204 294.231 63.8875C296.164 61.9546 298.785 60.8682 301.519 60.8672H350.301C351.655 60.8669 352.995 61.1334 354.246 61.6513C355.497 62.1692 356.633 62.9285 357.59 63.8857C358.548 64.843 359.307 65.9794 359.825 67.2302C360.343 68.4809 360.609 69.8215 360.609 71.1752V179.789C360.609 181.143 360.343 182.484 359.825 183.735C359.308 184.985 358.548 186.122 357.591 187.079C356.634 188.037 355.497 188.796 354.246 189.314C352.995 189.831 351.655 190.098 350.301 190.097Z" stroke="#012C10" stroke-width="1.544" stroke-linecap="round" stroke-linejoin="round"/>
<path d="M350.268 184.098H301.554C300.875 184.097 300.223 183.827 299.743 183.346C299.263 182.865 298.993 182.214 298.992 181.534V71.1343C298.993 70.455 299.263 69.8037 299.744 69.3232C300.224 68.8426 300.875 68.5719 301.554 68.5703H350.268C350.948 68.5719 351.599 68.8425 352.079 69.323C352.56 69.8035 352.831 70.4548 352.832 71.1343V181.534C352.831 182.214 352.561 182.866 352.08 183.346C351.599 183.827 350.948 184.097 350.268 184.098Z" stroke="#012C10" stroke-width="1.544" stroke-linecap="round" stroke-linejoin="round"/>
<path d="M311.848 64.6484H337.566" stroke="#012C10" stroke-width="1.544" stroke-linecap="round" stroke-linejoin="round"/>
<path d="M342.115 44.3047H324.703" stroke="#012C10" stroke-width="1.544" stroke-linecap="round" stroke-linejoin="round"/>
<path d="M304.598 43.5228C304.598 45.4599 305.367 47.3177 306.737 48.6875C308.107 50.0572 309.965 50.8268 311.902 50.8268C313.839 50.8268 315.697 50.0572 317.066 48.6875C318.436 47.3177 319.206 45.4599 319.206 43.5228C319.206 41.5856 318.436 39.7278 317.066 38.358C315.697 36.9883 313.839 36.2188 311.902 36.2188C309.965 36.2188 308.107 36.9883 306.737 38.358C305.367 39.7278 304.598 41.5856 304.598 43.5228Z" stroke="#012C10" stroke-width="1.544" stroke-linecap="round" stroke-linejoin="round"/>
<path d="M127.868 296.95C127.867 297.679 127.65 298.392 127.245 298.997C126.839 299.603 126.263 300.075 125.589 300.354C124.915 300.633 124.174 300.705 123.459 300.563C122.744 300.42 122.087 300.069 121.572 299.553C121.056 299.037 120.705 298.38 120.563 297.665C120.421 296.95 120.494 296.209 120.773 295.535C121.052 294.861 121.524 294.285 122.13 293.88C122.736 293.475 123.449 293.258 124.178 293.258C124.663 293.258 125.143 293.353 125.591 293.538C126.039 293.724 126.446 293.996 126.789 294.339C127.131 294.682 127.403 295.089 127.588 295.537C127.774 295.985 127.869 296.465 127.868 296.95Z" stroke="#012C10" stroke-width="1.544" stroke-linecap="round" stroke-linejoin="round"/>
<path d="M127.868 328.979C127.869 329.708 127.654 330.422 127.25 331.029C126.845 331.637 126.27 332.11 125.596 332.39C124.922 332.67 124.181 332.744 123.465 332.603C122.749 332.461 122.092 332.111 121.575 331.596C121.059 331.08 120.707 330.423 120.564 329.708C120.421 328.992 120.493 328.251 120.772 327.576C121.05 326.902 121.523 326.326 122.129 325.92C122.736 325.514 123.449 325.297 124.178 325.297C124.662 325.296 125.142 325.391 125.589 325.575C126.037 325.76 126.444 326.031 126.786 326.373C127.129 326.715 127.401 327.121 127.587 327.568C127.772 328.015 127.868 328.495 127.868 328.979Z" stroke="#012C10" stroke-width="1.544" stroke-linecap="round" stroke-linejoin="round"/>
<path d="M128.254 328.984H227.094V310.562" stroke="#012C10" stroke-width="1.544" stroke-linecap="round" stroke-linejoin="round"/>
<path d="M88.457 78.934C88.457 79.4178 88.5523 79.8968 88.7375 80.3438C88.9226 80.7908 89.194 81.1969 89.536 81.539C89.8781 81.8811 90.2843 82.1524 90.7312 82.3376C91.1782 82.5227 91.6572 82.618 92.141 82.618C92.6248 82.618 93.1039 82.5227 93.5508 82.3376C93.9978 82.1524 94.4039 81.8811 94.746 81.539C95.0881 81.1969 95.3595 80.7908 95.5446 80.3438C95.7297 79.8968 95.825 79.4178 95.825 78.934C95.825 78.4502 95.7297 77.9712 95.5446 77.5242C95.3595 77.0772 95.0881 76.6711 94.746 76.329C94.4039 75.9869 93.9978 75.7156 93.5508 75.5304C93.1039 75.3453 92.6248 75.25 92.141 75.25C91.6572 75.25 91.1782 75.3453 90.7312 75.5304C90.2843 75.7156 89.8781 75.9869 89.536 76.329C89.194 76.6711 88.9226 77.0772 88.7375 77.5242C88.5523 77.9712 88.457 78.4502 88.457 78.934Z" stroke="#012C10" stroke-width="1.544" stroke-linecap="round" stroke-linejoin="round"/>
<path d="M95.8242 78.9375H124.178V196.299H203.412" stroke="#012C10" stroke-width="1.544" stroke-linecap="round" stroke-linejoin="round"/>
<path d="M133.989 248.462H127.867V208.82H189.753H189.761" stroke="#012C10" stroke-width="1.544" stroke-linecap="round" stroke-linejoin="round"/>
<path d="M285.2 77.2133C285.2 77.942 284.985 78.6544 284.58 79.2605C284.176 79.8666 283.6 80.3391 282.927 80.6182C282.254 80.8974 281.513 80.9706 280.799 80.8287C280.084 80.6868 279.427 80.3361 278.912 79.8209C278.396 79.3058 278.045 78.6494 277.903 77.9347C277.761 77.22 277.834 76.4792 278.112 75.8059C278.391 75.1326 278.863 74.5572 279.469 74.1523C280.075 73.7474 280.787 73.5313 281.516 73.5312C282.493 73.5318 283.429 73.9198 284.12 74.6102C284.81 75.3005 285.199 76.2367 285.2 77.2133Z" stroke="#012C10" stroke-width="1.544" stroke-linecap="round" stroke-linejoin="round"/>
<path d="M229.781 59.5981C229.781 60.5751 230.169 61.5122 230.86 62.203C231.551 62.8939 232.488 63.2821 233.465 63.2821C234.442 63.2821 235.379 62.8939 236.07 62.203C236.761 61.5122 237.149 60.5751 237.149 59.5981C237.149 58.621 236.761 57.684 236.07 56.9931C235.379 56.3022 234.442 55.9141 233.465 55.9141C232.488 55.9141 231.551 56.3022 230.86 56.9931C230.169 57.684 229.781 58.621 229.781 59.5981Z" stroke="#012C10" stroke-width="1.544" stroke-linecap="round" stroke-linejoin="round"/>
<path d="M277.836 109.262C277.836 110.239 278.224 111.176 278.915 111.867C279.606 112.558 280.543 112.946 281.52 112.946C282.497 112.946 283.434 112.558 284.125 111.867C284.816 111.176 285.204 110.239 285.204 109.262C285.204 108.285 284.816 107.348 284.125 106.657C283.434 105.966 282.497 105.578 281.52 105.578C280.543 105.578 279.606 105.966 278.915 106.657C278.224 107.348 277.836 108.285 277.836 109.262Z" stroke="#012C10" stroke-width="1.544" stroke-linecap="round" stroke-linejoin="round"/>
<path d="M277.836 125.278C277.836 126.255 278.224 127.192 278.915 127.883C279.606 128.574 280.543 128.962 281.52 128.962C282.497 128.962 283.434 128.574 284.125 127.883C284.816 127.192 285.204 126.255 285.204 125.278C285.204 124.301 284.816 123.364 284.125 122.673C283.434 121.982 282.497 121.594 281.52 121.594C280.543 121.594 279.606 121.982 278.915 122.673C278.224 123.364 277.836 124.301 277.836 125.278Z" stroke="#012C10" stroke-width="1.544" stroke-linecap="round" stroke-linejoin="round"/>
<path d="M285.2 141.299C285.199 142.028 284.982 142.739 284.576 143.344C284.171 143.949 283.595 144.421 282.922 144.699C282.248 144.977 281.508 145.049 280.794 144.906C280.079 144.763 279.424 144.412 278.909 143.896C278.394 143.381 278.044 142.724 277.902 142.01C277.761 141.295 277.834 140.555 278.113 139.882C278.392 139.209 278.864 138.634 279.47 138.23C280.076 137.825 280.788 137.609 281.516 137.609C282 137.609 282.48 137.705 282.927 137.89C283.375 138.076 283.781 138.348 284.123 138.691C284.465 139.033 284.737 139.44 284.921 139.888C285.106 140.335 285.201 140.815 285.2 141.299Z" stroke="#012C10" stroke-width="1.544" stroke-linecap="round" stroke-linejoin="round"/>
<path d="M233.465 63.2812V109.261H250.837H277.839" stroke="#012C10" stroke-width="1.544" stroke-linecap="round" stroke-linejoin="round"/>
<path d="M277.839 125.281H265.531V189.559" stroke="#012C10" stroke-width="1.544" stroke-linecap="round" stroke-linejoin="round"/>
<path d="M277.838 141.305H273.004V189.563" stroke="#012C10" stroke-width="1.544" stroke-linecap="round" stroke-linejoin="round"/>
<path d="M277.838 77.2188H250.836V109.263V183.293" stroke="#012C10" stroke-width="1.544" stroke-linecap="round" stroke-linejoin="round"/>
<path d="M25.1055 101.79C25.1055 104.476 25.6345 107.136 26.6624 109.617C27.6903 112.099 29.197 114.354 31.0963 116.253C32.9956 118.152 35.2505 119.659 37.7321 120.687C40.2137 121.715 42.8734 122.244 45.5595 122.244C48.2455 122.244 50.9053 121.715 53.3869 120.687C55.8685 119.659 58.1233 118.152 60.0226 116.253C61.922 114.354 63.4286 112.099 64.4565 109.617C65.4844 107.136 66.0135 104.476 66.0135 101.79C66.0135 99.1039 65.4844 96.4441 64.4565 93.9625C63.4286 91.4809 61.922 89.2261 60.0226 87.3268C58.1233 85.4275 55.8685 83.9208 53.3869 82.8929C50.9053 81.865 48.2455 81.3359 45.5595 81.3359C42.8734 81.3359 40.2137 81.865 37.7321 82.8929C35.2505 83.9208 32.9956 85.4275 31.0963 87.3268C29.197 89.2261 27.6903 91.4809 26.6624 93.9625C25.6345 96.4441 25.1055 99.1039 25.1055 101.79Z" stroke="#012C10" stroke-width="1.544" stroke-linecap="round" stroke-linejoin="round"/>
<path d="M25.6445 134.258H63.0705" stroke="#012C10" stroke-width="1.544" stroke-linecap="round" stroke-linejoin="round"/>
<path d="M25.6445 146.273H63.0705" stroke="#012C10" stroke-width="1.544" stroke-linecap="round" stroke-linejoin="round"/>
<path d="M25.6445 158.289H63.0705" stroke="#012C10" stroke-width="1.544" stroke-linecap="round" stroke-linejoin="round"/>
<path d="M57.9688 262.695H94.8308V279.341H57.9688V262.695Z" stroke="#012C10" stroke-width="1.544" stroke-linecap="round" stroke-linejoin="round"/>
<path d="M57.9688 286.727H94.8308V303.373H57.9688V286.727Z" stroke="#012C10" stroke-width="1.544" stroke-linecap="round" stroke-linejoin="round"/>
<path d="M57.9688 310.75H94.8308V356.73H57.9688V310.75Z" stroke="#012C10" stroke-width="1.544" stroke-linecap="round" stroke-linejoin="round"/>
<path d="M336.672 89.7013C336.673 91.8295 336.043 93.9102 334.861 95.6801C333.679 97.4501 331.999 98.8298 330.033 99.6449C328.067 100.46 325.904 100.674 323.816 100.259C321.729 99.8446 319.811 98.8204 318.306 97.3159C316.801 95.8114 315.775 93.8944 315.36 91.8072C314.944 89.72 315.156 87.5564 315.97 85.59C316.784 83.6235 318.163 81.9427 319.933 80.7599C321.702 79.5772 323.782 78.9457 325.91 78.9453C328.764 78.9448 331.5 80.0776 333.519 82.0947C335.537 84.1118 336.671 86.8479 336.672 89.7013Z" stroke="#012C10" stroke-width="1.544" stroke-linecap="round" stroke-linejoin="round"/>
<path d="M310.75 111.344H341.072" stroke="#012C10" stroke-width="1.544" stroke-linecap="round" stroke-linejoin="round"/>
<path d="M310.75 119.352H341.072" stroke="#012C10" stroke-width="1.544" stroke-linecap="round" stroke-linejoin="round"/>
<path d="M336.672 140.162C336.672 142.29 336.04 144.37 334.857 146.139C333.674 147.908 331.994 149.286 330.028 150.1C328.062 150.914 325.898 151.127 323.811 150.711C321.725 150.296 319.808 149.271 318.303 147.766C316.799 146.261 315.774 144.344 315.359 142.257C314.944 140.17 315.157 138.007 315.971 136.041C316.785 134.075 318.164 132.395 319.933 131.213C321.703 130.03 323.782 129.399 325.91 129.398C327.324 129.398 328.724 129.676 330.03 130.217C331.336 130.758 332.522 131.551 333.522 132.551C334.521 133.55 335.314 134.737 335.854 136.043C336.395 137.349 336.673 138.749 336.672 140.162Z" stroke="#012C10" stroke-width="1.544" stroke-linecap="round" stroke-linejoin="round"/>
<path d="M310.75 161.805H341.072" stroke="#012C10" stroke-width="1.544" stroke-linecap="round" stroke-linejoin="round"/>
<path d="M310.75 169.82H341.072" stroke="#012C10" stroke-width="1.544" stroke-linecap="round" stroke-linejoin="round"/>
<path d="M127.867 296.945H205.557" stroke="#012C10" stroke-width="1.544" stroke-linecap="round" stroke-linejoin="round"/>
</svg>
