<svg width="382" height="216" viewBox="0 0 382 216" fill="none" xmlns="http://www.w3.org/2000/svg">
<path d="M300.602 42.3508H105.492V34.6428C105.493 32.386 106.389 30.2217 107.985 28.6259C109.581 27.0301 111.745 26.1333 114.002 26.1328H298.002C297.689 27.6616 297.531 29.2182 297.53 30.7788V30.9668H136.002V37.4508H298.354L298.51 37.4068C299.024 39.1267 299.725 40.7847 300.602 42.3508Z" fill="#ACFEC1"/>
<path d="M211.638 168.727C212.885 168.726 214.104 169.096 215.141 169.788C216.178 170.481 216.986 171.465 217.464 172.617C217.941 173.769 218.066 175.037 217.823 176.26C217.58 177.483 216.979 178.606 216.098 179.488C215.216 180.37 214.092 180.97 212.869 181.214C211.646 181.457 210.379 181.332 209.227 180.854C208.075 180.377 207.09 179.569 206.398 178.532C205.705 177.495 205.336 176.276 205.336 175.029C205.337 173.357 206.001 171.755 207.183 170.574C208.365 169.392 209.967 168.728 211.638 168.727Z" fill="#FFC077"/>
<path d="M325.353 73.9757V146.576C323.857 147.219 322.402 147.953 320.997 148.776L317.711 147.664L317.795 147.41V60.1797L325.353 73.9757Z" fill="#FFC077"/>
<path d="M325.355 59.0558V73.9778L317.797 60.1778V56.7578C320.241 57.7524 322.771 58.5216 325.355 59.0558Z" fill="#012C10"/>
<path d="M310.745 186.525H296.961L303.399 163.539H307.633C306.523 166.295 305.951 169.238 305.949 172.209C305.988 177.369 307.668 182.383 310.745 186.525Z" fill="#012C10"/>
<path d="M303.398 163.536L296.96 186.523H109.41C106.365 186.523 103.445 185.313 101.292 183.16C99.1392 181.007 97.9297 178.087 97.9297 175.043V120.217L105.488 110.562V155.027C105.488 157.283 106.385 159.448 107.981 161.043C109.577 162.639 111.741 163.536 113.998 163.536H303.398ZM217.952 175.029C217.952 173.781 217.583 172.562 216.89 171.525C216.198 170.488 215.213 169.679 214.061 169.201C212.909 168.724 211.641 168.598 210.418 168.841C209.195 169.084 208.071 169.684 207.189 170.565C206.307 171.447 205.705 172.57 205.461 173.793C205.218 175.016 205.342 176.284 205.818 177.436C206.295 178.589 207.103 179.574 208.139 180.268C209.176 180.961 210.395 181.332 211.642 181.333C213.313 181.332 214.917 180.668 216.099 179.486C217.281 178.303 217.945 176.7 217.946 175.029H217.952Z" fill="#FFC077"/>
<path d="M300.686 63.6963C301.13 63.6854 301.571 63.7635 301.985 63.9259C302.398 64.0883 302.775 64.3318 303.093 64.642C303.411 64.9522 303.663 65.3228 303.836 65.7322C304.008 66.1415 304.097 66.5811 304.097 67.0253C304.097 67.4695 304.008 67.9092 303.836 68.3185C303.663 68.7278 303.411 69.0985 303.093 69.4087C302.775 69.7189 302.398 69.9623 301.985 70.1247C301.571 70.2871 301.13 70.3652 300.686 70.3543H223.942C223.283 70.3556 222.638 70.1611 222.09 69.7956C221.542 69.4301 221.115 68.91 220.863 68.3013C220.61 67.6926 220.545 67.0227 220.674 66.3767C220.803 65.7306 221.121 65.1374 221.588 64.6723C221.896 64.3614 222.262 64.115 222.667 63.9475C223.071 63.7799 223.504 63.6945 223.942 63.6963H300.686Z" fill="#ACFEC1"/>
<path d="M300.685 77.9297C301.568 77.9297 302.415 78.2805 303.04 78.905C303.664 79.5295 304.015 80.3765 304.015 81.2597C304.015 82.1428 303.664 82.9899 303.04 83.6143C302.415 84.2388 301.568 84.5897 300.685 84.5897H185.113C184.23 84.5881 183.383 84.2363 182.758 83.6113C182.134 82.9863 181.782 82.1392 181.781 81.2557C181.785 80.3737 182.137 79.5289 182.762 78.9058C183.386 78.2827 184.231 77.9318 185.113 77.9297H300.685Z" fill="#012C10"/>
<path d="M300.685 92.1651C301.13 92.1542 301.571 92.2322 301.985 92.3946C302.398 92.5571 302.775 92.8005 303.093 93.1107C303.411 93.4209 303.663 93.7916 303.836 94.2009C304.008 94.6102 304.097 95.0499 304.097 95.4941C304.097 95.9382 304.008 96.3779 303.836 96.7872C303.663 97.1965 303.411 97.5672 303.093 97.8774C302.775 98.1876 302.398 98.4311 301.985 98.5935C301.571 98.7559 301.13 98.834 300.685 98.8231H262.77C261.886 98.8225 261.039 98.4713 260.414 97.8466C259.789 97.2218 259.438 96.3746 259.438 95.4911C259.439 94.6084 259.791 93.7624 260.416 93.1389C261.04 92.5153 261.887 92.1651 262.77 92.1651H300.685Z" fill="#ACFEC1"/>
<path d="M300.688 106.398C301.572 106.398 302.419 106.749 303.043 107.374C303.668 107.998 304.019 108.845 304.019 109.728C304.019 110.612 303.668 111.459 303.043 112.083C302.419 112.708 301.572 113.058 300.688 113.058H178.646C177.763 113.057 176.915 112.706 176.29 112.081C175.665 111.456 175.314 110.608 175.312 109.724C175.316 108.842 175.669 107.997 176.294 107.374C176.918 106.751 177.764 106.4 178.646 106.398H300.688Z" fill="#012C10"/>
<path d="M300.689 120.641C301.557 120.662 302.384 121.022 302.99 121.644C303.597 122.266 303.937 123.101 303.937 123.97C303.937 124.839 303.597 125.673 302.99 126.295C302.384 126.917 301.557 127.277 300.689 127.299H236.889C236.005 127.298 235.158 126.947 234.532 126.322C233.907 125.698 233.556 124.85 233.555 123.967C233.557 123.084 233.91 122.238 234.535 121.615C235.159 120.991 236.006 120.641 236.889 120.641H300.689Z" fill="#ACFEC1"/>
<path d="M300.686 134.876C301.13 134.865 301.571 134.943 301.985 135.106C302.398 135.268 302.775 135.511 303.093 135.822C303.411 136.132 303.663 136.503 303.836 136.912C304.008 137.321 304.097 137.761 304.097 138.205C304.097 138.649 304.008 139.089 303.836 139.498C303.663 139.907 303.411 140.278 303.093 140.588C302.775 140.899 302.398 141.142 301.985 141.304C301.571 141.467 301.13 141.545 300.686 141.534H282.184C281.3 141.533 280.453 141.182 279.828 140.557C279.203 139.933 278.852 139.086 278.852 138.202C278.854 137.32 279.206 136.474 279.831 135.851C280.455 135.228 281.301 134.877 282.184 134.876H300.686Z" fill="#012C10"/>
<path d="M300.689 149.117C301.572 149.117 302.419 149.468 303.043 150.093C303.668 150.717 304.019 151.564 304.019 152.447C304.019 153.33 303.668 154.177 303.043 154.802C302.419 155.426 301.572 155.777 300.689 155.777H198.061C197.177 155.776 196.329 155.425 195.704 154.8C195.079 154.174 194.728 153.327 194.727 152.443C194.73 151.561 195.083 150.716 195.708 150.093C196.332 149.469 197.178 149.119 198.061 149.117H300.689Z" fill="#ACFEC1"/>
<path d="M300.943 49.4791L297.715 56.1131H198.057C197.173 56.1131 196.326 55.7623 195.702 55.1378C195.077 54.5133 194.727 53.6663 194.727 52.7831C194.727 51.9 195.077 51.053 195.702 50.4285C196.326 49.804 197.173 49.4531 198.057 49.4531H300.685C300.775 49.4531 300.853 49.4731 300.943 49.4791Z" fill="#012C10"/>
<path d="M109.41 20.6172H299.854C299.014 22.3732 298.391 24.2248 297.998 26.1312H113.998C111.741 26.1317 109.577 27.0285 107.981 28.6243C106.385 30.2201 105.488 32.3844 105.488 34.6412V61.8072C103.143 60.0698 100.607 58.6063 97.9297 57.4452V32.0972C97.9297 29.0525 99.1392 26.1325 101.292 23.9796C103.445 21.8267 106.365 20.6172 109.41 20.6172Z" fill="#FFC077"/>
<path d="M298.51 37.4088L298.354 37.4527H136V30.9688H297.536C297.548 33.1512 297.876 35.3203 298.51 37.4088Z" fill="#012C10"/>
<path d="M263.801 134.875C264.67 134.896 265.496 135.256 266.103 135.878C266.71 136.5 267.05 137.335 267.05 138.204C267.05 139.073 266.71 139.908 266.103 140.53C265.496 141.152 264.67 141.512 263.801 141.533H135.285C134.402 141.532 133.554 141.181 132.93 140.556C132.305 139.932 131.954 139.085 131.953 138.201C131.956 137.319 132.308 136.473 132.932 135.85C133.557 135.227 134.403 134.876 135.285 134.875H263.801Z" fill="#ACFEC1"/>
<path d="M244.385 92.1719C245.254 92.1932 246.08 92.5533 246.687 93.1752C247.294 93.7972 247.634 94.6318 247.634 95.5009C247.634 96.3699 247.294 97.2045 246.687 97.8265C246.08 98.4485 245.254 98.8086 244.385 98.8299H135.285C134.402 98.8293 133.554 98.4781 132.93 97.8534C132.305 97.2286 131.954 96.3814 131.953 95.4979C131.955 94.6152 132.306 93.7692 132.931 93.1457C133.556 92.5221 134.402 92.1719 135.285 92.1719H244.385Z" fill="#012C10"/>
<path d="M236.433 203.031L239.165 215.073H235.307H189.633H184.125L190.597 186.523L236.433 203.031Z" fill="#FFC077"/>
<path d="M232.69 186.523L236.43 203.031L190.594 186.523H232.69Z" fill="#012C10"/>
<path d="M218.499 120.641C219.368 120.662 220.194 121.022 220.801 121.644C221.408 122.266 221.748 123.101 221.748 123.97C221.748 124.839 221.408 125.673 220.801 126.295C220.194 126.917 219.368 127.277 218.499 127.299H135.285C134.402 127.298 133.554 126.947 132.93 126.322C132.305 125.697 131.954 124.85 131.953 123.967C131.955 123.084 132.306 122.238 132.931 121.614C133.556 120.991 134.402 120.641 135.285 120.641H218.499Z" fill="#012C10"/>
<path d="M205.559 63.6963C206.003 63.6854 206.444 63.7635 206.858 63.9259C207.271 64.0883 207.648 64.3318 207.966 64.642C208.284 64.9522 208.536 65.3228 208.709 65.7322C208.881 66.1415 208.97 66.5811 208.97 67.0253C208.97 67.4695 208.881 67.9092 208.709 68.3185C208.536 68.7278 208.284 69.0985 207.966 69.4087C207.648 69.7189 207.271 69.9623 206.858 70.1247C206.444 70.2871 206.003 70.3652 205.559 70.3543H135.287C134.843 70.3652 134.401 70.2871 133.987 70.1247C133.574 69.9623 133.197 69.7189 132.879 69.4087C132.561 69.0985 132.309 68.7278 132.136 68.3185C131.964 67.9092 131.875 67.4695 131.875 67.0253C131.875 66.5811 131.964 66.1415 132.136 65.7322C132.309 65.3228 132.561 64.9522 132.879 64.642C133.197 64.3318 133.574 64.0883 133.987 63.9259C134.401 63.7635 134.843 63.6854 135.287 63.6963H205.559Z" fill="#012C10"/>
<path d="M179.671 49.4531C180.554 49.4531 181.401 49.804 182.026 50.4285C182.65 51.053 183.001 51.9 183.001 52.7831C183.001 53.6663 182.65 54.5133 182.026 55.1378C181.401 55.7623 180.554 56.1131 179.671 56.1131H135.285C134.402 56.1126 133.554 55.7614 132.93 55.1366C132.305 54.5119 131.954 53.6647 131.953 52.7811C131.955 51.8984 132.307 51.0526 132.932 50.4288C133.556 49.805 134.402 49.4542 135.285 49.4531H179.671Z" fill="#ACFEC1"/>
<path d="M179.671 149.117C180.554 149.117 181.401 149.468 182.026 150.093C182.65 150.717 183.001 151.564 183.001 152.447C183.001 153.33 182.65 154.177 182.026 154.802C181.401 155.426 180.554 155.777 179.671 155.777H135.285C134.401 155.776 133.554 155.424 132.93 154.799C132.305 154.174 131.954 153.327 131.953 152.443C131.956 151.561 132.308 150.715 132.932 150.092C133.557 149.469 134.403 149.118 135.285 149.117H179.671Z" fill="#012C10"/>
<path d="M166.729 77.9297C167.612 77.9297 168.459 78.2805 169.084 78.905C169.708 79.5295 170.059 80.3765 170.059 81.2597C170.059 82.1428 169.708 82.9899 169.084 83.6143C168.459 84.2388 167.612 84.5897 166.729 84.5897H135.285C134.401 84.5886 133.554 84.237 132.93 83.6119C132.305 82.9868 131.954 82.1394 131.953 81.2557C131.956 80.3733 132.308 79.528 132.932 78.9046C133.557 78.2813 134.403 77.9307 135.285 77.9297H166.729Z" fill="#ACFEC1"/>
<path d="M160.257 106.398C161.14 106.398 161.987 106.749 162.612 107.374C163.236 107.998 163.587 108.845 163.587 109.728C163.587 110.612 163.236 111.459 162.612 112.083C161.987 112.708 161.14 113.058 160.257 113.058H135.285C134.401 113.057 133.554 112.706 132.93 112.081C132.305 111.456 131.954 110.608 131.953 109.724C131.956 108.842 132.308 107.997 132.932 107.373C133.557 106.75 134.403 106.399 135.285 106.398H160.257Z" fill="#ACFEC1"/>
<path d="M116.766 78.9531C117.204 79.1168 117.587 79.4025 117.869 79.7765C118.151 80.1505 118.32 80.5972 118.357 81.0641C118.393 81.5311 118.296 81.9987 118.076 82.412C117.855 82.8253 117.522 83.1671 117.114 83.3971V82.9771C117.114 82.6471 117.114 82.3171 117.088 81.9871V81.9091C117.045 80.9178 116.937 79.9304 116.766 78.9531Z" fill="#012C10"/>
<path d="M115.886 50.3047C116.377 50.3031 116.857 50.4472 117.266 50.7188C117.675 50.9903 117.994 51.3771 118.183 51.8301C118.372 52.2831 118.422 52.782 118.327 53.2636C118.233 53.7452 117.997 54.1878 117.651 54.5355C117.304 54.8831 116.862 55.1201 116.381 55.2164C115.9 55.3128 115.4 55.2641 114.947 55.0767C114.493 54.8892 114.105 54.5713 113.833 54.1633C113.56 53.7553 113.414 53.2755 113.414 52.7847C113.414 52.1283 113.674 51.4988 114.138 51.0339C114.601 50.569 115.23 50.3068 115.886 50.3047Z" fill="#012C10"/>
<path d="M115.886 64.5391C116.376 64.5379 116.856 64.6822 117.264 64.9538C117.673 65.2253 117.991 65.6119 118.18 66.0646C118.368 66.5173 118.418 67.0157 118.323 67.4968C118.228 67.9779 117.993 68.42 117.646 68.7671C117.3 69.1143 116.859 69.3509 116.378 69.447C115.897 69.5431 115.398 69.4944 114.945 69.307C114.492 69.1196 114.105 68.802 113.832 68.3944C113.56 67.9868 113.414 67.5074 113.414 67.0171C113.414 66.3609 113.674 65.7315 114.138 65.267C114.601 64.8024 115.23 64.5407 115.886 64.5391Z" fill="#012C10"/>
<path d="M115.887 93.016C116.544 93.016 117.175 93.2771 117.639 93.7418C118.104 94.2065 118.365 94.8368 118.365 95.494C118.365 96.1512 118.104 96.7815 117.639 97.2462C117.175 97.711 116.544 97.972 115.887 97.972C115.359 97.9596 114.848 97.7808 114.427 97.4613C114.006 97.1417 113.697 96.6976 113.543 96.192L113.203 95.978C113.787 95.0708 114.312 94.1268 114.775 93.152L114.885 93.202C115.091 92.998 115.717 93.016 115.887 93.016Z" fill="#012C10"/>
<path d="M115.886 121.484C116.377 121.483 116.857 121.627 117.266 121.898C117.675 122.17 117.994 122.557 118.183 123.01C118.372 123.463 118.422 123.962 118.327 124.443C118.233 124.925 117.997 125.368 117.651 125.715C117.304 126.063 116.862 126.3 116.381 126.396C115.9 126.492 115.4 126.444 114.947 126.256C114.493 126.069 114.105 125.751 113.833 125.343C113.56 124.935 113.414 124.455 113.414 123.964C113.414 123.308 113.674 122.678 114.138 122.214C114.601 121.749 115.23 121.487 115.886 121.484Z" fill="#012C10"/>
<path d="M115.886 135.727C116.376 135.725 116.856 135.87 117.264 136.141C117.673 136.413 117.991 136.799 118.18 137.252C118.368 137.705 118.418 138.203 118.323 138.684C118.228 139.165 117.993 139.608 117.646 139.955C117.3 140.302 116.859 140.538 116.378 140.635C115.897 140.731 115.398 140.682 114.945 140.495C114.492 140.307 114.105 139.99 113.832 139.582C113.56 139.174 113.414 138.695 113.414 138.205C113.414 137.548 113.674 136.919 114.138 136.454C114.601 135.99 115.23 135.728 115.886 135.727Z" fill="#012C10"/>
<path d="M115.886 149.961C116.377 149.959 116.857 150.104 117.266 150.375C117.675 150.647 117.994 151.034 118.183 151.487C118.372 151.94 118.422 152.439 118.327 152.921C118.232 153.402 117.997 153.845 117.65 154.192C117.303 154.54 116.861 154.777 116.38 154.873C115.898 154.969 115.399 154.92 114.945 154.732C114.492 154.545 114.104 154.226 113.832 153.818C113.559 153.41 113.414 152.93 113.414 152.439C113.414 151.783 113.674 151.153 114.138 150.689C114.601 150.224 115.23 149.963 115.886 149.961Z" fill="#012C10"/>
<path d="M102.07 106.414L105.67 108.116L105.488 108.504V110.57L97.9297 120.224V108.504C99.3513 107.893 100.734 107.195 102.07 106.414Z" fill="#012C10"/>
<path d="M89.7467 111.164L89.8167 111.482C86.4727 119.066 82.2167 126.592 77.2307 130.78C75.612 132.139 74.0547 133.515 72.5587 134.908C72.0383 127.095 71.4536 119.286 70.8047 111.482C73.6725 112.004 76.5817 112.266 79.4967 112.264C82.9431 112.269 86.3799 111.9 89.7467 111.164Z" fill="#012C10"/>
<path d="M66.2976 149.067C67.528 146.185 69.4246 143.637 71.8316 141.631C72.1996 141.347 72.5676 141.061 72.9436 140.789C78.8821 136.612 85.3528 133.249 92.1836 130.789C92.0016 131.177 85.0516 145.899 78.3836 151.523C76.8376 152.823 75.2896 153.989 73.8276 155.123C72.344 156.252 70.9406 157.482 69.6276 158.805C68.1784 160.232 67.032 161.937 66.257 163.817C65.4821 165.698 65.0945 167.715 65.1176 169.749V170.079H62.2656V169.749C62.3019 166.261 62.627 162.783 63.2376 159.349C63.8195 155.806 64.8477 152.351 66.2976 149.067Z" fill="#ACFEC1"/>
<path d="M74.543 169.751V170.081H71.075C70.9063 166.289 70.4213 162.518 69.625 158.807C70.9379 157.484 72.3413 156.253 73.825 155.125C74.271 162.633 74.543 168.249 74.543 169.751Z" fill="#012C10"/>
<path d="M72.948 140.784C72.572 141.062 72.204 141.348 71.836 141.632C69.4289 143.637 67.5323 146.186 66.302 149.068C65.532 147.868 64.5799 146.538 63.4799 145.056C60.9239 141.6 57.612 137.394 54.214 132.72C50.1222 127.239 46.4695 121.445 43.2899 115.39C43.2899 115.39 43.27 115.358 43.238 115.3C42.7634 114.358 42.3087 113.406 41.874 112.446C27.72 81.2276 36.89 50.1016 36.89 50.1016C41.7423 54.5276 46.295 59.2714 50.518 64.3016C47.8651 66.6485 45.7274 69.5197 44.2397 72.7341C42.7519 75.9485 41.9464 79.4363 41.874 82.9776C41.874 96.8196 54.214 108.424 70.806 111.478C71.388 118.266 71.996 126.634 72.56 134.904C72.69 136.876 72.826 138.842 72.948 140.784Z" fill="#ACFEC1"/>
<path d="M61.852 147.516C61.852 147.516 62.914 153.838 63.252 159.346C62.6414 162.78 62.3163 166.258 62.28 169.746V170.076H59.438V169.746C60.438 163.054 59.412 155.522 59.438 151.962C60.1587 150.436 60.9647 148.951 61.852 147.516Z" fill="#012C10"/>
<path d="M63.4794 145.057C62.9114 145.857 62.3674 146.681 61.8494 147.515C60.962 148.95 60.1561 150.435 59.4354 151.961C56.8123 157.63 55.4334 163.796 55.3914 170.043V170.075H54.2514C54.1824 163.13 53.4653 156.208 52.1094 149.397C52.7634 145.973 53.1094 142.091 53.5274 138.129C53.7154 136.343 53.9154 134.539 54.1614 132.759L54.2134 132.719C57.6114 137.397 60.9234 141.597 63.4794 145.057Z" fill="#ACFEC1"/>
<path d="M54.2515 170.081H49.2115C48.8815 152.931 37.2855 147.515 25.6755 137.731C13.6755 127.629 1.1875 100.961 1.1875 100.961C13.6701 105.457 25.466 111.668 36.2355 119.417C36.5711 119.701 36.9208 119.968 37.2835 120.217C45.6835 126.805 49.9615 138.713 52.1095 149.397C53.4658 156.21 54.1829 163.135 54.2515 170.081Z" fill="#ACFEC1"/>
<path d="M54.2165 132.721L54.1645 132.761C53.9185 134.541 53.7185 136.345 53.5305 138.131C52.3785 130.489 46.2565 126.425 37.2885 120.219C36.9385 119.947 36.5945 119.675 36.2385 119.419C28.1045 112.599 25.5625 95.9609 25.5625 95.9609C34.8745 101.435 42.5425 114.125 43.2405 115.303L43.2925 115.393C46.4721 121.447 50.1248 127.241 54.2165 132.721Z" fill="#012C10"/>
<path d="M97.9297 108.496C99.3492 107.885 100.73 107.187 102.064 106.406L105.664 108.108L123.264 116.392L111.864 97.9044C112.342 97.2764 112.796 96.6364 113.21 95.9744C113.794 95.0667 114.319 94.122 114.782 93.1464C116.254 90.1023 117.048 86.7751 117.11 83.3944V82.9744C117.11 82.6444 117.11 82.3144 117.084 81.9844" stroke="#012C10" stroke-width="1.294" stroke-linecap="round" stroke-linejoin="round"/>
<path d="M117.097 81.9111C117.052 80.9197 116.942 79.9322 116.767 78.9551C115.343 72.0076 111.308 65.8712 105.493 61.8111C103.148 60.0738 100.612 58.6103 97.935 57.4491C92.1149 54.938 85.8376 53.6605 79.499 53.6971C68.8514 53.4702 58.5074 57.2538 50.519 64.2972C47.8662 66.6441 45.7285 69.5153 44.2407 72.7297C42.753 75.9441 41.9475 79.4319 41.875 82.9731C41.875 96.8151 54.215 108.419 70.807 111.473C73.6748 111.995 76.584 112.257 79.499 112.255C82.9454 112.26 86.3822 111.891 89.749 111.155C92.5578 110.541 95.2995 109.652 97.935 108.503" stroke="#012C10" stroke-width="1.294" stroke-linecap="round" stroke-linejoin="round"/>
<path d="M300.946 49.4822L302.784 45.7042C301.97 44.6424 301.234 43.522 300.584 42.3522C299.711 40.7856 299.013 39.1276 298.502 37.4082C297.869 35.3196 297.542 33.1505 297.53 30.9682V30.7802C297.529 29.2197 297.686 27.6631 297.998 26.1342C298.39 24.228 299.012 22.3764 299.85 20.6202C305.156 9.45219 318.958 1.49219 335.15 1.49219C355.922 1.49219 372.768 14.6022 372.768 30.7802C372.768 46.9582 355.922 60.0642 335.15 60.0642C331.857 60.0697 328.572 59.7291 325.35 59.0482C322.766 58.5188 320.236 57.7515 317.792 56.7562C315.999 56.0339 314.261 55.1817 312.592 54.2062L294.992 61.7142L297.724 56.1142L300.958 49.4802" stroke="#012C10" stroke-width="1.294" stroke-linecap="round" stroke-linejoin="round"/>
<path d="M317.711 147.668L306.457 143.856L311.201 157.284C309.729 159.196 308.527 161.302 307.629 163.542C306.519 166.298 305.948 169.241 305.945 172.212C305.986 177.373 307.667 182.387 310.745 186.528C317.183 195.458 329.473 201.496 343.573 201.496C364.347 201.496 381.191 188.384 381.191 172.212C381.191 156.04 364.347 142.93 343.573 142.93C337.316 142.898 331.118 144.142 325.357 146.586C323.861 147.229 322.407 147.964 321.001 148.786L317.711 147.668Z" stroke="#012C10" stroke-width="1.294" stroke-linecap="round" stroke-linejoin="round"/>
<path d="M97.9297 57.4452V32.0972C97.9297 29.0525 99.1392 26.1325 101.292 23.9796C103.445 21.8267 106.365 20.6172 109.41 20.6172H299.854" stroke="#012C10" stroke-width="1.294" stroke-linecap="round" stroke-linejoin="round"/>
<path d="M190.598 186.526H109.41C106.365 186.526 103.445 185.317 101.292 183.164C99.1392 181.011 97.9297 178.091 97.9297 175.046V108.5" stroke="#012C10" stroke-width="1.294" stroke-linecap="round" stroke-linejoin="round"/>
<path d="M310.745 186.523H296.961H232.695" stroke="#012C10" stroke-width="1.294" stroke-linecap="round" stroke-linejoin="round"/>
<path d="M325.352 59.0547V73.9767V146.585" stroke="#012C10" stroke-width="1.294" stroke-linecap="round" stroke-linejoin="round"/>
<path d="M105.492 61.8168V34.6428C105.493 32.386 106.389 30.2217 107.985 28.6259C109.581 27.0301 111.745 26.1333 114.002 26.1328H298.002" stroke="#012C10" stroke-width="1.294" stroke-linecap="round" stroke-linejoin="round"/>
<path d="M307.63 163.54H114.002C111.745 163.539 109.581 162.643 107.985 161.047C106.389 159.451 105.493 157.287 105.492 155.03V108.5" stroke="#012C10" stroke-width="1.294" stroke-linecap="round" stroke-linejoin="round"/>
<path d="M317.797 56.7656V60.1816V147.414" stroke="#012C10" stroke-width="1.294" stroke-linecap="round" stroke-linejoin="round"/>
<path d="M105.492 42.3516H300.594" stroke="#012C10" stroke-width="1.294" stroke-linecap="round" stroke-linejoin="round"/>
<path d="M298.352 37.4527H136V30.9688H297.478" stroke="#012C10" stroke-width="1.294" stroke-linecap="round" stroke-linejoin="round"/>
<path d="M217.948 175.029C217.949 176.276 217.58 177.495 216.887 178.533C216.195 179.57 215.211 180.379 214.059 180.857C212.907 181.335 211.639 181.461 210.416 181.218C209.192 180.976 208.068 180.376 207.186 179.494C206.303 178.613 205.702 177.49 205.458 176.267C205.214 175.044 205.338 173.776 205.814 172.623C206.291 171.47 207.099 170.485 208.135 169.792C209.172 169.098 210.391 168.727 211.638 168.727C213.31 168.726 214.914 169.39 216.098 170.571C217.281 171.753 217.946 173.356 217.948 175.029Z" stroke="#012C10" stroke-width="1.294" stroke-linecap="round" stroke-linejoin="round"/>
<path d="M184.125 215.073L190.597 186.523H232.693L236.433 203.031L239.165 215.073" stroke="#012C10" stroke-width="1.294" stroke-linecap="round" stroke-linejoin="round"/>
<path d="M235.307 215.078H189.633" stroke="#012C10" stroke-width="1.294" stroke-linecap="round" stroke-linejoin="round"/>
<path d="M190.594 186.523L236.43 203.031" stroke="#012C10" stroke-width="1.294" stroke-linecap="round" stroke-linejoin="round"/>
<path d="M166.711 215.078H176.691" stroke="#012C10" stroke-width="1.294" stroke-linecap="round" stroke-linejoin="round"/>
<path d="M179.656 215.078H184.126H189.634" stroke="#012C10" stroke-width="1.294" stroke-linecap="round" stroke-linejoin="round"/>
<path d="M24.3438 215.078H34.3237" stroke="#012C10" stroke-width="1.294" stroke-linecap="round" stroke-linejoin="round"/>
<path d="M73.3047 215.078H99.0347" stroke="#012C10" stroke-width="1.294" stroke-linecap="round" stroke-linejoin="round"/>
<path d="M37.2891 215.078H50.7871" stroke="#012C10" stroke-width="1.294" stroke-linecap="round" stroke-linejoin="round"/>
<path d="M235.305 215.078H239.163H245.283" stroke="#012C10" stroke-width="1.294" stroke-linecap="round" stroke-linejoin="round"/>
<path d="M248.25 215.078H258.23" stroke="#012C10" stroke-width="1.294" stroke-linecap="round" stroke-linejoin="round"/>
<path d="M123.508 38.2065L130.128 34.3885L123.508 30.5625" stroke="#012C10" stroke-width="1.294" stroke-linecap="round" stroke-linejoin="round"/>
<path d="M119.228 30.5625L112.602 34.3885L119.228 38.2065" stroke="#012C10" stroke-width="1.294" stroke-linecap="round" stroke-linejoin="round"/>
<path d="M317.797 60.1797L325.355 73.9757" stroke="#012C10" stroke-width="1.294" stroke-linecap="round" stroke-linejoin="round"/>
<path d="M303.399 163.539L296.961 186.525" stroke="#012C10" stroke-width="1.294" stroke-linecap="round" stroke-linejoin="round"/>
<path d="M105.488 110.562L97.9297 120.217" stroke="#012C10" stroke-width="1.294" stroke-linecap="round" stroke-linejoin="round"/>
<path d="M73.3071 215.08H50.7871C47.2072 215.08 43.7739 213.658 41.2425 211.126C38.7112 208.595 37.2891 205.162 37.2891 201.582V170.086H86.8051V201.582C86.8045 205.162 85.3823 208.595 82.851 211.126C80.3198 213.657 76.8868 215.079 73.3071 215.08Z" stroke="#012C10" stroke-width="1.294" stroke-linecap="round" stroke-linejoin="round"/>
<path d="M54.2515 170.081C54.1829 163.135 53.4658 156.21 52.1095 149.397C49.9615 138.713 45.6835 126.797 37.2855 120.217C36.9355 119.945 36.5915 119.673 36.2355 119.417C25.466 111.668 13.6701 105.457 1.1875 100.961C1.1875 100.961 13.6775 127.629 25.6755 137.731C37.2855 147.515 48.8755 152.931 49.2115 170.081" stroke="#012C10" stroke-width="1.294" stroke-linecap="round" stroke-linejoin="round"/>
<path d="M59.4346 151.969C56.8116 157.638 55.4327 163.804 55.3906 170.051" stroke="#012C10" stroke-width="1.294" stroke-linecap="round" stroke-linejoin="round"/>
<path d="M63.4815 145.055C62.9135 145.855 62.3695 146.679 61.8515 147.513C60.9642 148.948 60.1582 150.433 59.4375 151.959" stroke="#012C10" stroke-width="1.294" stroke-linecap="round" stroke-linejoin="round"/>
<path d="M89.8205 111.477C86.4765 119.061 82.2205 126.587 77.2345 130.775C75.6158 132.133 74.0585 133.509 72.5625 134.903" stroke="#012C10" stroke-width="1.294" stroke-linecap="round" stroke-linejoin="round"/>
<path d="M52.1094 149.396C52.7634 145.972 53.1094 142.09 53.5274 138.128C53.7154 136.342 53.9154 134.538 54.1614 132.758" stroke="#012C10" stroke-width="1.294" stroke-linecap="round" stroke-linejoin="round"/>
<path d="M92.1998 130.773C92.0118 131.173 85.0618 145.889 78.3998 151.513C76.8538 152.813 75.3058 153.979 73.8438 155.113C72.3601 156.242 70.9567 157.472 69.6438 158.795C68.1945 160.222 67.0481 161.927 66.2732 163.808C65.4982 165.688 65.1107 167.706 65.1338 169.739" stroke="#012C10" stroke-width="1.294" stroke-linecap="round" stroke-linejoin="round"/>
<path d="M72.9453 140.789C78.8837 136.612 85.3545 133.249 92.1853 130.789" stroke="#012C10" stroke-width="1.294" stroke-linecap="round" stroke-linejoin="round"/>
<path d="M62.2656 169.751C62.3019 166.263 62.627 162.785 63.2376 159.351C63.82 155.81 64.8481 152.357 66.2976 149.075C67.528 146.193 69.4246 143.645 71.8316 141.639C72.1996 141.355 72.5676 141.069 72.9436 140.797" stroke="#012C10" stroke-width="1.294" stroke-linecap="round" stroke-linejoin="round"/>
<path d="M69.625 158.805C70.4213 162.516 70.9063 166.287 71.075 170.079" stroke="#012C10" stroke-width="1.294" stroke-linecap="round" stroke-linejoin="round"/>
<path d="M43.2891 115.398C46.4686 121.454 50.1213 127.248 54.2131 132.728C57.6131 137.402 60.9231 141.608 63.4791 145.064C64.5791 146.546 65.5311 147.884 66.3011 149.076" stroke="#012C10" stroke-width="1.294" stroke-linecap="round" stroke-linejoin="round"/>
<path d="M50.518 64.3016C46.295 59.2714 41.7423 54.5276 36.89 50.1016C36.89 50.1016 27.72 81.2276 41.874 112.446C42.306 113.404 42.76 114.348 43.238 115.3" stroke="#012C10" stroke-width="1.294" stroke-linecap="round" stroke-linejoin="round"/>
<path d="M72.9467 140.798C72.8247 138.85 72.6887 136.884 72.5587 134.91C72.0383 127.097 71.4536 119.288 70.8047 111.484" stroke="#012C10" stroke-width="1.294" stroke-linecap="round" stroke-linejoin="round"/>
<path d="M74.5401 169.751C74.5401 168.249 74.2681 162.633 73.8281 155.125" stroke="#012C10" stroke-width="1.294" stroke-linecap="round" stroke-linejoin="round"/>
<path d="M43.2925 115.401L43.2405 115.311C42.5425 114.133 34.8745 101.443 25.5625 95.9688C25.5625 95.9688 28.1045 112.607 36.2385 119.427C36.5744 119.711 36.9248 119.979 37.2885 120.227C46.2565 126.427 52.3785 130.497 53.5305 138.139" stroke="#012C10" stroke-width="1.294" stroke-linecap="round" stroke-linejoin="round"/>
<path d="M59.438 151.961C59.412 155.521 60.438 163.053 59.438 169.745" stroke="#012C10" stroke-width="1.294" stroke-linecap="round" stroke-linejoin="round"/>
<path d="M61.8516 147.516C61.8516 147.516 62.9136 153.838 63.2516 159.346" stroke="#012C10" stroke-width="1.294" stroke-linecap="round" stroke-linejoin="round"/>
<path d="M126.812 46.9766V156.419" stroke="#012C10" stroke-width="1.294" stroke-linecap="round" stroke-linejoin="round"/>
<path d="M179.671 56.1131H135.285C134.402 56.1126 133.554 55.7614 132.93 55.1366C132.305 54.5119 131.954 53.6647 131.953 52.7811C131.955 51.8984 132.307 51.0526 132.932 50.4288C133.556 49.805 134.402 49.4542 135.285 49.4531H179.671C180.554 49.4531 181.401 49.804 182.026 50.4285C182.65 51.053 183.001 51.9 183.001 52.7831C183.001 53.6663 182.65 54.5133 182.026 55.1378C181.401 55.7623 180.554 56.1131 179.671 56.1131Z" stroke="#012C10" stroke-width="1.294" stroke-linecap="round" stroke-linejoin="round"/>
<path d="M300.949 49.4791C300.853 49.4791 300.775 49.4531 300.685 49.4531H198.057C197.173 49.4531 196.326 49.804 195.702 50.4285C195.077 51.053 194.727 51.9 194.727 52.7831C194.727 53.6663 195.077 54.5133 195.702 55.1378C196.326 55.7623 197.173 56.1131 198.057 56.1131H297.715L300.949 49.4791Z" stroke="#012C10" stroke-width="1.294" stroke-linecap="round" stroke-linejoin="round"/>
<path d="M118.366 52.7847C118.365 53.2741 118.219 53.7524 117.947 54.159C117.675 54.5656 117.288 54.8823 116.835 55.0692C116.383 55.256 115.885 55.3046 115.405 55.2088C114.925 55.1129 114.485 54.877 114.139 54.5308C113.793 54.1845 113.557 53.7435 113.462 53.2635C113.366 52.7834 113.415 52.2859 113.602 51.8336C113.79 51.3814 114.107 50.9948 114.513 50.7227C114.92 50.4505 115.399 50.3051 115.888 50.3047C116.214 50.3042 116.536 50.368 116.837 50.4924C117.138 50.6169 117.412 50.7996 117.642 51.03C117.872 51.2604 118.055 51.534 118.179 51.8352C118.303 52.1363 118.367 52.459 118.366 52.7847Z" stroke="#012C10" stroke-width="1.294" stroke-linecap="round" stroke-linejoin="round"/>
<path d="M205.559 70.3543H135.287C134.843 70.3652 134.401 70.2871 133.987 70.1247C133.574 69.9623 133.197 69.7189 132.879 69.4087C132.561 69.0985 132.309 68.7278 132.136 68.3185C131.964 67.9092 131.875 67.4695 131.875 67.0253C131.875 66.5811 131.964 66.1415 132.136 65.7322C132.309 65.3228 132.561 64.9522 132.879 64.642C133.197 64.3318 133.574 64.0883 133.987 63.9259C134.401 63.7635 134.843 63.6854 135.287 63.6963H205.559C206.003 63.6854 206.444 63.7635 206.858 63.9259C207.271 64.0883 207.648 64.3318 207.966 64.642C208.284 64.9522 208.536 65.3228 208.709 65.7322C208.881 66.1415 208.97 66.5811 208.97 67.0253C208.97 67.4695 208.881 67.9092 208.709 68.3185C208.536 68.7278 208.284 69.0985 207.966 69.4087C207.648 69.7189 207.271 69.9623 206.858 70.1247C206.444 70.2871 206.003 70.3652 205.559 70.3543Z" stroke="#012C10" stroke-width="1.294" stroke-linecap="round" stroke-linejoin="round"/>
<path d="M300.686 70.3543H223.942C223.283 70.3556 222.638 70.1611 222.09 69.7956C221.542 69.4301 221.115 68.91 220.863 68.3013C220.61 67.6926 220.545 67.0227 220.674 66.3767C220.803 65.7306 221.121 65.1374 221.588 64.6723C221.896 64.3614 222.262 64.115 222.667 63.9475C223.071 63.7799 223.504 63.6945 223.942 63.6963H300.686C301.13 63.6854 301.571 63.7635 301.985 63.9259C302.398 64.0883 302.775 64.3318 303.093 64.642C303.411 64.9522 303.663 65.3228 303.836 65.7322C304.008 66.1415 304.097 66.5811 304.097 67.0253C304.097 67.4695 304.008 67.9092 303.836 68.3185C303.663 68.7278 303.411 69.0985 303.093 69.4087C302.775 69.7189 302.398 69.9623 301.985 70.1247C301.571 70.2871 301.13 70.3652 300.686 70.3543Z" stroke="#012C10" stroke-width="1.294" stroke-linecap="round" stroke-linejoin="round"/>
<path d="M118.366 67.0171C118.366 67.5066 118.22 67.985 117.948 68.3919C117.676 68.7988 117.289 69.1158 116.837 69.303C116.384 69.4901 115.887 69.539 115.407 69.4434C114.926 69.3478 114.485 69.112 114.139 68.7659C113.793 68.4197 113.557 67.9787 113.462 67.4986C113.366 67.0185 113.415 66.5208 113.602 66.0685C113.789 65.6161 114.106 65.2294 114.513 64.9572C114.92 64.685 115.399 64.5395 115.888 64.5391C116.214 64.5385 116.536 64.6023 116.837 64.7266C117.138 64.851 117.411 65.0335 117.641 65.2637C117.872 65.4939 118.054 65.7673 118.179 66.0681C118.303 66.369 118.367 66.6915 118.366 67.0171Z" stroke="#012C10" stroke-width="1.294" stroke-linecap="round" stroke-linejoin="round"/>
<path d="M166.729 84.5975H135.285C134.401 84.5964 133.554 84.2448 132.93 83.6197C132.305 82.9946 131.954 82.1472 131.953 81.2635C131.956 80.3812 132.308 79.5358 132.932 78.9125C133.557 78.2891 134.403 77.9386 135.285 77.9375H166.729C167.612 77.9375 168.459 78.2883 169.084 78.9128C169.708 79.5373 170.059 80.3843 170.059 81.2675C170.059 82.1507 169.708 82.9977 169.084 83.6222C168.459 84.2467 167.612 84.5975 166.729 84.5975Z" stroke="#012C10" stroke-width="1.294" stroke-linecap="round" stroke-linejoin="round"/>
<path d="M300.685 84.5975H185.113C184.23 84.5959 183.383 84.2441 182.758 83.6191C182.134 82.9942 181.782 82.1471 181.781 81.2635C181.785 80.3815 182.137 79.5367 182.762 78.9136C183.386 78.2905 184.231 77.9396 185.113 77.9375H300.685C301.568 77.9375 302.415 78.2883 303.04 78.9128C303.664 79.5373 304.015 80.3843 304.015 81.2675C304.015 82.1507 303.664 82.9977 303.04 83.6222C302.415 84.2467 301.568 84.5975 300.685 84.5975Z" stroke="#012C10" stroke-width="1.294" stroke-linecap="round" stroke-linejoin="round"/>
<path d="M117.118 82.9771C117.118 83.1191 117.118 83.2611 117.104 83.3971C117.512 83.1671 117.846 82.8253 118.066 82.412C118.286 81.9987 118.384 81.5311 118.347 81.0641C118.311 80.5972 118.142 80.1505 117.86 79.7765C117.578 79.4025 117.195 79.1168 116.756 78.9531H116.742C116.919 79.9329 117.034 80.9229 117.086 81.9171V81.9971C117.11 82.3171 117.118 82.6471 117.118 82.9771Z" stroke="#012C10" stroke-width="1.294" stroke-linecap="round" stroke-linejoin="round"/>
<path d="M244.385 98.8299H135.285C134.402 98.8293 133.554 98.4781 132.93 97.8534C132.305 97.2286 131.954 96.3814 131.953 95.4979C131.955 94.6152 132.306 93.7692 132.931 93.1457C133.556 92.5221 134.402 92.1719 135.285 92.1719H244.385C245.254 92.1932 246.08 92.5533 246.687 93.1752C247.294 93.7972 247.634 94.6318 247.634 95.5009C247.634 96.3699 247.294 97.2045 246.687 97.8265C246.08 98.4485 245.254 98.8086 244.385 98.8299Z" stroke="#012C10" stroke-width="1.294" stroke-linecap="round" stroke-linejoin="round"/>
<path d="M300.685 98.8231H262.77C261.886 98.8225 261.039 98.4713 260.414 97.8466C259.789 97.2218 259.438 96.3746 259.438 95.4911C259.439 94.6084 259.791 93.7624 260.416 93.1389C261.04 92.5153 261.887 92.1651 262.77 92.1651H300.685C301.13 92.1542 301.571 92.2322 301.985 92.3946C302.398 92.5571 302.775 92.8005 303.093 93.1107C303.411 93.4209 303.663 93.7916 303.836 94.2009C304.008 94.6102 304.097 95.0499 304.097 95.4941C304.097 95.9382 304.008 96.3779 303.836 96.7872C303.663 97.1965 303.411 97.5672 303.093 97.8774C302.775 98.1876 302.398 98.4311 301.985 98.5935C301.571 98.7559 301.13 98.834 300.685 98.8231Z" stroke="#012C10" stroke-width="1.294" stroke-linecap="round" stroke-linejoin="round"/>
<path d="M114.891 93.2018C115.091 93.0018 115.719 93.0158 115.891 93.0158C116.548 93.0158 117.178 93.2769 117.643 93.7416C118.108 94.2063 118.369 94.8366 118.369 95.4938C118.369 96.151 118.108 96.7813 117.643 97.246C117.178 97.7108 116.548 97.9718 115.891 97.9718C115.363 97.9594 114.852 97.7806 114.431 97.4611C114.01 97.1415 113.701 96.6974 113.547 96.1918" stroke="#012C10" stroke-width="1.294" stroke-linecap="round" stroke-linejoin="round"/>
<path d="M160.257 113.066H135.285C134.401 113.065 133.554 112.714 132.93 112.088C132.305 111.463 131.954 110.616 131.953 109.732C131.956 108.85 132.308 108.005 132.932 107.381C133.557 106.758 134.403 106.407 135.285 106.406H160.257C161.14 106.406 161.987 106.757 162.612 107.382C163.236 108.006 163.587 108.853 163.587 109.736C163.587 110.619 163.236 111.466 162.612 112.091C161.987 112.715 161.14 113.066 160.257 113.066Z" stroke="#012C10" stroke-width="1.294" stroke-linecap="round" stroke-linejoin="round"/>
<path d="M300.688 113.066H178.646C177.763 113.065 176.915 112.714 176.29 112.089C175.665 111.464 175.314 110.616 175.312 109.732C175.316 108.85 175.669 108.005 176.294 107.382C176.918 106.758 177.764 106.408 178.646 106.406H300.688C301.572 106.406 302.419 106.757 303.043 107.382C303.668 108.006 304.019 108.853 304.019 109.736C304.019 110.619 303.668 111.466 303.043 112.091C302.419 112.715 301.572 113.066 300.688 113.066Z" stroke="#012C10" stroke-width="1.294" stroke-linecap="round" stroke-linejoin="round"/>
<path d="M218.499 127.299H135.285C134.402 127.298 133.554 126.947 132.93 126.322C132.305 125.697 131.954 124.85 131.953 123.967C131.955 123.084 132.306 122.238 132.931 121.614C133.556 120.991 134.402 120.641 135.285 120.641H218.499C219.368 120.662 220.194 121.022 220.801 121.644C221.408 122.266 221.748 123.101 221.748 123.97C221.748 124.839 221.408 125.673 220.801 126.295C220.194 126.917 219.368 127.277 218.499 127.299Z" stroke="#012C10" stroke-width="1.294" stroke-linecap="round" stroke-linejoin="round"/>
<path d="M300.689 127.299H236.889C236.005 127.298 235.158 126.947 234.532 126.322C233.907 125.698 233.556 124.85 233.555 123.967C233.557 123.084 233.91 122.238 234.535 121.615C235.159 120.991 236.006 120.641 236.889 120.641H300.689C301.557 120.662 302.384 121.022 302.99 121.644C303.597 122.266 303.937 123.101 303.937 123.97C303.937 124.839 303.597 125.673 302.99 126.295C302.384 126.917 301.557 127.277 300.689 127.299Z" stroke="#012C10" stroke-width="1.294" stroke-linecap="round" stroke-linejoin="round"/>
<path d="M118.366 123.964C118.365 124.454 118.219 124.932 117.947 125.339C117.675 125.745 117.288 126.062 116.835 126.249C116.383 126.436 115.885 126.484 115.405 126.388C114.925 126.293 114.485 126.057 114.139 125.71C113.793 125.364 113.557 124.923 113.462 124.443C113.366 123.963 113.415 123.466 113.602 123.013C113.79 122.561 114.107 122.174 114.513 121.902C114.92 121.63 115.399 121.485 115.888 121.484C116.214 121.484 116.536 121.548 116.837 121.672C117.138 121.797 117.412 121.979 117.642 122.21C117.872 122.44 118.055 122.714 118.179 123.015C118.303 123.316 118.367 123.639 118.366 123.964Z" stroke="#012C10" stroke-width="1.294" stroke-linecap="round" stroke-linejoin="round"/>
<path d="M263.801 141.533H135.285C134.402 141.532 133.554 141.181 132.93 140.556C132.305 139.932 131.954 139.085 131.953 138.201C131.956 137.319 132.308 136.473 132.932 135.85C133.557 135.227 134.403 134.876 135.285 134.875H263.801C264.67 134.896 265.496 135.256 266.103 135.878C266.71 136.5 267.05 137.335 267.05 138.204C267.05 139.073 266.71 139.908 266.103 140.53C265.496 141.152 264.67 141.512 263.801 141.533Z" stroke="#012C10" stroke-width="1.294" stroke-linecap="round" stroke-linejoin="round"/>
<path d="M300.686 141.534H282.184C281.3 141.533 280.453 141.182 279.828 140.557C279.203 139.933 278.852 139.086 278.852 138.202C278.854 137.32 279.206 136.474 279.831 135.851C280.455 135.228 281.301 134.877 282.184 134.876H300.686C301.13 134.865 301.571 134.943 301.985 135.106C302.398 135.268 302.775 135.511 303.093 135.822C303.411 136.132 303.663 136.503 303.836 136.912C304.008 137.321 304.097 137.761 304.097 138.205C304.097 138.649 304.008 139.089 303.836 139.498C303.663 139.907 303.411 140.278 303.093 140.588C302.775 140.899 302.398 141.142 301.985 141.304C301.571 141.467 301.13 141.545 300.686 141.534Z" stroke="#012C10" stroke-width="1.294" stroke-linecap="round" stroke-linejoin="round"/>
<path d="M118.366 138.197C118.366 138.686 118.22 139.165 117.948 139.572C117.676 139.978 117.289 140.295 116.837 140.483C116.384 140.67 115.887 140.719 115.407 140.623C114.926 140.527 114.485 140.292 114.139 139.946C113.793 139.599 113.557 139.158 113.462 138.678C113.366 138.198 113.415 137.701 113.602 137.248C113.789 136.796 114.106 136.409 114.513 136.137C114.92 135.865 115.399 135.719 115.888 135.719C116.214 135.718 116.536 135.782 116.837 135.906C117.138 136.031 117.411 136.213 117.641 136.443C117.872 136.674 118.054 136.947 118.179 137.248C118.303 137.549 118.367 137.871 118.366 138.197Z" stroke="#012C10" stroke-width="1.294" stroke-linecap="round" stroke-linejoin="round"/>
<path d="M179.671 155.777H135.285C134.401 155.776 133.554 155.424 132.93 154.799C132.305 154.174 131.954 153.327 131.953 152.443C131.956 151.561 132.308 150.715 132.932 150.092C133.557 149.469 134.403 149.118 135.285 149.117H179.671C180.554 149.117 181.401 149.468 182.026 150.093C182.65 150.717 183.001 151.564 183.001 152.447C183.001 153.33 182.65 154.177 182.026 154.802C181.401 155.426 180.554 155.777 179.671 155.777Z" stroke="#012C10" stroke-width="1.294" stroke-linecap="round" stroke-linejoin="round"/>
<path d="M300.689 155.777H198.061C197.177 155.776 196.329 155.425 195.704 154.8C195.079 154.174 194.728 153.327 194.727 152.443C194.73 151.561 195.083 150.716 195.708 150.093C196.332 149.469 197.178 149.119 198.061 149.117H300.689C301.572 149.117 302.419 149.468 303.043 150.093C303.668 150.717 304.019 151.564 304.019 152.447C304.019 153.33 303.668 154.177 303.043 154.802C302.419 155.426 301.572 155.777 300.689 155.777Z" stroke="#012C10" stroke-width="1.294" stroke-linecap="round" stroke-linejoin="round"/>
<path d="M118.366 152.439C118.366 152.928 118.22 153.407 117.948 153.814C117.676 154.221 117.289 154.538 116.837 154.725C116.384 154.912 115.887 154.961 115.407 154.865C114.926 154.77 114.485 154.534 114.139 154.188C113.793 153.842 113.557 153.401 113.462 152.92C113.366 152.44 113.415 151.943 113.602 151.49C113.789 151.038 114.106 150.651 114.513 150.379C114.92 150.107 115.399 149.961 115.888 149.961C116.214 149.961 116.536 150.025 116.837 150.149C117.137 150.273 117.411 150.456 117.641 150.686C117.871 150.916 118.054 151.19 118.178 151.49C118.302 151.791 118.366 152.113 118.366 152.439Z" stroke="#012C10" stroke-width="1.294" stroke-linecap="round" stroke-linejoin="round"/>
<path d="M71.4132 82.8188H71.1812H70.9412C68.5385 82.6961 66.2789 81.6396 64.6442 79.8746C63.0094 78.1096 62.129 75.7757 62.1905 73.3707C62.2521 70.9658 63.2508 68.68 64.9738 67.0009C66.6967 65.3219 69.0074 64.3824 71.4132 64.3828" stroke="#012C10" stroke-width="1.942" stroke-linecap="round" stroke-linejoin="round"/>
<path d="M58.3125 82.8125H71.4105H71.1785C68.7597 82.8831 66.4655 83.9014 64.7905 85.6478C63.1155 87.3942 62.1939 89.7289 62.2243 92.1486C62.2547 94.5682 63.2348 96.879 64.9532 98.5828C66.6716 100.287 68.9907 101.247 71.4105 101.257" stroke="#012C10" stroke-width="1.942" stroke-linecap="round" stroke-linejoin="round"/>
<path d="M87.9766 82.8188H88.2166H88.4486C90.8512 82.6961 93.1108 81.6396 94.7456 79.8746C96.3803 78.1096 97.2608 75.7757 97.1992 73.3707C97.1376 70.9658 96.1389 68.68 94.416 67.0009C92.6931 65.3219 90.3823 64.3824 87.9766 64.3828" stroke="#012C10" stroke-width="1.942" stroke-linecap="round" stroke-linejoin="round"/>
<path d="M101.075 82.8125H87.9766H88.2166C90.6359 82.8833 92.9305 83.9023 94.6054 85.6495C96.2803 87.3968 97.2013 89.7324 97.1698 92.1526C97.1383 94.5727 96.1568 96.8836 94.437 98.5867C92.7172 100.29 90.3969 101.249 87.9766 101.257" stroke="#012C10" stroke-width="1.942" stroke-linecap="round" stroke-linejoin="round"/>
<path d="M343.094 41.5656L360.676 31.4196L343.094 21.2656" stroke="#012C10" stroke-width="1.942" stroke-linecap="round" stroke-linejoin="round"/>
<path d="M325.051 21.2656L307.469 31.4196L325.051 41.5656" stroke="#012C10" stroke-width="1.942" stroke-linecap="round" stroke-linejoin="round"/>
<path d="M339.08 16.6797L328.57 46.0137" stroke="#012C10" stroke-width="1.294" stroke-linecap="round" stroke-linejoin="round"/>
<path d="M323.516 184.285L326.364 175.639L333.12 155.125L339.882 175.639L342.73 184.285" stroke="#012C10" stroke-width="1.942" stroke-linecap="round" stroke-linejoin="round"/>
<path d="M326.367 175.641H339.885" stroke="#012C10" stroke-width="1.942" stroke-linecap="round" stroke-linejoin="round"/>
<path d="M357.356 179.249C355.5 183.229 352.024 185.539 349.604 184.413C347.184 183.287 346.732 179.139 348.588 175.153C350.444 171.167 353.914 168.863 356.34 169.989C357.086 170.447 357.685 171.108 358.068 171.896C358.451 172.683 358.602 173.563 358.502 174.433C358.472 176.102 358.081 177.745 357.356 179.249Z" stroke="#012C10" stroke-width="1.294" stroke-linecap="round" stroke-linejoin="round"/>
<path d="M358.5 174.375V174.433C358.856 177.935 356.714 187.157 362.3 183.403" stroke="#012C10" stroke-width="1.294" stroke-linecap="round" stroke-linejoin="round"/>
</svg>
