<svg width="382" height="350" viewBox="0 0 382 350" fill="none" xmlns="http://www.w3.org/2000/svg">
<path d="M165.184 220.433C164.958 219.426 164.965 218.38 165.204 217.375C167.068 209.125 166.786 196.951 168.648 187.053C170.51 177.155 176.648 178.269 183.434 175.897C187.766 174.377 191.82 172.041 196.434 169.897C199.183 168.585 202.028 167.484 204.944 166.605C213.584 164.061 235.272 173.205 245.776 174.887C248.258 175.282 250.704 175.878 253.09 176.667L253.138 176.523C253.138 176.523 301.042 143.687 313.566 134.695C326.09 125.703 351.8 107.445 351.8 107.445L381.082 174.885C381.082 174.885 323.59 212.885 315.082 220.377C306.574 227.869 287.862 237.391 287.862 237.391L287.71 237.355C286.568 242.587 282.768 248.555 272.292 254.471L271.66 254.691C269.927 250.702 267.735 246.929 265.128 243.447C254.68 224.227 212.068 195.747 208.384 196.359C204.7 196.971 194.526 198.311 194.526 198.311C193.778 200.559 190.65 201.817 190.65 201.817H190.382C190.433 208.617 188.098 215.219 183.782 220.473C176.966 229.073 166.586 226.633 165.184 220.433Z" fill="#FFC077"/>
<path d="M283.705 51.2556C284.375 54.3217 284.634 57.4632 284.475 60.5976C284.443 61.1462 284.295 61.6818 284.042 62.1695C283.789 62.6572 283.435 63.0862 283.006 63.4284C282.576 63.7707 282.078 64.0185 281.546 64.1559C281.014 64.2932 280.459 64.317 279.917 64.2256L265.681 61.8756C264.809 61.7359 264.01 61.3033 263.416 60.6489C262.823 59.9945 262.469 59.1574 262.415 58.2756C262.359 55.9328 261.513 53.6776 260.015 51.8756C259.403 51.1646 258.717 50.5215 257.967 49.9576L253.871 74.7796L259.721 78.3196C267.769 83.0636 272.94 88.5676 275.235 94.8316C277.53 101.089 278.138 107.839 276.999 114.406C276.278 119.029 274.637 123.461 272.173 127.44C269.824 131.229 266.795 134.552 263.237 137.24C259.636 139.935 255.522 141.864 251.147 142.91C248.307 143.606 245.388 143.927 242.465 143.866L240.505 155.752C240.396 156.41 240.159 157.041 239.806 157.607C239.454 158.174 238.993 158.666 238.45 159.054C237.908 159.443 237.294 159.721 236.644 159.872C235.994 160.024 235.321 160.045 234.662 159.937C234.004 159.828 233.373 159.59 232.806 159.238C232.24 158.885 231.748 158.424 231.36 157.882C230.971 157.339 230.693 156.725 230.542 156.075C230.39 155.425 230.368 154.752 230.477 154.094L232.415 142.354C225.422 140.495 219.24 136.377 214.831 130.64C212.685 127.93 211.003 124.882 209.855 121.622C209.497 120.636 209.182 119.635 208.913 118.622C208.196 115.931 207.812 113.163 207.771 110.38C207.751 109.475 207.929 108.577 208.295 107.75C208.661 106.922 209.204 106.185 209.887 105.592C210.569 104.998 211.374 104.562 212.244 104.314C213.114 104.067 214.028 104.014 214.921 104.16L220.935 105.16L225.203 105.862C226.467 106.075 227.633 106.677 228.539 107.584C229.445 108.491 230.045 109.657 230.257 110.922C230.555 112.671 231.063 114.379 231.769 116.008C232.609 117.931 234.136 119.473 236.051 120.332L240.671 92.3316L235.565 89.4316C229.232 85.9789 224.004 80.8059 220.485 74.5096C217.174 68.1831 216.119 60.9164 217.495 53.9096C218.218 49.2766 219.898 44.845 222.429 40.8976C224.839 37.1383 227.982 33.9027 231.669 31.3836C235.191 28.8632 239.202 27.1095 243.443 26.2356C246.155 25.6696 248.924 25.4272 251.693 25.5136L253.417 15.0596C253.637 13.7295 254.376 12.5412 255.471 11.756C256.014 11.3672 256.628 11.089 257.278 10.9375C257.928 10.7859 258.602 10.7638 259.26 10.8726C259.919 10.9813 260.549 11.2187 261.116 11.5712C261.683 11.9237 262.175 12.3844 262.564 12.9269C262.953 13.4695 263.231 14.0833 263.382 14.7334C263.534 15.3835 263.556 16.057 263.447 16.7156L261.729 27.1436C264.48 27.9679 267.11 29.1514 269.551 30.6636C273.178 32.8903 276.292 35.861 278.687 39.3796C281.104 42.981 282.807 47.0125 283.705 51.2556ZM255.199 111.272C255.757 108.373 255.354 105.371 254.051 102.722C253.05 100.904 251.675 99.3194 250.015 98.0736L246.181 121.294C247.423 120.944 248.615 120.436 249.727 119.782C251.234 118.881 252.511 117.644 253.461 116.168C254.41 114.692 255.005 113.016 255.199 111.272ZM244.509 69.0316L248.049 47.5916C246.373 47.8806 244.808 48.6196 243.519 49.7296C241.226 51.6425 239.708 54.3261 239.251 57.2776C238.905 59.4512 239.096 61.6767 239.807 63.7596C240.788 65.963 242.432 67.8058 244.509 69.0316Z" fill="#ACFEC1"/>
<path d="M165.184 220.435C166.584 226.635 176.966 229.069 183.772 220.477C188.087 215.222 190.423 208.62 190.372 201.821H190.64C190.64 201.821 193.768 200.563 194.516 198.315C194.516 198.315 204.682 196.975 208.374 196.363C212.066 195.751 254.67 224.231 265.118 243.451C267.725 246.932 269.917 250.706 271.65 254.695C272.784 257.625 273.216 260.415 271.85 262.031C267.14 267.631 261.38 265.983 257.338 261.329C257.138 261.103 256.938 260.861 256.738 260.615C252.674 255.425 242.246 242.755 242.246 242.755L233.544 237.355C235.573 239.254 237.479 241.282 239.25 243.425C241.58 246.601 250.744 255.957 254.86 262.371C255.918 263.759 256.613 265.388 256.882 267.113C256.795 268.374 256.409 269.596 255.756 270.678C255.103 271.76 254.202 272.671 253.127 273.336C252.052 274.001 250.834 274.4 249.574 274.5C248.314 274.6 247.048 274.399 245.882 273.913C245.737 273.853 245.598 273.779 245.468 273.693C241.984 271.535 224.834 256.151 222.172 253.643C221.641 252.654 220.908 251.787 220.022 251.099C219.486 250.668 218.915 250.282 218.316 249.945L218.29 249.923C213.78 247.359 208.844 248.323 204.582 251.655C199.88 255.347 201.942 253.167 199.908 255.285C199.733 253.619 199.021 252.056 197.88 250.831C193.666 246.101 187.954 245.867 182.578 248.761C178.428 251.146 174.425 253.776 170.59 256.639L154.944 258.137L154.808 258.111C155.191 255.327 154.587 252.496 153.102 250.111C149.702 244.983 144.6 245.511 141.912 245.671C141.471 245.7 141.035 245.778 140.612 245.905L140.578 245.671C138.495 244.646 136.477 243.493 134.536 242.219C132.005 240.626 129.5 238.992 127.022 237.319C124.59 235.683 122.844 234.473 122.844 234.473C123.008 214.64 124.452 194.838 127.166 175.191L130.694 176.559C136.412 178.779 147.218 182.959 148.6 183.447C149.261 183.795 149.997 183.978 150.745 183.978C151.492 183.978 152.228 183.795 152.89 183.447C154.848 182.705 177.876 170.579 182.53 169.473C187.184 168.367 196.422 169.891 196.422 169.891C191.802 172.043 187.748 174.379 183.422 175.891C176.644 178.263 170.492 177.141 168.636 187.047C166.78 196.953 167.056 209.119 165.192 217.369C164.955 218.377 164.952 219.426 165.184 220.435Z" fill="#FFC077"/>
<path d="M256.762 260.608C256.962 260.854 257.162 261.096 257.362 261.322C257.362 261.322 254.942 262.442 254.894 262.368C250.778 255.954 241.614 246.598 239.284 243.422C237.514 241.279 235.608 239.251 233.578 237.352L242.28 242.752C242.28 242.752 252.698 255.418 256.762 260.608Z" fill="#FFC077"/>
<path d="M245.492 273.688L245.018 274.382C244.84 275.316 244.447 276.195 243.869 276.949C243.292 277.704 242.546 278.313 241.692 278.728C240.478 279.491 239.12 279.993 237.702 280.204C236.284 280.414 234.838 280.328 233.456 279.95C232.216 279.35 231.02 278.663 229.876 277.896L228.046 277.696C228.97 276.842 229.787 275.879 230.48 274.828C233.08 270.444 232.99 267.728 230.122 265.446C229.044 264.427 227.718 263.708 226.275 263.362C224.833 263.016 223.325 263.055 221.902 263.474L221.598 263.288C221.752 263.033 221.886 262.765 221.998 262.488C222.682 261.121 223.055 259.619 223.09 258.091C223.125 256.562 222.82 255.045 222.198 253.648C224.858 256.146 242 271.53 245.492 273.688Z" fill="#FFC077"/>
<path d="M233.458 279.947C231.023 282.964 227.695 285.13 223.952 286.135C223.163 286.419 222.323 286.528 221.489 286.455C220.654 286.381 219.846 286.127 219.12 285.709L218.184 285.695C221.64 283.243 224.935 280.571 228.048 277.695L229.878 277.895C231.022 278.662 232.218 279.347 233.458 279.947Z" fill="#FFC077"/>
<path d="M230.123 265.435C232.991 267.717 233.073 270.435 230.481 274.817C229.788 275.867 228.971 276.83 228.047 277.685C224.934 280.561 221.639 283.233 218.183 285.685C217.035 286.517 216.301 287.025 216.301 287.025C204.985 293.673 199.967 295.149 195.919 293.245C194.665 292.744 193.54 291.965 192.629 290.968C191.719 289.97 191.046 288.779 190.661 287.485L190.461 287.031C195.003 285.041 199.404 282.742 203.633 280.151C203.633 280.151 218.433 268.637 221.593 263.269L221.897 263.455C223.321 263.035 224.831 262.997 226.275 263.345C227.718 263.692 229.045 264.413 230.123 265.435Z" fill="#FFC077"/>
<path d="M222.199 253.629C222.821 255.025 223.126 256.543 223.092 258.071C223.057 259.6 222.684 261.102 221.999 262.469C221.887 262.746 221.754 263.013 221.599 263.269C218.437 268.637 203.639 280.151 203.639 280.151C199.411 282.742 195.01 285.041 190.467 287.031C181.067 290.943 178.879 288.631 175.503 287.045C172.287 285.346 169.871 282.446 168.781 278.975V278.879C171.577 278.67 174.305 277.923 176.817 276.679C176.817 276.679 195.157 266.879 197.913 262.361C199.348 260.282 200.061 257.79 199.941 255.267C201.975 253.149 199.913 255.329 204.615 251.637C208.877 248.303 213.815 247.341 218.323 249.905L218.349 249.927C218.949 250.264 219.519 250.65 220.055 251.081C220.94 251.771 221.67 252.639 222.199 253.629Z" fill="#FFC077"/>
<path d="M170.6 256.627C174.44 253.766 178.447 251.135 182.6 248.749C187.976 245.855 193.687 246.089 197.901 250.819C199.043 252.045 199.755 253.608 199.929 255.273C200.049 257.796 199.337 260.289 197.901 262.367C195.145 266.883 176.805 276.685 176.805 276.685C174.293 277.929 171.565 278.676 168.77 278.885C163.455 279.062 158.15 278.318 153.089 276.685C147.571 275.255 144.938 264.931 144.938 264.931C147.05 264.587 149.108 263.963 151.055 263.075C152.051 262.629 152.918 261.94 153.577 261.07C154.235 260.2 154.664 259.178 154.824 258.099L154.96 258.125L170.6 256.627Z" fill="#FFC077"/>
<path d="M193.886 5.70312L195.184 11.9871L117.832 27.9271L138.804 129.711L132.514 131.003L131.216 124.713L110.25 22.9371L187.596 6.99713L193.886 5.70312Z" fill="#ACFEC1"/>
<path d="M187.596 7.00094L110.25 22.9409L131.216 124.717L124.926 126.017L102.66 17.9429L186.304 0.710938L187.596 7.00094Z" fill="#012C10"/>
<path d="M140.631 245.899C141.054 245.773 141.49 245.694 141.931 245.665C144.619 245.513 149.711 244.977 153.121 250.105C154.606 252.491 155.21 255.321 154.827 258.105C154.667 259.184 154.239 260.206 153.58 261.075C152.921 261.945 152.054 262.635 151.059 263.081C149.111 263.968 147.053 264.593 144.941 264.937C140.247 265.727 135.365 265.301 133.221 263.191C129.621 259.637 125.749 251.471 134.157 242.845L134.557 242.211C136.498 243.485 138.516 244.638 140.599 245.663L140.631 245.899Z" fill="#FFC077"/>
<path d="M129.509 171.735L129.433 171.797C129.359 171.697 129.263 171.616 129.153 171.557C129.044 171.499 128.923 171.466 128.799 171.46C128.674 171.454 128.551 171.475 128.436 171.523C128.321 171.571 128.218 171.643 128.135 171.735C127.607 172.816 127.285 173.986 127.185 175.185C124.471 194.832 123.027 214.634 122.863 234.467C122.951 239.037 123.315 242.049 124.051 242.455C124.51 242.772 125.076 242.895 125.625 242.797L125.653 242.887C123.605 244.249 118.139 244.935 116.653 240.613C116.286 237.108 116.258 233.577 116.571 230.067C117.279 213.067 120.049 181.067 121.571 172.299C121.652 171.536 121.842 170.788 122.135 170.079C123.777 167.927 129.317 169.165 129.509 171.735Z" fill="#ACFEC1"/>
<path d="M121.2 172.229L121.578 172.299C120.052 181.077 117.282 213.075 116.578 230.067H116.378C116.378 230.067 104.528 224.747 98.506 224.031C89.776 223.001 1.08203 181.811 1.08203 181.811L35.018 115.711L115.684 169.485L121.2 172.229Z" fill="#FFC077"/>
<path d="M351.789 107.445L381.071 174.885" stroke="#FFC077" stroke-width="1.374" stroke-linecap="round" stroke-linejoin="round"/>
<path d="M1.07422 181.803L35.0182 115.711" stroke="#FFC077" stroke-width="1.374" stroke-linecap="round" stroke-linejoin="round"/>
<path d="M281.864 324.315C260.656 338.321 236.146 346.523 210.78 348.104C185.413 349.685 160.076 344.589 137.292 333.324C114.509 322.06 95.077 305.02 80.9327 283.904C66.7883 262.787 58.4261 238.332 56.6797 212.977" stroke="#012C10" stroke-width="1.374" stroke-linecap="round" stroke-linejoin="round"/>
<path d="M346.999 207.398C346.397 228.145 341.35 248.52 332.199 267.149C323.047 285.778 310.005 302.226 293.953 315.382" stroke="#012C10" stroke-width="1.374" stroke-linecap="round" stroke-linejoin="round"/>
<path d="M265.639 301.159C249.809 311.615 231.654 318.027 212.769 319.832C193.883 321.636 174.843 318.779 157.319 311.511C139.795 304.242 124.322 292.784 112.258 278.143C100.194 263.501 91.9075 246.122 88.125 227.531" stroke="#012C10" stroke-width="1.374" stroke-linecap="round" stroke-linejoin="round"/>
<path d="M315.629 226.031C310.571 252.728 296.291 276.797 275.285 294.031" stroke="#012C10" stroke-width="1.374" stroke-linecap="round" stroke-linejoin="round"/>
<path d="M279.656 119.086C286.518 125.278 292.617 132.265 297.824 139.9" stroke="#012C10" stroke-width="1.374" stroke-linecap="round" stroke-linejoin="round"/>
<path d="M98.1836 152.919C103.531 142.177 110.509 132.327 118.868 123.719" stroke="#012C10" stroke-width="1.374" stroke-linecap="round" stroke-linejoin="round"/>
<path d="M272.809 76.2188C291.103 86.5108 306.966 100.622 319.319 117.593" stroke="#012C10" stroke-width="1.374" stroke-linecap="round" stroke-linejoin="round"/>
<path d="M73.2305 134.97C82.529 117.474 95.2914 102.054 110.74 89.6484" stroke="#012C10" stroke-width="1.374" stroke-linecap="round" stroke-linejoin="round"/>
<path d="M253.145 176.521C253.145 176.521 301.049 143.685 313.573 134.693C326.097 125.701 351.801 107.445 351.801 107.445" stroke="#012C10" stroke-width="1.374" stroke-linecap="round" stroke-linejoin="round"/>
<path d="M287.859 237.389C287.859 237.389 306.569 227.861 315.079 220.375C323.589 212.889 381.079 174.883 381.079 174.883" stroke="#012C10" stroke-width="1.374" stroke-linecap="round" stroke-linejoin="round"/>
<path d="M1.07422 181.805C1.07422 181.805 89.7702 223.005 98.5002 224.025C104.522 224.741 116.372 230.061 116.372 230.061" stroke="#012C10" stroke-width="1.374" stroke-linecap="round" stroke-linejoin="round"/>
<path d="M121.206 172.227L115.686 169.485L35.0195 115.711" stroke="#012C10" stroke-width="1.374" stroke-linecap="round" stroke-linejoin="round"/>
<path d="M130.781 176.377C130.664 174.772 130.204 173.211 129.433 171.799C129.359 171.7 129.264 171.618 129.154 171.559C129.044 171.501 128.923 171.468 128.799 171.462C128.675 171.456 128.551 171.478 128.436 171.525C128.322 171.573 128.219 171.645 128.135 171.737C127.607 172.818 127.285 173.988 127.185 175.187C124.471 194.834 123.028 214.636 122.863 234.469C122.951 239.039 123.315 242.051 124.051 242.457C124.51 242.774 125.076 242.897 125.625 242.799C127.425 242.333 126.843 237.899 126.843 237.899" stroke="#012C10" stroke-width="1.374" stroke-linecap="round" stroke-linejoin="round"/>
<path d="M129.509 171.731C129.309 169.161 123.777 167.931 122.147 170.075C121.854 170.785 121.664 171.532 121.583 172.295C120.057 181.073 117.287 213.071 116.583 230.063C116.27 233.573 116.298 237.105 116.665 240.609C118.143 244.931 123.609 244.245 125.665 242.883" stroke="#012C10" stroke-width="1.374" stroke-linecap="round" stroke-linejoin="round"/>
<path d="M127.184 175.183L130.712 176.551C136.43 178.771 147.236 182.951 148.618 183.439C149.279 183.788 150.015 183.97 150.763 183.97C151.51 183.97 152.246 183.788 152.908 183.439C154.866 182.697 177.894 170.571 182.548 169.465C187.202 168.359 196.44 169.883 196.44 169.883" stroke="#012C10" stroke-width="1.374" stroke-linecap="round" stroke-linejoin="round"/>
<path d="M122.863 234.469C122.863 234.469 124.609 235.679 127.041 237.315C129.241 238.799 132.011 240.627 134.555 242.215C136.496 243.489 138.514 244.642 140.597 245.667" stroke="#012C10" stroke-width="1.374" stroke-linecap="round" stroke-linejoin="round"/>
<path d="M287.171 224.281C287.171 227.183 288.909 231.857 287.707 237.355C286.565 242.587 282.765 248.555 272.289 254.473" stroke="#012C10" stroke-width="1.374" stroke-linecap="round" stroke-linejoin="round"/>
<path d="M262.556 181.172C259.636 179.224 256.45 177.705 253.098 176.662C250.712 175.872 248.266 175.277 245.784 174.882C235.28 173.204 213.584 164.056 204.952 166.6C202.036 167.479 199.191 168.58 196.442 169.892C191.822 172.044 187.768 174.38 183.442 175.892C176.664 178.264 170.512 177.142 168.656 187.048C166.8 196.954 167.076 209.12 165.212 217.37C164.973 218.375 164.966 219.421 165.192 220.428C166.592 226.628 176.974 229.062 183.78 220.47C188.095 215.215 190.431 208.614 190.38 201.814C190.366 199.897 190.15 197.986 189.734 196.114" stroke="#012C10" stroke-width="1.374" stroke-linecap="round" stroke-linejoin="round"/>
<path d="M190.645 201.811C190.645 201.811 193.773 200.553 194.521 198.305C194.521 198.305 204.687 196.965 208.379 196.353C212.071 195.741 254.675 224.221 265.123 243.441" stroke="#012C10" stroke-width="1.374" stroke-linecap="round" stroke-linejoin="round"/>
<path d="M265.125 243.448C267.732 246.929 269.924 250.703 271.657 254.692C272.791 257.622 273.223 260.412 271.857 262.028C267.147 267.628 261.387 265.98 257.345 261.326C257.145 261.1 256.945 260.858 256.745 260.612C252.681 255.422 242.253 242.752 242.253 242.752L233.551 237.352" stroke="#012C10" stroke-width="1.374" stroke-linecap="round" stroke-linejoin="round"/>
<path d="M218.34 218.906C218.518 220.758 218.982 222.571 219.716 224.28C220.286 224.94 227.888 231.794 233.566 237.354C235.595 239.254 237.501 241.281 239.272 243.424C241.602 246.6 250.766 255.956 254.882 262.37C255.94 263.758 256.635 265.388 256.904 267.112C256.817 268.373 256.431 269.595 255.778 270.678C255.125 271.76 254.224 272.671 253.149 273.335C252.074 274 250.856 274.399 249.596 274.499C248.336 274.6 247.071 274.398 245.904 273.912C245.759 273.853 245.62 273.779 245.49 273.692C242.006 271.534 224.856 256.15 222.194 253.642L222.182 253.628" stroke="#012C10" stroke-width="1.374" stroke-linecap="round" stroke-linejoin="round"/>
<path d="M245.017 274.383C244.839 275.316 244.446 276.195 243.869 276.95C243.291 277.704 242.545 278.313 241.691 278.729C240.477 279.491 239.119 279.994 237.701 280.204C236.284 280.414 234.838 280.328 233.455 279.951C232.215 279.35 231.019 278.664 229.875 277.897" stroke="#012C10" stroke-width="1.374" stroke-linecap="round" stroke-linejoin="round"/>
<path d="M233.455 279.953C231.021 282.969 227.693 285.136 223.949 286.141C223.161 286.425 222.321 286.534 221.486 286.46C220.652 286.387 219.843 286.132 219.117 285.715" stroke="#012C10" stroke-width="1.374" stroke-linecap="round" stroke-linejoin="round"/>
<path d="M208.379 196.355C208.379 196.355 211.487 193.275 211.487 191.523" stroke="#012C10" stroke-width="1.374" stroke-linecap="round" stroke-linejoin="round"/>
<path d="M194.523 198.31C194.799 196.865 194.799 195.382 194.523 193.938" stroke="#012C10" stroke-width="1.374" stroke-linecap="round" stroke-linejoin="round"/>
<path d="M165.027 219.792C165.026 220.017 165.081 220.239 165.185 220.438C166.429 222.954 175.153 222.142 177.951 217.95C180.967 213.42 177.283 207.398 177.283 207.398" stroke="#012C10" stroke-width="1.374" stroke-linecap="round" stroke-linejoin="round"/>
<path d="M166.883 205.758C166.883 205.758 169.123 205.586 172.083 205.242" stroke="#012C10" stroke-width="1.374" stroke-linecap="round" stroke-linejoin="round"/>
<path d="M264.129 262.372C266.175 261.768 268.055 260.699 269.621 259.25" stroke="#012C10" stroke-width="1.374" stroke-linecap="round" stroke-linejoin="round"/>
<path d="M257.351 261.32C257.351 261.32 254.931 262.44 254.883 262.366" stroke="#012C10" stroke-width="1.374" stroke-linecap="round" stroke-linejoin="round"/>
<path d="M135.861 248.428C137.305 247.336 138.915 246.484 140.631 245.906C141.054 245.779 141.49 245.701 141.931 245.672C144.619 245.52 149.711 244.984 153.121 250.112C154.606 252.497 155.21 255.328 154.827 258.112C154.667 259.191 154.239 260.212 153.58 261.082C152.921 261.952 152.054 262.642 151.059 263.088C149.111 263.975 147.053 264.599 144.941 264.944C140.247 265.734 135.365 265.308 133.221 263.198C129.621 259.644 125.749 251.478 134.157 242.852" stroke="#012C10" stroke-width="1.374" stroke-linecap="round" stroke-linejoin="round"/>
<path d="M170.601 256.633C169.013 257.789 167.693 258.771 166.875 259.377" stroke="#012C10" stroke-width="1.374" stroke-linecap="round" stroke-linejoin="round"/>
<path d="M144.941 264.939C144.941 264.939 147.575 275.263 153.093 276.693C158.154 278.326 163.459 279.07 168.773 278.893C171.569 278.684 174.297 277.937 176.809 276.693C176.809 276.693 195.149 266.893 197.905 262.375C199.34 260.296 200.053 257.804 199.933 255.281C199.758 253.616 199.047 252.052 197.905 250.827C193.691 246.097 187.979 245.863 182.603 248.757C178.454 251.142 174.451 253.773 170.615 256.635" stroke="#012C10" stroke-width="1.374" stroke-linecap="round" stroke-linejoin="round"/>
<path d="M170.613 256.633H170.607L154.961 258.131" stroke="#012C10" stroke-width="1.374" stroke-linecap="round" stroke-linejoin="round"/>
<path d="M182.973 255.812C181.67 257.352 180.961 259.307 180.973 261.325C181.07 262.173 181.374 262.986 181.858 263.689C182.343 264.393 182.993 264.967 183.751 265.361C184.509 265.755 185.352 265.957 186.207 265.948C187.061 265.94 187.901 265.721 188.651 265.312C192.205 263.347 197.897 259.366 196.331 255.812" stroke="#012C10" stroke-width="1.374" stroke-linecap="round" stroke-linejoin="round"/>
<path d="M185.414 253.631C186.656 252.53 188.171 251.782 189.8 251.465C190.946 251.416 192.068 251.802 192.942 252.545" stroke="#012C10" stroke-width="1.374" stroke-linecap="round" stroke-linejoin="round"/>
<path d="M218.313 249.92C213.803 247.356 208.867 248.32 204.605 251.652C199.903 255.344 201.965 253.164 199.931 255.282C199.889 255.324 199.849 255.372 199.801 255.42" stroke="#012C10" stroke-width="1.374" stroke-linecap="round" stroke-linejoin="round"/>
<path d="M168.781 278.989C169.871 282.46 172.287 285.36 175.503 287.059C178.879 288.647 181.077 290.957 190.467 287.045C195.01 285.055 199.411 282.757 203.639 280.165C203.639 280.165 218.439 268.651 221.599 263.283C221.754 263.028 221.887 262.76 221.999 262.483C222.684 261.116 223.057 259.614 223.092 258.086C223.126 256.557 222.821 255.04 222.199 253.643C221.668 252.654 220.936 251.788 220.049 251.099C219.513 250.668 218.943 250.282 218.343 249.945" stroke="#012C10" stroke-width="1.374" stroke-linecap="round" stroke-linejoin="round"/>
<path d="M206.165 258.541C205.148 260.283 204.785 262.33 205.141 264.315C205.381 265.135 205.819 265.883 206.416 266.494C207.013 267.105 207.75 267.56 208.564 267.819C209.378 268.078 210.243 268.134 211.083 267.981C211.923 267.828 212.713 267.471 213.383 266.941C216.559 264.399 221.487 259.511 219.343 256.273" stroke="#012C10" stroke-width="1.374" stroke-linecap="round" stroke-linejoin="round"/>
<path d="M208.199 255.97C209.236 254.676 210.6 253.683 212.151 253.096C213.274 252.852 214.448 253.041 215.437 253.626" stroke="#012C10" stroke-width="1.374" stroke-linecap="round" stroke-linejoin="round"/>
<path d="M190.66 287.501C191.045 288.795 191.718 289.986 192.629 290.984C193.539 291.981 194.664 292.76 195.918 293.261C199.966 295.165 204.984 293.687 216.3 287.041C216.3 287.041 217.034 286.533 218.182 285.701C221.639 283.249 224.934 280.577 228.046 277.701C228.97 276.846 229.787 275.883 230.48 274.833C233.08 270.449 232.99 267.733 230.122 265.451C229.044 264.431 227.718 263.713 226.276 263.367C224.833 263.021 223.325 263.059 221.902 263.479" stroke="#012C10" stroke-width="1.374" stroke-linecap="round" stroke-linejoin="round"/>
<path d="M218.823 270.151C218.037 271.497 217.757 273.079 218.033 274.613C218.218 275.248 218.556 275.827 219.018 276.301C219.48 276.774 220.051 277.127 220.681 277.328C221.311 277.529 221.98 277.572 222.631 277.453C223.282 277.334 223.893 277.057 224.411 276.647C226.865 274.681 230.681 270.901 229.011 268.391" stroke="#012C10" stroke-width="1.374" stroke-linecap="round" stroke-linejoin="round"/>
<path d="M220.398 268.154C221.202 267.152 222.262 266.384 223.464 265.932C224.332 265.742 225.239 265.89 226 266.346" stroke="#012C10" stroke-width="1.374" stroke-linecap="round" stroke-linejoin="round"/>
<path d="M211.488 241.211L213.79 245.603L218.314 249.919L218.34 249.941" stroke="#012C10" stroke-width="1.374" stroke-linecap="round" stroke-linejoin="round"/>
<path d="M151.058 263.083C149.06 262.167 147.239 260.909 145.676 259.365C144.613 257.982 143.878 256.377 143.524 254.669C143.448 254.283 143.274 253.923 143.018 253.625C142.762 253.327 142.432 253.101 142.062 252.968C141.692 252.836 141.294 252.802 140.906 252.87C140.519 252.938 140.156 253.106 139.854 253.357C138.891 254.069 138.217 255.103 137.956 256.271C137.652 257.612 137.809 259.016 138.4 260.258C138.991 261.499 139.982 262.506 141.214 263.117" stroke="#012C10" stroke-width="1.374" stroke-linecap="round" stroke-linejoin="round"/>
<path d="M209.806 121.633L140.096 135.993L138.804 129.711L117.832 27.9273L195.184 11.9873L201.468 10.6953L220.934 105.143" stroke="#012C10" stroke-width="1.374" stroke-linecap="round" stroke-linejoin="round"/>
<path d="M138.804 129.711L132.514 131.003L131.216 124.713L110.25 22.9371L187.596 6.99713L193.886 5.70312L195.184 11.9871V11.9931" stroke="#012C10" stroke-width="1.374" stroke-linecap="round" stroke-linejoin="round"/>
<path d="M131.216 124.717L124.926 126.017L102.66 17.9429L186.304 0.710938L187.596 7.00094" stroke="#012C10" stroke-width="1.374" stroke-linecap="round" stroke-linejoin="round"/>
<path d="M134.102 39.5683L191.128 27.8203" stroke="#012C10" stroke-width="1.374" stroke-linecap="round" stroke-linejoin="round"/>
<path d="M139.832 51.506L196.86 39.75" stroke="#012C10" stroke-width="1.374" stroke-linecap="round" stroke-linejoin="round"/>
<path d="M134.844 59.0871L198.16 46.0391" stroke="#012C10" stroke-width="1.374" stroke-linecap="round" stroke-linejoin="round"/>
<path d="M136.133 65.3741L199.449 52.3281" stroke="#012C10" stroke-width="1.374" stroke-linecap="round" stroke-linejoin="round"/>
<path d="M137.434 71.662L181.882 62.5" stroke="#012C10" stroke-width="1.374" stroke-linecap="round" stroke-linejoin="round"/>
<path d="M145.016 76.6543L202.042 64.9062" stroke="#012C10" stroke-width="1.374" stroke-linecap="round" stroke-linejoin="round"/>
<path d="M140.027 84.2353L203.343 71.1953" stroke="#012C10" stroke-width="1.374" stroke-linecap="round" stroke-linejoin="round"/>
<path d="M141.316 90.5226L204.632 77.4766" stroke="#012C10" stroke-width="1.374" stroke-linecap="round" stroke-linejoin="round"/>
<path d="M148.898 95.5196L205.932 83.7656" stroke="#012C10" stroke-width="1.374" stroke-linecap="round" stroke-linejoin="round"/>
<path d="M143.91 103.108L207.226 90.0625" stroke="#012C10" stroke-width="1.374" stroke-linecap="round" stroke-linejoin="round"/>
<path d="M145.207 109.398L208.523 96.3516" stroke="#012C10" stroke-width="1.374" stroke-linecap="round" stroke-linejoin="round"/>
<path d="M165.426 121.614L171.882 120.288L179.552 118.706L195.486 115.42L198.512 114.794L203.592 113.75" stroke="#012C10" stroke-width="1.374" stroke-linecap="round" stroke-linejoin="round"/>
<path d="M184.199 111.918C183.999 112.648 182.761 117.24 184.467 117.288C186.309 117.342 190.509 106.75 190.509 106.75C190.509 106.75 188.453 115.35 190.941 115.528C193.429 115.706 193.067 109.41 195.225 108.826C196.743 108.412 195.485 112.908 195.485 115.426C195.485 116.506 195.719 117.226 196.497 117.026C197.465 116.786 198.049 115.872 198.511 114.798C199.267 112.998 199.699 110.756 201.047 110.42" stroke="#012C10" stroke-width="1.374" stroke-linecap="round" stroke-linejoin="round"/>
<path d="M176.199 115.01C177.079 117.148 178.399 118.81 179.511 118.55C182.041 117.938 183.925 112.694 184.193 111.916C184.198 111.893 184.205 111.87 184.213 111.848V111.828" stroke="#012C10" stroke-width="1.374" stroke-linecap="round" stroke-linejoin="round"/>
<path d="M176.2 115.009C178.24 111.159 179.368 106.643 176.928 107.269C174.56 107.881 174.938 111.929 176.2 115.009Z" stroke="#012C10" stroke-width="1.374" stroke-linecap="round" stroke-linejoin="round"/>
<path d="M171.832 120.06C173.2 119.69 174.89 117.49 176.204 115.008" stroke="#012C10" stroke-width="1.374" stroke-linecap="round" stroke-linejoin="round"/>
<path d="M161.48 114.133L158.318 118.937L155.156 123.735" stroke="#012C10" stroke-width="1.374" stroke-linecap="round" stroke-linejoin="round"/>
<path d="M153.512 115.773L158.318 118.935L163.116 122.091" stroke="#012C10" stroke-width="1.374" stroke-linecap="round" stroke-linejoin="round"/>
<path d="M209.853 121.615C211.001 124.876 212.683 127.924 214.829 130.633C219.239 136.37 225.421 140.488 232.413 142.347L230.475 154.087C230.366 154.746 230.388 155.419 230.54 156.069C230.691 156.719 230.969 157.333 231.358 157.876C231.746 158.418 232.238 158.879 232.805 159.231C233.371 159.584 234.002 159.822 234.66 159.93C235.319 160.039 235.992 160.017 236.642 159.866C237.292 159.715 237.906 159.437 238.448 159.048C238.991 158.659 239.452 158.168 239.804 157.601C240.157 157.034 240.394 156.404 240.503 155.745L242.463 143.859C245.387 143.921 248.305 143.6 251.145 142.903C255.52 141.857 259.635 139.926 263.235 137.229C266.793 134.542 269.822 131.219 272.171 127.429C274.635 123.454 276.278 119.025 277.001 114.403C278.14 107.836 277.531 101.085 275.235 94.8274C272.939 88.5607 267.768 83.0567 259.721 78.3154L253.871 74.7754L257.967 49.9534C258.717 50.5174 259.403 51.1604 260.015 51.8714C261.513 53.6734 262.359 55.9286 262.415 58.2714C262.47 59.1533 262.823 59.9903 263.416 60.6447C264.01 61.2991 264.809 61.7317 265.681 61.8714L279.917 64.2214C280.459 64.3128 281.014 64.289 281.546 64.1517C282.078 64.0143 282.576 63.7665 283.006 63.4242C283.436 63.082 283.789 62.653 284.042 62.1653C284.295 61.6776 284.443 61.142 284.475 60.5934C284.634 57.459 284.375 54.3175 283.705 51.2514C282.806 47.0125 281.102 42.9852 278.687 39.3874C276.292 35.8688 273.179 32.8981 269.551 30.6714C267.11 29.1592 264.48 27.9757 261.729 27.1514L263.447 16.7234C263.556 16.0648 263.534 15.3913 263.382 14.7412C263.231 14.0911 262.953 13.4773 262.564 12.9347C262.175 12.3922 261.683 11.9315 261.116 11.579C260.55 11.2265 259.919 10.9891 259.26 10.8804C258.602 10.7717 257.928 10.7937 257.278 10.9453C256.628 11.0968 256.014 11.375 255.472 11.7638C254.376 12.549 253.637 13.7373 253.417 15.0674L251.693 25.5214C248.924 25.435 246.155 25.6774 243.443 26.2434C239.202 27.1173 235.191 28.871 231.669 31.3914C227.982 33.9106 224.84 37.1462 222.429 40.9054C219.898 44.8529 218.218 49.2844 217.495 53.9174C216.119 60.9243 217.174 68.1909 220.485 74.5174C224.004 80.8137 229.232 85.9867 235.565 89.4394L240.667 92.3334L236.047 120.333C234.132 119.475 232.605 117.933 231.765 116.009C231.059 114.38 230.551 112.672 230.253 110.921C230.041 109.658 229.44 108.491 228.535 107.585C227.629 106.678 226.463 106.076 225.199 105.863L220.931 105.161L214.917 104.161C214.024 104.016 213.11 104.069 212.24 104.316C211.37 104.564 210.565 105 209.883 105.594C209.2 106.187 208.657 106.924 208.291 107.752C207.925 108.579 207.747 109.477 207.767 110.381C207.808 113.165 208.192 115.933 208.909 118.623C209.185 119.649 209.501 120.645 209.853 121.615Z" stroke="#012C10" stroke-width="1.374" stroke-linecap="round" stroke-linejoin="round"/>
<path d="M239.798 63.7617C239.087 61.6788 238.896 59.4534 239.242 57.2798C239.699 54.3283 241.217 51.6447 243.51 49.7318C244.799 48.6218 246.364 47.8828 248.04 47.5938L244.5 69.0338C242.423 67.808 240.779 65.9652 239.798 63.7617Z" stroke="#012C10" stroke-width="1.374" stroke-linecap="round" stroke-linejoin="round"/>
<path d="M249.734 119.778C248.622 120.433 247.43 120.941 246.188 121.29L250.021 98.0703C251.681 99.3161 253.057 100.9 254.058 102.718C255.36 105.367 255.763 108.369 255.205 111.268C255.011 113.013 254.416 114.688 253.467 116.165C252.518 117.641 251.24 118.878 249.734 119.778Z" stroke="#012C10" stroke-width="1.374" stroke-linecap="round" stroke-linejoin="round"/>
</svg>
