<svg width="203" height="123" viewBox="0 0 203 123" fill="none" xmlns="http://www.w3.org/2000/svg">
<g clip-path="url(#clip0_7913_12453)">
<path d="M19.8053 106.724V119.854C17.662 121.031 13.6269 122.101 10.0228 122.101C3.01821 122.101 0.144531 118.881 0.144531 114.628C0.144531 109.943 4.23953 107.3 9.59176 107.3C12.1182 107.3 14.3094 107.793 15.9618 108.478V106.724C15.9618 103.252 13.7227 101.402 9.68755 101.402C6.90966 101.402 4.57479 102.423 3.1619 103.504C2.04835 102.964 1.36585 101.943 1.16229 100.873C2.62308 99.4078 5.98768 97.75 9.87913 97.75C15.375 97.75 19.8053 100.285 19.8053 106.736V106.724ZM10.0707 118.593C12.4056 118.593 14.4531 118.196 15.9618 117.668V112.058C14.1178 111.181 11.9266 110.784 9.59176 110.784C6.43071 110.784 4.19163 111.805 4.19163 114.448C4.19163 116.935 6.14334 118.605 10.0827 118.605L10.0707 118.593Z" fill="white"/>
<path d="M60.3503 106.628V121.428C59.7157 121.572 59.0332 121.62 58.4105 121.62C57.728 121.62 57.0455 121.572 56.4109 121.428V108.298C56.4109 104.585 54.9022 101.414 50.2804 101.414C47.5504 101.414 45.7065 102.687 44.3894 103.901C44.6288 104.778 44.7845 105.703 44.7845 106.64V121.44C44.1499 121.584 43.4674 121.632 42.8448 121.632C42.1623 121.632 41.4798 121.584 40.8452 121.44V108.31C40.8452 104.597 39.3365 101.426 34.7146 101.426C32.715 101.426 30.5837 102.063 29.1229 102.988V121.44C28.4883 121.584 27.7579 121.632 27.1233 121.632C26.4887 121.632 25.8541 121.584 25.1836 121.44V101.27C27.279 99.4198 31.2662 97.75 35.3013 97.75C38.6659 97.75 41.1924 99.0234 42.7969 100.97C44.7965 99.2156 47.8138 97.75 50.8791 97.75C56.9617 97.75 60.3742 102.003 60.3742 106.64L60.3503 106.628Z" fill="white"/>
<path d="M85.852 111.069H68.8135C69.1009 115.322 72.0224 118.493 76.2132 118.493C80.0089 118.493 81.757 117.076 83.0262 116.102C83.9961 116.595 84.9301 117.76 85.1695 118.781C83.3256 120.343 80.4519 122.097 76.1653 122.097C69.4481 122.097 64.7305 117.364 64.7305 109.988C64.7305 102.612 69.5918 97.7344 75.8301 97.7344C81.7211 97.7344 86.0556 101.987 86.0556 107.934C86.0556 109.159 86.0077 109.735 85.864 111.057L85.852 111.069ZM81.9606 107.801C81.9606 104.678 80.3082 101.254 75.8301 101.254C71.8428 101.254 69.3044 104.233 68.8734 107.801H81.9606Z" fill="white"/>
<path d="M111.165 107.117V121.424C110.531 121.568 109.8 121.616 109.166 121.616C108.531 121.616 107.896 121.568 107.214 121.424V108.486C107.214 103.453 104.927 101.41 100.497 101.41C97.9223 101.41 95.6353 102.239 94.3182 103.02V121.424C93.6836 121.568 92.9532 121.616 92.3186 121.616C91.684 121.616 91.0494 121.568 90.3789 121.424V101.254C92.618 99.4042 96.5573 97.7344 100.892 97.7344C108.052 97.7344 111.165 102.131 111.165 107.105V107.117Z" fill="white"/>
<path d="M132.621 119.624C131.4 120.742 129.017 122.063 126.192 122.063C121.57 122.063 118.205 119.865 118.205 114.351V101.653H114.266C114.122 101.064 114.074 100.632 114.074 100.043C114.074 99.5023 114.122 99.0218 114.266 98.4812H118.205V92.4266C118.84 92.2824 119.474 92.2344 120.157 92.2344C120.791 92.2344 121.426 92.2824 122.061 92.4266V98.4812H131.161C131.304 99.0218 131.352 99.5023 131.352 100.043C131.352 100.632 131.304 101.064 131.161 101.653H122.061V113.57C122.061 117.714 124.012 118.603 126.491 118.603C128.347 118.603 130.143 117.474 130.873 116.849C131.843 117.534 132.43 118.603 132.621 119.636V119.624Z" fill="#ACFEC1"/>
<path d="M155.11 111.069H138.071C138.359 115.322 141.28 118.493 145.471 118.493C149.267 118.493 151.015 117.076 152.284 116.102C153.254 116.595 154.176 117.76 154.427 118.781C152.583 120.343 149.71 122.097 145.423 122.097C138.706 122.097 133.988 117.364 133.988 109.988C133.988 102.612 138.85 97.7344 145.088 97.7344C150.979 97.7344 155.313 101.987 155.313 107.934C155.313 109.159 155.265 109.735 155.122 111.057L155.11 111.069ZM151.218 107.801C151.218 104.678 149.566 101.254 145.088 101.254C141.101 101.254 138.562 104.233 138.131 107.801H151.218Z" fill="#ACFEC1"/>
<path d="M158.316 109.955C158.316 102.723 163.477 97.75 170.194 97.75C173.595 97.75 176.325 99.0714 177.786 100.429C177.45 101.606 176.72 102.627 175.547 103.312C174.182 102.243 172.529 101.306 170.194 101.306C164.746 101.306 162.316 105.498 162.316 109.943C162.316 114.388 164.746 118.485 170.194 118.485C173.403 118.485 175.008 117.019 175.894 116.334C176.959 116.923 177.738 117.848 178.133 119.073C176.672 120.587 173.655 122.101 170.194 122.101C163.238 122.101 158.316 117.56 158.316 109.943V109.955Z" fill="#ACFEC1"/>
<path d="M202.8 107.161V121.421C202.165 121.565 201.435 121.613 200.8 121.613C200.166 121.613 199.531 121.565 198.861 121.421V108.579C198.861 104.819 197.496 101.503 192.143 101.503C190.096 101.503 187.809 102.188 186.061 103.209V121.421C185.426 121.565 184.744 121.613 184.109 121.613C183.474 121.613 182.792 121.565 182.109 121.421V89.286C182.792 89.1418 183.474 89.0938 184.109 89.0938C184.744 89.0938 185.426 89.1418 186.061 89.286V99.5452C187.953 98.476 190.096 97.7432 192.874 97.7432C199.783 97.7432 202.8 102.38 202.8 107.161Z" fill="#ACFEC1"/>
<path d="M101.48 77.876C88.2375 77.876 77.4492 67.0642 77.4492 53.7656H84.837C84.837 62.9677 92.2966 70.4519 101.468 70.4519C110.64 70.4519 118.1 62.9677 118.1 53.7656H125.488C125.488 67.0521 114.711 77.876 101.456 77.876H101.48Z" fill="#ACFEC1"/>
<path d="M105.167 61.1948H97.7789V35.2345H117.691C116.003 27.8104 109.369 22.2483 101.467 22.2483C92.295 22.2483 84.8354 29.7325 84.8354 38.9345V42.6466H62.6602V38.9345C62.6602 17.4671 80.0699 0 101.479 0C122.888 0 140.297 17.4671 140.297 38.9465V42.6586H132.91V38.9465C132.91 21.5636 118.817 7.42411 101.491 7.42411C85.4101 7.42411 72.1194 19.5934 70.2874 35.2345H77.747C79.5311 23.6899 89.4932 14.8362 101.491 14.8362C114.734 14.8362 125.522 25.648 125.522 38.9465V42.6586H105.191V61.2069L105.167 61.1948Z" fill="#ACFEC1"/>
</g>
<defs>
<clipPath id="clip0_7913_12453">
<rect width="202.654" height="122.101" fill="white" transform="translate(0.144531)"/>
</clipPath>
</defs>
</svg>
