<svg width="47" height="48" viewBox="0 0 47 48" fill="none" xmlns="http://www.w3.org/2000/svg">
<rect y="0.734375" width="47" height="47" rx="23.5" fill="#ECFFF1"/>
<path d="M9.88628 33.5207V19.6259C9.51493 19.3989 9.21578 19.1204 8.98885 18.7903C8.76191 18.4602 8.64844 18.0875 8.64844 17.6722C8.64844 17.2571 8.8599 16.7517 9.28283 16.1559C9.70576 15.5603 10.2164 14.9736 10.8147 14.396C11.413 14.9736 11.9236 15.5603 12.3465 16.1559C12.7694 16.7517 12.9809 17.2571 12.9809 17.6722C12.9809 18.0875 12.8674 18.4602 12.6405 18.7903C12.4136 19.1204 12.1144 19.3989 11.7431 19.6259V25.4747H15.1471V22.3182C15.1471 21.823 15.338 21.3795 15.7196 20.9875C16.1013 20.5955 16.5913 20.3995 17.1896 20.3995C16.9214 19.9457 16.7203 19.5021 16.5861 19.0688C16.452 18.6356 16.385 18.2166 16.385 17.8118C16.385 17.0406 16.5655 16.3198 16.9265 15.6493C17.2876 14.9788 17.7879 14.4372 18.4274 14.0246L22.4814 11.3013C22.782 11.0744 23.1202 10.9609 23.4961 10.9609C23.8718 10.9609 24.2144 11.0744 24.5238 11.3013L28.5778 14.0246C29.2173 14.4372 29.7177 14.9788 30.0787 15.6493C30.4397 16.3198 30.6202 17.0406 30.6202 17.8118C30.6202 18.2166 30.5532 18.6356 30.4191 19.0688C30.285 19.5021 30.0838 19.9457 29.8156 20.3995C30.4139 20.3995 30.9039 20.5955 31.2856 20.9875C31.6673 21.3795 31.8581 21.823 31.8581 22.3182V25.4747H35.2622V19.6259C34.8908 19.3989 34.5917 19.1204 34.3647 18.7903C34.1378 18.4602 34.0243 18.0875 34.0243 17.6722C34.0243 17.2571 34.2358 16.7517 34.6587 16.1559C35.0816 15.5603 35.5922 14.9736 36.1905 14.396C36.7889 14.9736 37.2995 15.5603 37.7224 16.1559C38.1453 16.7517 38.3568 17.2571 38.3568 17.6722C38.3568 18.0875 38.2433 18.4602 38.0164 18.7903C37.7894 19.1204 37.4903 19.3989 37.1189 19.6259V33.5207C37.1189 34.0313 36.9371 34.4684 36.5737 34.8319C36.2099 35.1956 35.7728 35.3775 35.2622 35.3775H25.9783C25.7153 35.3775 25.4948 35.2885 25.317 35.1104C25.1389 34.9326 25.0499 34.7121 25.0499 34.4491V30.4261C25.0499 29.9877 24.9022 29.6201 24.6068 29.3235C24.3111 29.027 23.945 28.8788 23.5082 28.8788C23.0712 28.8788 22.7031 29.027 22.404 29.3235C22.1049 29.6201 21.9553 29.9877 21.9553 30.4261V34.4491C21.9553 34.7121 21.8664 34.9326 21.6885 35.1104C21.5105 35.2885 21.29 35.3775 21.0269 35.3775H11.7431C11.2324 35.3775 10.7954 35.1956 10.4319 34.8319C10.0681 34.4684 9.88628 34.0313 9.88628 33.5207ZM20.9031 20.4614H26.1021C26.8491 20.4614 27.4795 20.2061 27.9932 19.6955C28.5067 19.1849 28.7635 18.5582 28.7635 17.8155C28.7635 17.3513 28.6551 16.9232 28.4385 16.5313C28.2219 16.1393 27.9404 15.8238 27.594 15.5849L23.5026 12.8487L19.4112 15.5849C19.0648 15.8238 18.7833 16.1393 18.5667 16.5313C18.3501 16.9232 18.2418 17.3513 18.2418 17.8155C18.2418 18.5582 18.4985 19.1849 19.012 19.6955C19.5257 20.2061 20.1561 20.4614 20.9031 20.4614ZM11.7431 33.5207H20.0985V30.4261C20.0985 29.4806 20.4298 28.6768 21.0925 28.0148C21.7552 27.3529 22.5598 27.022 23.5063 27.022C24.4528 27.022 25.2562 27.3529 25.9164 28.0148C26.5766 28.6768 26.9067 29.4806 26.9067 30.4261V33.5207H35.2622V27.3315H31.8581C31.3475 27.3315 30.9104 27.1496 30.5469 26.7859C30.1831 26.4224 30.0013 25.9853 30.0013 25.4747V22.3182H17.0039V25.4747C17.0039 25.9853 16.8221 26.4224 16.4586 26.7859C16.0949 27.1496 15.6577 27.3315 15.1471 27.3315H11.7431V33.5207Z" fill="#037B2D"/>
</svg>
