<svg width="71" height="71" viewBox="0 0 71 71" fill="none" xmlns="http://www.w3.org/2000/svg">
<rect x="0.835938" y="0.734375" width="69.9999" height="70" rx="35" fill="#EEFFF3"/>
<path d="M36.9825 40.3572L30.0625 41.603L31.2158 34.5897L44.433 21.4168C44.6474 21.2006 44.9026 21.0289 45.1837 20.9118C45.4647 20.7947 45.7662 20.7344 46.0707 20.7344C46.3753 20.7344 46.6767 20.7947 46.9578 20.9118C47.2389 21.0289 47.494 21.2006 47.7085 21.4168L50.1535 23.8622C50.3697 24.0767 50.5413 24.3318 50.6584 24.613C50.7756 24.8941 50.8358 25.1956 50.8358 25.5002C50.8358 25.8047 50.7756 26.1063 50.6584 26.3874C50.5413 26.6685 50.3697 26.9237 50.1535 27.1381L36.9825 40.3572Z" stroke="#037B2D" stroke-width="1.71429" stroke-linecap="round" stroke-linejoin="round"/>
<path d="M47.3626 41.5056V48.4266C47.3626 49.0385 47.1195 49.6253 46.687 50.0579C46.2544 50.4906 45.6677 50.7336 45.0559 50.7336H23.1426C22.5308 50.7336 21.9441 50.4906 21.5115 50.0579C21.079 49.6253 20.8359 49.0385 20.8359 48.4266V26.5101C20.8359 25.8983 21.079 25.3115 21.5115 24.8788C21.9441 24.4462 22.5308 24.2031 23.1426 24.2031H30.0626" stroke="#037B2D" stroke-width="1.71429" stroke-linecap="round" stroke-linejoin="round"/>
</svg>
