<svg width="47" height="48" viewBox="0 0 47 48" fill="none" xmlns="http://www.w3.org/2000/svg">
<rect y="0.734375" width="47" height="47" rx="23.5" fill="#ECFFF1"/>
<path d="M23.5001 35.1328C21.6149 34.6438 19.8472 33.7809 18.3022 32.5953C16.7571 31.4096 15.4661 29.9255 14.5059 28.2311C13.5458 26.5367 12.936 24.6666 12.7129 22.7318C12.4897 20.7971 12.6578 18.8372 13.2071 16.9688C16.9798 17.1414 20.6715 15.8384 23.5001 13.3359C26.3286 15.8384 30.0203 17.1414 33.793 16.9688C34.3699 18.9323 34.5259 20.9955 34.2508 23.0234" stroke="#037B2D" stroke-width="2" stroke-linecap="round" stroke-linejoin="round"/>
<path d="M30.7658 36.3433L34.8224 32.3666C35.0712 32.1252 35.2691 31.8364 35.4044 31.5172C35.5397 31.1981 35.6097 30.8551 35.6103 30.5085C35.6108 30.1618 35.5419 29.8186 35.4077 29.499C35.2734 29.1794 35.0764 28.89 34.8285 28.6478C34.3225 28.1529 33.6432 27.8752 32.9354 27.8739C32.2277 27.8725 31.5473 28.1476 31.0394 28.6405L30.7682 28.9069L30.4982 28.6405C29.9922 28.146 29.3132 27.8685 28.6057 27.8672C27.8982 27.8658 27.2182 28.1407 26.7103 28.6333C26.4615 28.8746 26.2635 29.1633 26.1281 29.4824C25.9927 29.8015 25.9226 30.1445 25.9219 30.4911C25.9212 30.8378 25.99 31.181 26.1242 31.5006C26.2583 31.8203 26.4552 32.1098 26.7031 32.352L30.7658 36.3433Z" stroke="#037B2D" stroke-width="2" stroke-linecap="round" stroke-linejoin="round"/>
</svg>
