<svg width="43" height="43" viewBox="0 0 43 43" fill="none" xmlns="http://www.w3.org/2000/svg">
<circle cx="21.5" cy="21.5" r="21.5" fill="white"/>
<path d="M30.5 14H12.5C12.1022 14 11.7206 14.158 11.4393 14.4393C11.158 14.7206 11 15.1022 11 15.5V27.5C11 27.8978 11.158 28.2794 11.4393 28.5607C11.7206 28.842 12.1022 29 12.5 29H30.5C30.8978 29 31.2794 28.842 31.5607 28.5607C31.842 28.2794 32 27.8978 32 27.5V15.5C32 15.1022 31.842 14.7206 31.5607 14.4393C31.2794 14.158 30.8978 14 30.5 14ZM28.85 15.5L21.5 20.585L14.15 15.5H28.85ZM12.5 27.5V16.1825L21.0725 22.115C21.198 22.2021 21.3472 22.2488 21.5 22.2488C21.6528 22.2488 21.802 22.2021 21.9275 22.115L30.5 16.1825V27.5H12.5Z" fill="#01210C"/>
</svg>
