<svg width="71" height="71" viewBox="0 0 71 71" fill="none" xmlns="http://www.w3.org/2000/svg">
<rect x="0.164062" y="0.234375" width="69.9993" height="70" rx="34.9996" fill="#EEFFF3"/>
<path d="M50.1653 43.3125V47.9283C50.1653 48.5404 49.9221 49.1275 49.4894 49.5603C49.0566 49.9931 48.4696 50.2363 47.8576 50.2363H43.2422" stroke="#037B2D" stroke-width="1.71429" stroke-linecap="round" stroke-linejoin="round"/>
<path d="M43.2422 20.2344H47.8576C48.4696 20.2344 49.0566 20.4775 49.4894 20.9104C49.9221 21.3432 50.1653 21.9302 50.1653 22.5423V27.1581" stroke="#037B2D" stroke-width="1.71429" stroke-linecap="round" stroke-linejoin="round"/>
<path d="M20.1641 27.1581V22.5423C20.1641 21.9302 20.4072 21.3432 20.84 20.9104C21.2727 20.4775 21.8597 20.2344 22.4718 20.2344H27.0871" stroke="#037B2D" stroke-width="1.71429" stroke-linecap="round" stroke-linejoin="round"/>
<path d="M27.0871 50.2363H22.4718C21.8597 50.2363 21.2727 49.9931 20.84 49.5603C20.4072 49.1275 20.1641 48.5404 20.1641 47.9283V43.3125" stroke="#037B2D" stroke-width="1.71429" stroke-linecap="round" stroke-linejoin="round"/>
<path d="M35.1623 34.0833C37.7113 34.0833 39.7776 32.0167 39.7776 29.4674C39.7776 26.9181 37.7113 24.8516 35.1623 24.8516C32.6133 24.8516 30.5469 26.9181 30.5469 29.4674C30.5469 32.0167 32.6133 34.0833 35.1623 34.0833Z" stroke="#037B2D" stroke-width="1.71429" stroke-linecap="round" stroke-linejoin="round"/>
<path d="M42.4596 43.3079C41.8034 41.9297 40.7701 40.7656 39.4794 39.9507C38.1888 39.1357 36.6937 38.7031 35.1673 38.7031C33.6409 38.7031 32.1458 39.1357 30.8552 39.9507C29.5646 40.7656 28.5312 41.9297 27.875 43.3079" stroke="#037B2D" stroke-width="1.71429" stroke-linecap="round" stroke-linejoin="round"/>
</svg>
