<svg width="40" height="41" viewBox="0 0 40 41" fill="none" xmlns="http://www.w3.org/2000/svg">
<path d="M20 14.4844V20.7344L23.125 23.8594" stroke="#00200B" stroke-width="2" stroke-linecap="round" stroke-linejoin="round"/>
<path d="M6.01562 19.1687C6.36577 15.7313 7.96916 12.5431 10.5199 10.2124C13.0706 7.88168 16.3901 6.57163 19.8451 6.53217C23.3001 6.49271 26.6487 7.7266 29.252 9.99843C31.8553 12.2703 33.5311 15.421 33.9596 18.8495C34.3882 22.278 33.5395 25.7443 31.5756 28.5871C29.6116 31.4298 26.6698 33.45 23.3114 34.2622C19.953 35.0744 16.4131 34.6218 13.3672 32.9907C10.3212 31.3596 7.98238 28.6641 6.79688 25.4187M6.01562 33.2312V25.4187H13.8281" stroke="#00200B" stroke-width="2" stroke-linecap="round" stroke-linejoin="round"/>
</svg>
