<svg width="40" height="41" viewBox="0 0 40 41" fill="none" xmlns="http://www.w3.org/2000/svg">
<path d="M20 30.8906L15.3125 28.5469L5.9375 33.2344V12.9219L15.3125 8.23438L24.6875 12.9219L34.0625 8.23438V19.9531" stroke="#00200B" stroke-width="2" stroke-linecap="round" stroke-linejoin="round"/>
<path d="M15.3125 8.23438V28.5469" stroke="#00200B" stroke-width="2" stroke-linecap="round" stroke-linejoin="round"/>
<path d="M24.6875 12.9219V21.5156" stroke="#00200B" stroke-width="2" stroke-linecap="round" stroke-linejoin="round"/>
<path d="M34.2516 33.4244C34.9073 32.7689 35.3538 31.9337 35.5348 31.0244C35.7158 30.1151 35.6231 29.1725 35.2683 28.3159C34.9136 27.4593 34.3128 26.7271 33.5419 26.212C32.771 25.6968 31.8647 25.4219 30.9375 25.4219C30.0103 25.4219 29.104 25.6968 28.3331 26.212C27.5622 26.7271 26.9614 27.4593 26.6067 28.3159C26.2519 29.1725 26.1592 30.1151 26.3402 31.0244C26.5212 31.9337 26.9677 32.7689 27.6234 33.4244C28.2766 34.0791 29.3813 35.0573 30.9375 36.3604C32.5797 34.9698 33.6859 33.9916 34.2516 33.4244Z" stroke="#00200B" stroke-width="2" stroke-linecap="round" stroke-linejoin="round"/>
<path d="M30.9375 30.1094V30.124" stroke="#00200B" stroke-width="2" stroke-linecap="round" stroke-linejoin="round"/>
</svg>
