<svg width="71" height="71" viewBox="0 0 71 71" fill="none" xmlns="http://www.w3.org/2000/svg">
<rect x="0.5" y="0.734375" width="70" height="70" rx="35" fill="#EEFFF3"/>
<path d="M48.1923 20.7344H22.8077C21.5332 20.7344 20.5 21.7676 20.5 23.0421V48.4267C20.5 49.7012 21.5332 50.7344 22.8077 50.7344H48.1923C49.4668 50.7344 50.5 49.7012 50.5 48.4267V23.0421C50.5 21.7676 49.4668 20.7344 48.1923 20.7344Z" stroke="#037B2D" stroke-width="1.71429" stroke-linecap="round" stroke-linejoin="round"/>
<path d="M32.0156 43.9501V35.1117C32.0221 34.9759 32.0618 34.8437 32.1312 34.7268C32.2007 34.6099 32.2977 34.5118 32.4139 34.4412C32.5301 34.3705 32.6619 34.3295 32.7977 34.3217C32.9334 34.3139 33.069 34.3395 33.1925 34.3963L40.8541 38.804C40.9782 38.8804 41.0806 38.9874 41.1517 39.1146C41.2227 39.2419 41.26 39.3852 41.26 39.5309C41.26 39.6766 41.2227 39.82 41.1517 39.9472C41.0806 40.0744 40.9782 40.1814 40.8541 40.2578L33.1925 44.6886C33.0669 44.7403 32.9307 44.7612 32.7953 44.7496C32.6599 44.7381 32.5292 44.6943 32.4141 44.6221C32.299 44.5499 32.2028 44.4513 32.1335 44.3344C32.0642 44.2175 32.0238 44.0858 32.0156 43.9501V43.9501Z" stroke="#037B2D" stroke-width="1.71429" stroke-linecap="round" stroke-linejoin="round"/>
<path d="M20.5 28.8125H50.5" stroke="#037B2D" stroke-width="1.71429" stroke-linecap="round" stroke-linejoin="round"/>
<path d="M28.5781 28.8113L32.0397 20.7344" stroke="#037B2D" stroke-width="1.71429" stroke-linecap="round" stroke-linejoin="round"/>
<path d="M38.9609 28.8113L42.4225 20.7344" stroke="#037B2D" stroke-width="1.71429" stroke-linecap="round" stroke-linejoin="round"/>
</svg>
