<svg width="43" height="43" viewBox="0 0 43 43" fill="none" xmlns="http://www.w3.org/2000/svg">
<circle cx="21.5" cy="21.5" r="21.5" fill="white"/>
<path d="M16.4771 31H12.3307V17.6471H16.4771V31ZM14.4014 15.8257C13.0757 15.8257 12 14.7271 12 13.4014C12 12.7645 12.253 12.1537 12.7034 11.7034C13.1537 11.253 13.7645 11 14.4014 11C15.0383 11 15.6491 11.253 16.0995 11.7034C16.5499 12.1537 16.8029 12.7645 16.8029 13.4014C16.8029 14.7271 15.7271 15.8257 14.4014 15.8257ZM31.9957 31H27.8586V24.5C27.8586 22.9507 27.8271 20.9643 25.7029 20.9643C23.5471 20.9643 23.2164 22.6471 23.2164 24.3886V31H19.0743V17.6471H23.0507V19.4686H23.1086C23.6621 18.4193 25.0143 17.3121 27.0314 17.3121C31.2279 17.3121 31.9993 20.0757 31.9993 23.665V31H31.9957Z" fill="#01210C"/>
</svg>
