<svg width="47" height="47" viewBox="0 0 47 47" fill="none" xmlns="http://www.w3.org/2000/svg">
<rect width="47" height="47" rx="8" fill="#ECFFF1"/>
<path d="M28.3438 33.1875V13.8125C28.3438 13.1702 28.0886 12.5542 27.6344 12.1C27.1802 11.6458 26.5642 11.3906 25.9219 11.3906H21.0781C20.4358 11.3906 19.8198 11.6458 19.3656 12.1C18.9114 12.5542 18.6562 13.1702 18.6562 13.8125V33.1875" stroke="#01230C" stroke-width="2" stroke-linecap="round" stroke-linejoin="round"/>
<path d="M13.8125 16.2344H33.1875C33.1875 16.2344 35.6094 16.2344 35.6094 18.6562V30.7656C35.6094 30.7656 35.6094 33.1875 33.1875 33.1875H13.8125C13.8125 33.1875 11.3906 33.1875 11.3906 30.7656V18.6562C11.3906 18.6562 11.3906 16.2344 13.8125 16.2344Z" stroke="#01230C" stroke-width="2" stroke-linecap="round" stroke-linejoin="round"/>
</svg>
