<svg width="71" height="71" viewBox="0 0 71 71" fill="none" xmlns="http://www.w3.org/2000/svg">
<rect x="0.5" y="0.234375" width="69.9988" height="70" rx="34.9994" fill="#EEFFF3"/>
<path d="M47.0385 36.3857V31.7692C47.0385 31.157 46.7953 30.5699 46.3626 30.137C45.9298 29.7041 45.3428 29.4609 44.7308 29.4609H22.8077C22.1957 29.4609 21.6087 29.7041 21.1759 30.137C20.7431 30.5699 20.5 31.157 20.5 31.7692V47.9271C20.5 48.5393 20.7431 49.1264 21.1759 49.5593C21.6087 49.9922 22.1957 50.2354 22.8077 50.2354H44.7308C45.3428 50.2354 45.9298 49.9922 46.3626 49.5593C46.7953 49.1264 47.0385 48.5393 47.0385 47.9271V42.1564" stroke="#037B2D" stroke-width="2" stroke-linecap="round" stroke-linejoin="round"/>
<path d="M28.2109 23.693L41.2956 20.2768C41.4426 20.2353 41.5965 20.2241 41.748 20.2438C41.8995 20.2635 42.0454 20.3137 42.1769 20.3914C42.3085 20.469 42.4229 20.5725 42.5134 20.6957C42.6039 20.8188 42.6684 20.959 42.7032 21.1077L43.3494 23.693" stroke="#037B2D" stroke-width="2" stroke-linecap="round" stroke-linejoin="round"/>
<path d="M49.345 36.3906H43.5757C42.9385 36.3906 42.4219 36.9073 42.4219 37.5448V41.0072C42.4219 41.6446 42.9385 42.1613 43.5757 42.1613H49.345C49.9822 42.1613 50.4988 41.6446 50.4988 41.0072V37.5448C50.4988 36.9073 49.9822 36.3906 49.345 36.3906Z" stroke="#037B2D" stroke-width="2" stroke-linecap="round" stroke-linejoin="round"/>
</svg>
