<svg width="71" height="71" viewBox="0 0 71 71" fill="none" xmlns="http://www.w3.org/2000/svg">
<rect x="0.5" y="0.734375" width="70.0015" height="70" rx="35" fill="#EEFFF3"/>
<path d="M33.198 50.7353C34.4724 50.7353 35.5055 49.7015 35.5055 48.4263C35.5055 47.151 34.4724 46.1172 33.198 46.1172C31.9237 46.1172 30.8906 47.151 30.8906 48.4263C30.8906 49.7015 31.9237 50.7353 33.198 50.7353Z" stroke="#037B2D" stroke-width="1.71429" stroke-linecap="round" stroke-linejoin="round"/>
<path d="M43.5809 50.7353C44.8552 50.7353 45.8883 49.7015 45.8883 48.4263C45.8883 47.151 44.8552 46.1172 43.5809 46.1172C42.3065 46.1172 41.2734 47.151 41.2734 48.4263C41.2734 49.7015 42.3065 50.7353 43.5809 50.7353Z" stroke="#037B2D" stroke-width="1.71429" stroke-linecap="round" stroke-linejoin="round"/>
<path d="M38.686 27.7395C38.3319 26.316 37.6441 24.9975 36.6795 23.8929C35.715 22.7883 34.5014 21.9296 33.1392 21.3877C31.777 20.8458 30.3055 20.6364 28.8464 20.7768C27.3873 20.9172 25.9826 21.4033 24.7485 22.195C23.5145 22.9866 22.4866 24.0611 21.75 25.3293C21.0134 26.5975 20.5892 28.0231 20.5126 29.488C20.436 30.9529 20.7092 32.415 21.3095 33.7532C21.9098 35.0915 22.82 36.2674 23.9647 37.1836" stroke="#037B2D" stroke-width="1.71429" stroke-linecap="round" stroke-linejoin="round"/>
<path d="M29.7344 30.0105L33.1955 26.5469" stroke="#037B2D" stroke-width="1.71429" stroke-linecap="round" stroke-linejoin="round"/>
<path d="M34.3494 41.52V39.2109H30.8883C29.6643 39.2109 28.4905 39.6975 27.6251 40.5636C26.7596 41.4296 26.2734 42.6043 26.2734 43.8291V48.4473" stroke="#037B2D" stroke-width="1.71429" stroke-linecap="round" stroke-linejoin="round"/>
<path d="M50.5035 48.4248V36.8794C50.5035 36.267 50.2604 35.6797 49.8277 35.2466C49.3949 34.8136 48.808 34.5703 48.1961 34.5703H36.659C36.047 34.5703 35.4601 34.8136 35.0274 35.2466C34.5947 35.6797 34.3516 36.267 34.3516 36.8794V41.4976" stroke="#037B2D" stroke-width="1.71429" stroke-linecap="round" stroke-linejoin="round"/>
</svg>
