<svg width="40" height="41" viewBox="0 0 40 41" fill="none" xmlns="http://www.w3.org/2000/svg">
<path d="M5.9375 22.2969C5.9375 21.8825 6.10212 21.485 6.39515 21.192C6.68817 20.899 7.0856 20.7344 7.5 20.7344H13.75C14.1644 20.7344 14.5618 20.899 14.8549 21.192C15.1479 21.485 15.3125 21.8825 15.3125 22.2969V31.6719C15.3125 32.0863 15.1479 32.4837 14.8549 32.7767C14.5618 33.0698 14.1644 33.2344 13.75 33.2344H7.5C7.0856 33.2344 6.68817 33.0698 6.39515 32.7767C6.10212 32.4837 5.9375 32.0863 5.9375 31.6719V22.2969Z" stroke="#00200B" stroke-width="2" stroke-linecap="round" stroke-linejoin="round"/>
<path d="M15.3125 16.0469C15.3125 15.6325 15.4771 15.235 15.7701 14.942C16.0632 14.649 16.4606 14.4844 16.875 14.4844H23.125C23.5394 14.4844 23.9368 14.649 24.2299 14.942C24.5229 15.235 24.6875 15.6325 24.6875 16.0469V31.6719C24.6875 32.0863 24.5229 32.4837 24.2299 32.7767C23.9368 33.0698 23.5394 33.2344 23.125 33.2344H16.875C16.4606 33.2344 16.0632 33.0698 15.7701 32.7767C15.4771 32.4837 15.3125 32.0863 15.3125 31.6719V16.0469Z" stroke="#00200B" stroke-width="2" stroke-linecap="round" stroke-linejoin="round"/>
<path d="M24.6875 9.79688C24.6875 9.38247 24.8521 8.98505 25.1451 8.69202C25.4382 8.399 25.8356 8.23438 26.25 8.23438H32.5C32.9144 8.23438 33.3118 8.399 33.6049 8.69202C33.8979 8.98505 34.0625 9.38247 34.0625 9.79688V31.6719C34.0625 32.0863 33.8979 32.4837 33.6049 32.7767C33.3118 33.0698 32.9144 33.2344 32.5 33.2344H26.25C25.8356 33.2344 25.4382 33.0698 25.1451 32.7767C24.8521 32.4837 24.6875 32.0863 24.6875 31.6719V9.79688Z" stroke="#00200B" stroke-width="2" stroke-linecap="round" stroke-linejoin="round"/>
<path d="M7.5 33.2344H29.375" stroke="#00200B" stroke-linecap="round" stroke-linejoin="round"/>
</svg>
