<svg width="47" height="47" viewBox="0 0 47 47" fill="none" xmlns="http://www.w3.org/2000/svg">
<rect width="47" height="47" rx="8" fill="#ECFFF1"/>
<path d="M31.9766 29.5547H34.3984C35.125 29.5547 35.6094 29.0703 35.6094 28.3438V24.7109C35.6094 23.6211 34.7617 22.6523 33.793 22.4102C31.6133 21.8047 28.3438 21.0781 28.3438 21.0781C28.3438 21.0781 26.7695 19.3828 25.6797 18.293C25.0742 17.8086 24.3477 17.4453 23.5 17.4453H15.0234C14.2969 17.4453 13.6914 17.9297 13.3281 18.5352L11.6328 22.0469C11.4725 22.5146 11.3906 23.0056 11.3906 23.5V28.3438C11.3906 29.0703 11.875 29.5547 12.6016 29.5547H15.0234" stroke="#01230C" stroke-width="2.45" stroke-linecap="round" stroke-linejoin="round"/>
<path d="M15.0234 29.5547C15.0234 30.197 15.2786 30.813 15.7328 31.2672C16.187 31.7214 16.803 31.9766 17.4453 31.9766C18.0876 31.9766 18.7036 31.7214 19.1578 31.2672C19.612 30.813 19.8672 30.197 19.8672 29.5547C19.8672 28.9124 19.612 28.2964 19.1578 27.8422C18.7036 27.388 18.0876 27.1328 17.4453 27.1328C16.803 27.1328 16.187 27.388 15.7328 27.8422C15.2786 28.2964 15.0234 28.9124 15.0234 29.5547Z" stroke="#01230C" stroke-width="2.45" stroke-linecap="round" stroke-linejoin="round"/>
<path d="M19.8672 29.5547H27.1328" stroke="#01230C" stroke-width="2.45" stroke-linecap="round" stroke-linejoin="round"/>
<path d="M27.1328 29.5547C27.1328 30.197 27.388 30.813 27.8422 31.2672C28.2964 31.7214 28.9124 31.9766 29.5547 31.9766C30.197 31.9766 30.813 31.7214 31.2672 31.2672C31.7214 30.813 31.9766 30.197 31.9766 29.5547C31.9766 28.9124 31.7214 28.2964 31.2672 27.8422C30.813 27.388 30.197 27.1328 29.5547 27.1328C28.9124 27.1328 28.2964 27.388 27.8422 27.8422C27.388 28.2964 27.1328 28.9124 27.1328 29.5547Z" stroke="#01230C" stroke-width="2.45" stroke-linecap="round" stroke-linejoin="round"/>
</svg>
