<svg width="71" height="71" viewBox="0 0 71 71" fill="none" xmlns="http://www.w3.org/2000/svg">
<rect x="0.835938" y="0.734375" width="70" height="70" rx="35" fill="#EEFFF3"/>
<path d="M36.924 35.4991C36.5818 35.6478 36.2126 35.7245 35.8394 35.7245C35.4663 35.7245 35.0971 35.6478 34.7548 35.4991L21.601 29.4064C21.3874 29.2987 21.2079 29.1338 21.0824 28.93C20.957 28.7263 20.8906 28.4918 20.8906 28.2525C20.8906 28.0133 20.957 27.7787 21.0824 27.575C21.2079 27.3712 21.3874 27.2063 21.601 27.0986L34.7548 20.9597C35.0971 20.8111 35.4663 20.7344 35.8394 20.7344C36.2126 20.7344 36.5818 20.8111 36.924 20.9597L50.0779 27.0524C50.2915 27.1602 50.471 27.3251 50.5964 27.5288C50.7218 27.7326 50.7882 27.9671 50.7882 28.2064C50.7882 28.4456 50.7218 28.6801 50.5964 28.8839C50.471 29.0876 50.2915 29.2525 50.0779 29.3603L36.924 35.4991Z" stroke="#037B2D" stroke-width="1.71429" stroke-linecap="round" stroke-linejoin="round"/>
<path d="M50.8359 36.5391L36.759 43.0241C36.4584 43.1613 36.1318 43.2322 35.8013 43.2322C35.4709 43.2322 35.1443 43.1613 34.8436 43.0241L20.8359 36.5391" stroke="#037B2D" stroke-width="1.71429" stroke-linecap="round" stroke-linejoin="round"/>
<path d="M50.8359 44.0391L36.759 50.5241C36.4584 50.6613 36.1318 50.7322 35.8013 50.7322C35.4709 50.7322 35.1443 50.6613 34.8436 50.5241L20.8359 44.0391" stroke="#037B2D" stroke-width="1.71429" stroke-linecap="round" stroke-linejoin="round"/>
</svg>
