<svg width="27" height="27" viewBox="0 0 27 27" fill="none" xmlns="http://www.w3.org/2000/svg">
<g clip-path="url(#clip0_7893_6707)">
<path fill-rule="evenodd" clip-rule="evenodd" d="M12.862 1.9375C12.4133 1.9375 12.0495 2.30127 12.0495 2.75V8.30208H10.2755L8.34984 6.37646C8.46511 6.09306 8.52865 5.78313 8.52865 5.45833C8.52865 4.11214 7.43735 3.02083 6.09115 3.02083C4.74495 3.02083 3.65365 4.11214 3.65365 5.45833C3.65365 6.80454 4.74495 7.89583 6.09115 7.89583C6.41593 7.89583 6.72587 7.8323 7.00927 7.71703L9.21255 9.92026C9.39033 10.098 9.63142 10.1979 9.88281 10.1979H12.0495V12.6354H5.6291C5.2593 11.7601 4.39279 11.1458 3.38281 11.1458C2.03662 11.1458 0.945312 12.2371 0.945312 13.5833C0.945312 14.9295 2.03662 16.0208 3.38281 16.0208C4.39279 16.0208 5.2593 15.4066 5.6291 14.5312H12.0495V17.5104H9.34115C9.08976 17.5104 8.84866 17.6103 8.67089 17.7881L6.4676 19.9913C6.1842 19.876 5.87426 19.8125 5.54948 19.8125C4.20329 19.8125 3.11198 20.9038 3.11198 22.25C3.11198 23.5962 4.20329 24.6875 5.54948 24.6875C6.89568 24.6875 7.98698 23.5962 7.98698 22.25C7.98698 21.9252 7.92344 21.6153 7.80818 21.3319L9.7338 19.4062H12.0495V24.8861C12.0495 25.3348 12.4133 25.6986 12.862 25.6986H17.4661C17.9149 25.6986 18.2786 25.3348 18.2786 24.8861V22.852L19.8593 23.1186C21.2654 23.3557 22.5739 22.3405 22.6936 20.9196L22.9562 17.8018C23.7677 17.559 24.3864 17.2388 24.8258 16.9547C25.7135 16.3807 25.7194 15.2856 25.2465 14.5856L23.1241 11.444C22.7226 6.12653 18.2818 1.9375 12.862 1.9375Z" fill="url(#paint0_linear_7893_6707)"/>
</g>
<defs>
<linearGradient id="paint0_linear_7893_6707" x1="4.96881" y1="6.507" x2="24.5132" y2="17.7244" gradientUnits="userSpaceOnUse">
<stop stop-color="#FFD600"/>
<stop offset="1" stop-color="#00D078"/>
</linearGradient>
<clipPath id="clip0_7893_6707">
<rect width="26" height="26" fill="white" transform="translate(0.132812 0.585938)"/>
</clipPath>
</defs>
</svg>

