<svg width="27" height="27" viewBox="0 0 27 27" fill="none" xmlns="http://www.w3.org/2000/svg">
<g clip-path="url(#clip0_7893_6724)">
<path fill-rule="evenodd" clip-rule="evenodd" d="M13.4531 1.17969C8.20432 1.17969 5.35238 1.55519 3.84395 1.89207C2.5287 2.18581 1.79203 3.29961 1.66465 4.48192C1.49565 6.05052 1.26562 8.7192 1.26562 11.6339C1.26562 11.9125 1.26773 12.187 1.27168 12.4566C1.34344 17.3562 3.83116 21.9273 8.03115 24.4993C8.96249 25.0697 9.92465 25.5963 10.8338 25.9827C11.7274 26.3626 12.6407 26.638 13.4531 26.638C14.2656 26.638 15.1788 26.3626 16.0725 25.9827C16.9816 25.5963 17.9438 25.0697 18.8751 24.4993C23.0751 21.9273 25.5628 17.3563 25.6346 12.4566C25.6385 12.187 25.6406 11.9125 25.6406 11.6339C25.6406 8.71915 25.4106 6.05052 25.2416 4.48192C25.1142 3.29961 24.3776 2.18581 23.0623 1.89208C21.5539 1.55519 18.7019 1.17969 13.4531 1.17969ZM7.98673 5.57671C9.053 5.39971 10.7554 5.24219 13.4531 5.24219C16.1509 5.24219 17.8532 5.39971 18.9195 5.57671C20.4209 5.82594 21.2631 7.06728 21.3864 8.3675C21.48 9.35403 21.5781 10.7442 21.5781 12.242C21.5781 15.767 19.7842 19.1133 16.6783 20.8919C16.1528 21.1928 15.6071 21.47 15.081 21.6746C14.5697 21.8735 14.0017 22.0339 13.4531 22.0339C12.9046 22.0339 12.3366 21.8735 11.8252 21.6746C11.2991 21.47 10.7535 21.1928 10.228 20.8919C7.12202 19.1133 5.32812 15.767 5.32812 12.242C5.32812 10.7442 5.42628 9.35403 5.51985 8.3675C5.64316 7.06728 6.48534 5.82594 7.98673 5.57671ZM13.4531 7.40885C10.8311 7.40885 9.25456 7.56258 8.34153 7.71414C8.01447 7.76841 7.72852 8.02711 7.67685 8.57208C7.58742 9.51464 7.49479 10.8331 7.49479 12.242C7.49479 15.0451 8.91911 17.6456 11.3047 19.0117C11.7749 19.2809 12.219 19.503 12.6105 19.6553C13.0168 19.8132 13.2943 19.8672 13.4531 19.8672C13.6119 19.8672 13.8895 19.8132 14.2957 19.6553C14.6873 19.503 15.1313 19.2809 15.6015 19.0117C17.9871 17.6456 19.4115 15.0451 19.4115 12.242C19.4115 10.8331 19.3188 9.51464 19.2294 8.57208C19.1777 8.02711 18.8918 7.76841 18.5647 7.71414C17.6517 7.56258 16.0751 7.40885 13.4531 7.40885Z" fill="url(#paint0_linear_7893_6724)"/>
</g>
<defs>
<linearGradient id="paint0_linear_7893_6724" x1="2.20217" y1="3.23694" x2="30.5525" y2="18.5358" gradientUnits="userSpaceOnUse">
<stop stop-color="#00D078"/>
<stop offset="1" stop-color="#007DF0"/>
</linearGradient>
<clipPath id="clip0_7893_6724">
<rect width="26" height="26" fill="white" transform="translate(0.453125 0.90625)"/>
</clipPath>
</defs>
</svg>

