<svg width="22" height="26" viewBox="0 0 22 26" fill="none" xmlns="http://www.w3.org/2000/svg">
<path fill-rule="evenodd" clip-rule="evenodd" d="M7.20505 6.15985C6.90064 5.55941 6.96975 4.85533 7.3356 4.26177C7.5807 3.86414 7.88994 3.38609 8.27772 2.8216C8.71278 2.18825 9.08816 1.7106 9.40444 1.35029C9.82694 0.868942 10.3993 0.585965 11.0156 0.585938C11.6319 0.58591 12.2043 0.868845 12.6269 1.35023C12.9431 1.71056 13.3185 2.18824 13.7535 2.82166C14.1412 3.38598 14.4503 3.86391 14.6953 4.26145C15.0612 4.85508 15.1303 5.55925 14.8259 6.15974C14.5195 6.76413 13.9057 7.12287 13.2002 7.16317C12.8867 7.18105 12.5221 7.19584 12.099 7.20526V13.8859C12.2981 13.8156 12.5066 13.764 12.7227 13.7331L16.5855 13.1813C17.1192 13.105 17.5156 12.6479 17.5156 12.1088V12.0662C16.4678 11.959 15.6739 11.1193 15.6356 10.0491C15.626 9.78316 15.6198 9.47208 15.6198 9.11296C15.6198 8.75383 15.626 8.44275 15.6356 8.1768C15.6756 7.05701 16.543 6.18964 17.6628 6.14955C17.9288 6.14002 18.2398 6.13379 18.599 6.13379C18.9581 6.13379 19.2692 6.14002 19.5351 6.14955C20.6549 6.18964 21.5223 7.05701 21.5624 8.1768C21.5719 8.44275 21.5781 8.75383 21.5781 9.11296C21.5781 9.47208 21.5719 9.78316 21.5624 10.0491C21.524 11.1193 20.7301 11.959 19.6823 12.0662V12.1088C19.6823 13.7262 18.493 15.0974 16.8919 15.3261L13.0291 15.878C12.4958 15.9542 12.0996 16.4106 12.099 16.9491V18.7619C13.5134 19.2189 14.5365 20.5465 14.5365 22.113C14.5365 24.0575 12.9602 25.6338 11.0156 25.6338C9.0711 25.6338 7.49479 24.0575 7.49479 22.113C7.49479 20.5465 8.51784 19.2189 9.93229 18.7619V18.5754C9.93229 18.0363 9.53585 17.5792 9.00214 17.503L5.13935 16.9511C3.64777 16.7381 2.51363 15.5335 2.36541 14.0621C1.24704 13.633 0.453125 12.549 0.453125 11.2796C0.453125 9.63426 1.78694 8.30046 3.43229 8.30046C5.07766 8.30046 6.41146 9.63426 6.41146 11.2796C6.41146 12.5262 5.64581 13.5939 4.55912 14.0383C4.67585 14.4371 5.01634 14.7449 5.44578 14.8063L9.30856 15.3581C9.52463 15.389 9.73318 15.4406 9.93229 15.5109V7.20526C9.50898 7.19584 9.14422 7.18105 8.8306 7.16312C8.12518 7.12287 7.51148 6.76418 7.20505 6.15985Z" fill="url(#paint0_linear_7893_6713)"/>
<defs>
<linearGradient id="paint0_linear_7893_6713" x1="23.409" y1="30.9389" x2="-8.14042" y2="12.038" gradientUnits="userSpaceOnUse">
<stop stop-color="#FFD600"/>
<stop offset="1" stop-color="#FF007A"/>
</linearGradient>
</defs>
</svg>

