<svg width="32" height="33" viewBox="0 0 32 33" fill="none" xmlns="http://www.w3.org/2000/svg">
<circle cx="15.7756" cy="16.3303" r="15.6818" fill="white"/>
<circle cx="15.7756" cy="16.3303" r="15.6818" fill="url(#paint0_linear_7893_6692)" fill-opacity="0.6"/>
<g clip-path="url(#clip0_7893_6692)">
<path fill-rule="evenodd" clip-rule="evenodd" d="M9.63544 8.28652C10.1285 8.21927 10.8376 8.16406 11.8385 8.16406C12.8395 8.16406 13.5486 8.21927 14.0416 8.28652C14.8717 8.39972 15.4035 9.06034 15.4537 9.84706C15.4823 10.2959 15.5052 10.9348 15.5052 11.8307C15.5052 12.7267 15.4823 13.3655 15.4537 13.8144C15.4035 14.6011 14.8717 15.2617 14.0416 15.3749C13.5486 15.4422 12.8395 15.4974 11.8385 15.4974C10.8376 15.4974 10.1285 15.4422 9.63544 15.3749C8.80539 15.2617 8.27357 14.6011 8.22341 13.8144C8.1948 13.3655 8.17188 12.7267 8.17188 11.8307C8.17188 10.9348 8.1948 10.2959 8.22341 9.84707C8.27357 9.06034 8.80539 8.39972 9.63544 8.28652ZM19.4407 8.62554C19.7568 8.04758 20.5869 8.04758 20.903 8.62554L21.5669 9.83943C21.7045 10.0911 21.9115 10.298 22.1632 10.4357L23.3771 11.0996C23.955 11.4157 23.955 12.2458 23.3771 12.5619L22.1632 13.2258C21.9115 13.3634 21.7045 13.5703 21.5669 13.822L20.903 15.0359C20.5869 15.6139 19.7568 15.6139 19.4407 15.0359L18.7768 13.822C18.6392 13.5703 18.4323 13.3634 18.1806 13.2258L16.9667 12.5619C16.3887 12.2458 16.3887 11.4157 16.9667 11.0996L18.1806 10.4357C18.4323 10.298 18.6392 10.0911 18.7768 9.83943L19.4407 8.62554ZM11.8385 23.8307C10.8376 23.8307 10.1285 23.7755 9.63544 23.7083C8.80539 23.5951 8.27357 22.9345 8.22341 22.1477C8.1948 21.6989 8.17188 21.06 8.17188 20.1641C8.17188 19.2681 8.1948 18.6293 8.22341 18.1804C8.27357 17.3937 8.80539 16.7331 9.63544 16.6199C10.1285 16.5526 10.8376 16.4974 11.8385 16.4974C12.8395 16.4974 13.5486 16.5526 14.0416 16.6199C14.8717 16.7331 15.4035 17.3937 15.4537 18.1804C15.4823 18.6293 15.5052 19.2681 15.5052 20.1641C15.5052 21.06 15.4823 21.6989 15.4537 22.1477C15.4035 22.9345 14.8717 23.5951 14.0416 23.7083C13.5486 23.7755 12.8395 23.8307 11.8385 23.8307ZM23.8385 20.1641C23.8385 21.165 23.7833 21.8741 23.7161 22.3672C23.6029 23.1972 22.9423 23.729 22.1555 23.7792C21.7067 23.8078 21.0678 23.8307 20.1719 23.8307C19.2759 23.8307 18.6371 23.8078 18.1882 23.7792C17.4015 23.729 16.7409 23.1972 16.6277 22.3672C16.5604 21.8741 16.5052 21.165 16.5052 20.1641C16.5052 19.1631 16.5604 18.454 16.6277 17.961C16.7409 17.1309 17.4015 16.5991 18.1882 16.5489C18.6371 16.5203 19.2759 16.4974 20.1719 16.4974C21.0678 16.4974 21.7067 16.5203 22.1555 16.5489C22.9423 16.5991 23.6029 17.1309 23.7161 17.961C23.7833 18.454 23.8385 19.1631 23.8385 20.1641Z" fill="url(#paint1_linear_7893_6692)"/>
</g>
<defs>
<linearGradient id="paint0_linear_7893_6692" x1="3.45414" y1="29.2117" x2="50.2192" y2="18.6864" gradientUnits="userSpaceOnUse">
<stop stop-color="#ACFEC1"/>
<stop offset="1" stop-color="#E6FFED"/>
</linearGradient>
<linearGradient id="paint1_linear_7893_6692" x1="23.7855" y1="23.8341" x2="5.23287" y2="13.3977" gradientUnits="userSpaceOnUse">
<stop stop-color="#FF51E3"/>
<stop offset="1" stop-color="#1B4DFF"/>
</linearGradient>
<clipPath id="clip0_7893_6692">
<rect width="16" height="16" fill="white" transform="translate(8 8)"/>
</clipPath>
</defs>
</svg>
