<svg xmlns="http://www.w3.org/2000/svg" width="40" height="41" viewBox="0 0 40 41" fill="none">
  <path
    pathLength="0.5"
    d="M4.98949 29.6186C4.72567 29.3548 4.59375 29.0514 4.59375 28.7084C4.59375 28.3654 4.72567 28.0621 4.98949 27.7982L14.2498 18.5379C14.6983 18.0895 15.2589 17.8586 15.9316 17.8454C16.6044 17.8323 17.165 18.0631 17.6135 18.5379L22.2832 23.2076L33.2847 10.8606C33.4958 10.6232 33.7662 10.4913 34.096 10.4649C34.4258 10.4385 34.7094 10.544 34.9468 10.7815C35.1579 10.9926 35.27 11.2564 35.2832 11.573C35.2964 11.8895 35.1975 12.1666 34.9864 12.404L23.9453 24.8697C23.4968 25.3974 22.9296 25.6679 22.2437 25.681C21.5577 25.6942 20.9773 25.4633 20.5024 24.9885L15.9514 20.4771L6.80988 29.6186C6.54606 29.8825 6.24265 30.0143 5.89968 30.0143C5.55671 30.0143 5.25331 29.8825 4.98949 29.6186Z"
    fill="white" />
</svg>

