<svg width="27" height="27" viewBox="0 0 27 27" fill="none" xmlns="http://www.w3.org/2000/svg">
<g clip-path="url(#clip0_7893_6718)">
<path fill-rule="evenodd" clip-rule="evenodd" d="M18.7338 1.90751C19.2474 0.968329 20.5963 0.968333 21.1099 1.90751L22.1887 3.88008C22.4125 4.28907 22.7487 4.62534 23.1577 4.84902L25.1303 5.92786C26.0695 6.44153 26.0695 7.79039 25.1303 8.30405L23.1577 9.38289C22.7487 9.60655 22.4125 9.94281 22.1887 10.3518L21.1099 12.3244C20.5963 13.2636 19.2474 13.2636 18.7338 12.3244L17.6549 10.3518C17.4312 9.94281 17.095 9.60655 16.686 9.38289L14.7134 8.30405C13.7742 7.79039 13.7742 6.44153 14.7134 5.92786L16.686 4.84902C17.095 4.62534 17.4312 4.28907 17.6549 3.88008L18.7338 1.90751ZM15.5323 3.62785L13.9337 4.50216C11.8675 5.63219 11.8674 8.5997 13.9336 9.72972L15.9062 10.8086C16.0426 10.8831 16.1547 10.9952 16.2292 11.1316L17.3081 13.1041C17.9204 14.2237 19.0722 14.7366 20.1788 14.6429C19.642 16.8449 18.3777 18.7618 16.6566 20.1239C16.5561 20.4829 16.4577 20.8135 16.372 21.0925C16.1168 21.9233 15.4104 22.5597 14.502 22.6545C13.7149 22.7367 12.4139 22.8243 10.4427 22.8243C8.47141 22.8243 7.17049 22.7367 6.38345 22.6545C5.47503 22.5597 4.76859 21.9233 4.5134 21.0925C4.42766 20.8135 4.32934 20.4829 4.22882 20.1239C1.91118 18.2897 0.421875 15.4496 0.421875 12.2618C0.421875 6.72743 4.90835 2.24097 10.4427 2.24097C12.3007 2.24097 14.0406 2.74663 15.5323 3.62785ZM5.81047 23.9293C5.95087 23.9616 6.09512 23.9858 6.24278 24.0013C7.08355 24.089 8.43203 24.1784 10.4426 24.1784C12.4533 24.1784 13.8018 24.089 14.6425 24.0013C14.8392 23.9808 15.0297 23.9446 15.2133 23.8944L15.1957 24.0567C15.0686 25.2296 14.2278 26.2927 12.9411 26.4616C12.2963 26.5463 11.4575 26.6159 10.4426 26.6159C9.3754 26.6159 8.54757 26.5389 7.93928 26.4469C6.81944 26.2775 6.0825 25.388 5.89519 24.3902C5.86827 24.2468 5.83989 24.0927 5.81047 23.9293Z" fill="url(#paint0_linear_7893_6718)"/>
</g>
<defs>
<linearGradient id="paint0_linear_7893_6718" x1="25.7486" y1="26.6214" x2="-4.34588" y2="9.69213" gradientUnits="userSpaceOnUse">
<stop stop-color="#FF51E3"/>
<stop offset="1" stop-color="#1B4DFF"/>
</linearGradient>
<clipPath id="clip0_7893_6718">
<rect width="26" height="26" fill="white" transform="translate(0.132812 0.90625)"/>
</clipPath>
</defs>
</svg>

