<svg width="16" height="17" viewBox="0 0 16 17" fill="none" xmlns="http://www.w3.org/2000/svg">
<path d="M5.7128 2.83157C6.16866 1.49753 8.01193 1.45713 8.55241 2.71036L8.59814 2.83233L9.21333 4.63139C9.35431 5.04397 9.58214 5.42153 9.88144 5.73858C10.1807 6.05564 10.5446 6.30482 10.9483 6.46932L11.1138 6.53106L12.9128 7.14549C14.2469 7.60135 14.2873 9.44462 13.0348 9.98509L12.9128 10.0308L11.1138 10.646C10.701 10.7869 10.3233 11.0147 10.0061 11.314C9.68895 11.6133 9.43966 11.9772 9.27507 12.381L9.21333 12.5457L8.59891 14.3455C8.14304 15.6796 6.29978 15.72 5.76006 14.4675L5.7128 14.3455L5.09837 12.5465C4.95748 12.1337 4.7297 11.756 4.43039 11.4388C4.13109 11.1216 3.76722 10.8723 3.36336 10.7078L3.1987 10.646L1.39964 10.0316C0.0648381 9.57573 0.0244358 7.73247 1.27767 7.19275L1.39964 7.14549L3.1987 6.53106C3.61129 6.39008 3.98884 6.16225 4.3059 5.86295C4.62295 5.56365 4.87213 5.19983 5.03663 4.79605L5.09837 4.63139L5.7128 2.83157ZM13.2543 0.203125C13.3969 0.203125 13.5367 0.24313 13.6577 0.318593C13.7787 0.394057 13.8761 0.501953 13.9389 0.630019L13.9755 0.719209L14.2423 1.50134L15.0252 1.76815C15.1681 1.8167 15.2934 1.9066 15.3852 2.02643C15.4769 2.14627 15.5311 2.29065 15.5407 2.44128C15.5504 2.59192 15.515 2.74202 15.4393 2.87257C15.3635 3.00313 15.2507 3.10824 15.1151 3.17461L15.0252 3.2112L14.2431 3.47801L13.9762 4.2609C13.9276 4.40378 13.8376 4.52901 13.7178 4.62071C13.5979 4.71241 13.4535 4.76646 13.3029 4.77601C13.1522 4.78557 13.0021 4.75019 12.8716 4.67437C12.7411 4.59854 12.6361 4.48568 12.5698 4.35009L12.5332 4.2609L12.2664 3.47877L11.4835 3.21197C11.3406 3.16341 11.2153 3.07352 11.1235 2.95368C11.0317 2.83385 10.9776 2.68946 10.968 2.53883C10.9583 2.38819 10.9936 2.23809 11.0694 2.10754C11.1452 1.97699 11.258 1.87187 11.3935 1.8055L11.4835 1.76891L12.2656 1.5021L12.5324 0.719209C12.5838 0.568596 12.6811 0.437847 12.8105 0.345295C12.94 0.252743 13.0952 0.203029 13.2543 0.203125Z" fill="white"/>
</svg>

